<svg id="Ebene_3" data-name="Ebene 3" xmlns="http://www.w3.org/2000/svg" viewBox="0 0 273.997 67.2128"><title>10_Jahre_GF_websitelogo</title><g id="_10_Jahre" data-name="10_Jahre"><path d="M273.215,33.4307c0.9218-12.4222-5.0937-24.8528-15.8374-30.0146-6.972-3.3506-15.1691-3.3634-23.077-.0375a34.574,34.574,0,0,0-10.1664,6.595,29.463,29.463,0,0,0-12.0957,37c0.0934,0.2176.1968,0.4288,0.2949,0.6433a29.3847,29.3847,0,0,0,14.9609,17.7045,28.46,28.46,0,0,0,12.7405,2.7852c12.8058,0,26.7938-6.9994,32.1671-17.7364A21.3665,21.3665,0,0,0,273.215,33.4307ZM234.6186,4.1367A29.7631,29.7631,0,0,1,246.147,1.7172a24.9871,24.9871,0,0,1,10.8751,2.44c9.9155,4.7642,15.6865,15.9126,15.4694,27.3821a30.016,30.016,0,0,0-1.3936-2.8477c-0.2382-.4269-0.49-0.8506-0.7511-1.2716A26.8862,26.8862,0,0,0,268.3,18.4733C264.5124,9.6519,256.8154,6.4572,251.0245,5.33a41.3342,41.3342,0,0,0-23.5289,2.9335c-0.0311.0133-.0609,0.0287-0.0919,0.0421A33.6256,33.6256,0,0,1,234.6186,4.1367ZM214.6365,26.623A29.4774,29.4774,0,0,0,243.5042,61.85a29.617,29.617,0,0,0,9.8495-1.6972,23.7947,23.7947,0,0,1-2.93,1.5216A28.6344,28.6344,0,0,1,213.1,47.3165,28.5394,28.5394,0,0,1,214.6365,26.623Zm16.5063,31.5805a28.6532,28.6532,0,0,1-14.9072-34.4718A28.6378,28.6378,0,0,1,253.3064,13.343,41.1487,41.1487,0,0,1,269.537,27.6822a37.0925,37.0925,0,0,1-2.76,15.6655,36.2109,36.2109,0,0,1-10.2623,14.5632A28.6147,28.6147,0,0,1,231.1428,58.2035ZM224.625,10.6388A29.0865,29.0865,0,0,1,227.819,9.02a41.8934,41.8934,0,0,1,16.4948-3.653c11.4373,0,19.95,5.79,23.23,13.4312a25.4419,25.4419,0,0,1,1.8538,7.1856,42.5164,42.5164,0,0,0-15.7229-13.376,29.5216,29.5216,0,0,0-36.2185,7.9636c0.0905-.2.175-0.4013,0.27-0.6A31.7492,31.7492,0,0,1,224.625,10.6388Zm42.9156,33.014a38.56,38.56,0,0,0,2.8638-14.514,28.05,28.05,0,0,1,1.98,4.4048,31.7963,31.7963,0,0,1-3.0086,11.2432,28.471,28.471,0,0,1-9.59,11.1832A38.6507,38.6507,0,0,0,267.5406,43.6528Zm-55.0267-18.93a28.4729,28.4729,0,0,1,8.9556-11.9505,31.8663,31.8663,0,0,0-4.4839,6.8427,29.8975,29.8975,0,0,0-1.4816,3.7139c-0.4913.7862-.9532,1.5994-1.3763,2.4449a29.2939,29.2939,0,0,0-3,15.6887A28.4361,28.4361,0,0,1,212.5139,24.7225Zm58.9534,25.2791c-7.1016,14.1877-29.6186,21.6844-43.8047,14.5839a28.4872,28.4872,0,0,1-12.1292-11.5574A29.4127,29.4127,0,0,0,250.7471,62.43a26.1207,26.1207,0,0,0,6.2313-3.8382A29.3108,29.3108,0,0,0,270.117,45.1434a32.4039,32.4039,0,0,0,2.8709-9.5974A20.3117,20.3117,0,0,1,271.4673,50.0016Z" transform="translate(-0.5 -0.8936)" fill="#fff"/><path d="M226.4252,28.4379l-4.3487,2.2506-1.8691-3.4331,7.7054-4.6919h4.9208V43.1621l3.9291,0.2289v3.7382H222.2292v-3.662l3.28-.1907c0.7248-.1145.9156-0.2671,0.9156-1.2207V28.4379Z" transform="translate(-0.5 -0.8936)" fill="#fff"/><path d="M254.1925,26.741c-1.5529-3.2219-4.2776-4.6735-7.8172-4.6735-5.6074,0-9.5364,3.8527-9.5364,12.6644,0,8.85,3.0517,12.7407,9.3076,12.7407,3.7074,0,6.4809-1.438,8.0459-4.7347V26.741Zm-7.97,15.6963c-2.0218,0-2.9754-1.7928-2.9754-7.2858,0-6.1415,1.03-7.8962,3.0517-7.8962,1.831,0,2.9754,1.64,2.9754,7.4384C249.2746,40.8353,248.0919,42.4373,246.2228,42.4373Z" transform="translate(-0.5 -0.8936)" fill="#fff"/><path d="M259.997,42.404a7.0744,7.0744,0,0,1,.936.0514c0.7643,0.1289,1.1765.6184,1.1765,1.709a3.8247,3.8247,0,0,1-.3091,1.563h-1.4943l-0.0687-.9446h0.644c0.146,0,.2061-0.0085.24-0.1374a1.2782,1.2782,0,0,0,.06-0.4037c0-.5066-0.3092-0.6011-0.7557-0.6011h-3.3578l-0.0344.55h-0.7471V41.923h0.7214l0.0257,0.2663a0.1969,0.1969,0,0,0,.2491.2147h2.7137Z" transform="translate(-0.5 -0.8936)" fill="#fff"/><path d="M261.0533,37.5861c0.1717,0,.2318-0.0429.24-0.1888l0.0172-.2406h0.687v1.3912l-0.4294.0344-0.0086.0344a1.3006,1.3006,0,0,1,.55,1.1421c0,1.271-.9274,1.7175-2.0954,1.7175a2.1742,2.1742,0,0,1-2.4819-2.31,4.7584,4.7584,0,0,1,.3092-1.58h3.2118Zm-2.5506,1.1852a1.63,1.63,0,0,0-.0859.5324c0,0.7471.7214,0.9618,1.5372,0.9618,0.6612,0,1.28-.1546,1.28-0.773a0.6619,0.6619,0,0,0-.6612-0.7213h-2.07Z" transform="translate(-0.5 -0.8936)" fill="#fff"/><path d="M259.2413,33.7473c-0.4723,0-.7471.103-0.7471,0.5925a0.7513,0.7513,0,0,0,.8244.7386h1.9409l0.0257-.3952h0.7128v2.0611H261.32l-0.0258-.2576c-0.0257-.1631-0.0687-0.2147-0.2834-0.2147h-4.1393c-0.18,0-.24.0429-0.2491,0.2062l-0.0257.2833h-0.7214v-1.666h2.3531a1.3223,1.3223,0,0,1-.6956-1.2194,1.2306,1.2306,0,0,1,1.46-1.3311h2.2672l0.0257-.4122h0.7128V34.22H261.32l-0.0258-.2576c-0.0257-.1633-0.0687-0.2147-0.2834-0.2147h-1.7691Z" transform="translate(-0.5 -0.8936)" fill="#fff"/><path d="M259.2928,30.0457h1.958l0.0343-.7127h0.7128v2.3788H261.32l-0.0258-.2748c-0.0257-.18-0.0859-0.206-0.2834-0.206h-2.3788c-0.1718,0-.2319.0514-0.24,0.1975l-0.0258.2919H257.644V30.1488h0.6613V30.1317a1.25,1.25,0,0,1-.7729-1.22,2.0791,2.0791,0,0,1,.146-0.79h1.5458l0.0687,0.97h-0.5667c-0.1374,0-.18.0172-0.2061,0.0773a0.6923,0.6923,0,0,0-.0258.2147A0.702,0.702,0,0,0,259.2928,30.0457Z" transform="translate(-0.5 -0.8936)" fill="#fff"/><path d="M258.7862,24.0512c1.228,0,1.5458,1.0735,1.5029,2.4217a0.8959,0.8959,0,0,0,.91-0.97,1.8994,1.8994,0,0,0-.3435-1.082l0.8158-.3436a2.961,2.961,0,0,1,.4465,1.58,1.9,1.9,0,0,1-2.1813,2.0267,2.1789,2.1789,0,0,1-2.4046-2.1728A1.2308,1.2308,0,0,1,258.7862,24.0512Zm-0.3865,1.52a1.0067,1.0067,0,0,0,1.0992.91c0.0344-.8588-0.1116-1.3827-0.6526-1.3827A0.4142,0.4142,0,0,0,258.4,25.5712Z" transform="translate(-0.5 -0.8936)" fill="#fff"/></g><g id="LOGO"><path d="M11.5345,42.7926c3.2167,0,4.8385,1.3578,4.8385,3.8944,0,1.9466-1.0623,4.5435-8.29,4.5435C2.0047,51.23.5,49.6959,0.5,47.9553c0-1.6522,1.5349-2.2714,2.9521-2.4184v-0.06c-1.5949-.2944-2.4795-0.8838-2.4795-2.6841A2.7829,2.7829,0,0,1,3.6868,39.99V39.9314a4.06,4.06,0,0,1-2.2115-3.9823c0-3.5995,3.1866-5.2218,6.43-5.2218a8.7966,8.7966,0,0,1,5.0161,1.4457,3.6667,3.6667,0,0,1,3.066-1.4457A2.847,2.847,0,0,1,18.97,33.6186a1.8137,1.8137,0,0,1-1.89,2.0939,1.5858,1.5858,0,0,1-1.7994-1.5633,1.64,1.64,0,0,1,1.357-1.71c0.0605-.1179-0.1472-0.4425-1.0017-0.4425a2.6118,2.6118,0,0,0-1.977,1.2976,5.1838,5.1838,0,0,1,.8244,2.6554c0,3.7753-3.2436,5.1622-6.5777,5.1622A9.1111,9.1111,0,0,1,4.7792,40.61a1.323,1.323,0,0,0-.7977,1.1208c0,0.5314.4726,1.062,2.5065,1.062h5.0465Zm-4.9257,2.98c-2.0373,0-3.1.796-3.1,1.9759,0,1.0617,1.1526,1.829,4.4833,1.829,3.2169,0,4.9593-.6192,4.9593-2.0947a1.7326,1.7326,0,0,0-1.86-1.71H6.6088ZM7.9658,39.46c1.7088,0,2.5667-1.1808,2.5667-3.3926,0-2.5073-.8579-3.6873-2.5667-3.6873-1.6821,0-2.5366,1.18-2.5366,3.54S6.2837,39.46,7.9658,39.46ZM31.33,44.9756v-2.33H31.27a5.2529,5.2529,0,0,1-4.9859,2.7724c-2.7412,0-4.3361-1.386-4.3361-4.13V34.2969a1.0028,1.0028,0,0,0-1.18-1.18H19.2634V31.17h6.1656v9.7943a2.0775,2.0775,0,0,0,2.2717,2.1527,3.8014,3.8014,0,0,0,3.629-3.8052v-5.015c0-.8261-0.5028-1.18-1.4442-1.18H28.29V31.17h6.5209V41.8485c0,0.8562.3518,1.1808,1.6821,1.1808h1.1793v1.9464H31.33ZM38.0837,33.117V31.259c3.0092-.2069,3.7765-2.8623,4.0445-5.5757h1.8261V31.17h3.8971V33.117H44.045V41.82a0.9347,0.9347,0,0,0,1.1191.9731c0.9148,0,1.27-.5016,1.27-1.6813V38.4857h1.9466v2.4787c0,3.097-1.7122,4.4537-4.041,4.4537-2.2115,0-3.7762-.9142-3.7762-3.2741V33.117h-2.48Zm15.8148,5.31c-0.09,2.3008.62,4.7794,3.3607,4.7794,2.1246,0,3.1869-1.0921,3.5723-3.1272h2.4459c-0.3819,3.3624-2.4158,5.3389-6.34,5.3389-4.5736,0-6.9932-2.5668-6.9932-7.345,0-4.3068,2.7745-7.3458,6.846-7.3458,4.835,0,6.8724,4.3369,6.5473,7.7H53.8985ZM59.3837,36.48c0.03-1.8583-.56-3.6873-2.654-3.6873-2.0069,0-2.7441,1.8291-2.8313,3.6873h5.4853Zm5.784-5.31h2.8012V30.4027c0-3.7753,2.0072-5.5756,5.1033-5.5756,1.89,0,4.1318,1.1211,4.1318,3.2749a1.8394,1.8394,0,0,1-1.89,2.0359,1.7862,1.7862,0,0,1-1.9165-1.7113,1.6155,1.6155,0,0,1,1.5044-1.6224,0.1489,0.1489,0,0,1-.0568-0.0887,2.7527,2.7527,0,0,0-1.4476-.4126c-1.5346,0-1.9469,1.0318-1.9469,2.36V31.17H74.46V33.117H71.45v8.7315a1.0042,1.0042,0,0,0,1.18,1.1808h1.7994v1.9464H65.1978V43.0293H66.79a1.003,1.003,0,0,0,1.1794-1.1808V33.117H65.1677V31.17Zm18.1433,2.2417h0.0571c1.1793-1.77,2.0941-2.6844,3.6893-2.6844,1.8864,0,3.5685,1.0921,3.5685,3.2448a2.2656,2.2656,0,0,1-2.2417,2.4786A1.9013,1.9013,0,0,1,86.29,34.5626a1.8017,1.8017,0,0,1,1.9466-1.77,1.5962,1.5962,0,0,0-1.24-.4126c-2.4192,0-3.6592,2.4187-3.6592,4.5424v4.9263a1.0052,1.0052,0,0,0,1.1828,1.1808h1.8563v1.9464H77.0554V43.0293h1.6215a1.0053,1.0053,0,0,0,1.183-1.1808V34.2969a1.0051,1.0051,0,0,0-1.183-1.18H77.0554V31.17h6.2557v2.2417Zm24.84,6.4307v0.8853c0,3.3045-1.33,4.69-3.8066,4.69-1.4743,0-2.7443-.62-2.9791-2.1831a5.5011,5.5011,0,0,1-4.8385,2.1831c-2.3019,0-4.1014-1.0909-4.1014-3.7464,0-5.7226,8.85-2.95,8.85-7.1091,0-1.8881-1.592-2.2419-3.1567-2.2419a3.8379,3.8379,0,0,0-2.7443.9731,1.5023,1.5023,0,0,1,1.9469,1.5346c0,1.3268-.9116,1.74-2.0643,1.74a2.0946,2.0946,0,0,1-2.1242-2.1828c0-3.0092,3.5986-3.6586,5.9309-3.6586,3.984,0,5.693,1.7994,5.693,4.2778v7.227c0,0.6494.2646,0.9742,0.707,0.9742,0.4459,0,.7977-0.4138.7977-2.2419v-1.122h1.89Zm-6.8758-2.1529-3.1266,1.4157A2.3394,2.3394,0,0,0,96.38,41.3469a1.5928,1.5928,0,0,0,1.7693,1.8594c2.0072,0,3.1266-1.7116,3.1266-3.6V37.6895Zm18.8226,5.1031c3.2167,0,4.8385,1.3578,4.8385,3.8944,0,1.9466-1.0623,4.5435-8.29,4.5435-6.0787,0-7.5828-1.5346-7.5828-3.2752,0-1.6522,1.5346-2.2714,2.9521-2.4184v-0.06c-1.5954-.2944-2.48-0.8838-2.48-2.6841A2.7826,2.7826,0,0,1,112.25,39.99V39.9314a4.06,4.06,0,0,1-2.2112-3.9823c0-3.5995,3.1863-5.2218,6.43-5.2218a8.7962,8.7962,0,0,1,5.0164,1.4457,3.6667,3.6667,0,0,1,3.0657-1.4457,2.8471,2.8471,0,0,1,2.9825,2.8913,1.8138,1.8138,0,0,1-1.89,2.0939,1.5859,1.5859,0,0,1-1.8-1.5633,1.64,1.64,0,0,1,1.3572-1.71c0.06-.1179-0.1475-0.4425-1.002-0.4425a2.6128,2.6128,0,0,0-1.977,1.2976,5.1809,5.1809,0,0,1,.8247,2.6554c0,3.7753-3.2436,5.1622-6.578,5.1622a9.1108,9.1108,0,0,1-3.126-.5016,1.323,1.323,0,0,0-.7977,1.1208c0,0.5314.4723,1.062,2.5062,1.062h5.0468Zm-4.9257,2.98c-2.0373,0-3.1.796-3.1,1.9759,0,1.0617,1.1524,1.829,4.4832,1.829,3.2167,0,4.959-.6192,4.959-2.0947a1.7325,1.7325,0,0,0-1.8594-1.71h-4.4833Zm1.3567-6.3131c1.709,0,2.567-1.1808,2.567-3.3926,0-2.5073-.8579-3.6873-2.567-3.6873-1.6821,0-2.5366,1.18-2.5366,3.54S114.8471,39.46,116.5292,39.46Zm16.4317-1.0328c-0.09,2.3008.62,4.7794,3.3613,4.7794,2.124,0,3.1863-1.0921,3.572-3.1272H142.34c-0.3822,3.3624-2.4161,5.3389-6.34,5.3389-4.5739,0-6.9929-2.5668-6.9929-7.345,0-4.3068,2.7742-7.3458,6.8454-7.3458,4.8351,0,6.8724,4.3369,6.5475,7.7h-9.4394Zm5.4853-1.9472c0.03-1.8583-.56-3.6873-2.6537-3.6873-2.0069,0-2.7443,1.8291-2.8316,3.6873h5.4853Zm9.7384,4.5725A2.1829,2.1829,0,1,1,146,43.235,2.142,2.142,0,0,1,148.1846,41.0522Zm11.8291-7.3157H160.07a5.9394,5.9394,0,0,1,5.1334-3.0092c2.5969,0,4.1889,1.5635,4.1889,4.75v6.3717c0,0.8562.3552,1.1808,1.7728,1.1808h1.0617v1.9464h-8.6147V43.0293H164.32c1.24,0,1.5948-.3246,1.5948-1.1808V35.7124c0-2.2118-1.1828-2.6844-2.5968-2.6844a3.634,3.634,0,0,0-3.3039,3.3929v5.4276a1.0029,1.0029,0,0,0,1.1793,1.1808h1.15v1.9464H153.67V43.0293h1.6821a1.0043,1.0043,0,0,0,1.18-1.1808V34.71c0-1.2678-.3552-1.5926-1.89-1.5926H153.67V31.17h6.3432v2.5665Zm17.789,4.69c-0.0907,2.3008.62,4.7794,3.3607,4.7794,2.1245,0,3.1868-1.0921,3.5719-3.1272h2.4465c-0.3822,3.3624-2.4161,5.3389-6.34,5.3389-4.5739,0-6.9935-2.5668-6.9935-7.345,0-4.3068,2.7748-7.3458,6.846-7.3458,4.835,0,6.8724,4.3369,6.5475,7.7h-9.4394Zm5.4853-1.9472c0.03-1.8583-.56-3.6873-2.6537-3.6873-2.0075,0-2.7444,1.8291-2.8316,3.6873h5.4853Zm5.8411-3.3627V31.259c3.009-.2069,3.7762-2.8623,4.0443-5.5757h1.8261V31.17h3.8973V33.117H195.09V41.82a0.9347,0.9347,0,0,0,1.1191.9731c0.9148,0,1.27-.5016,1.27-1.6813V38.4857h1.9466v2.4787c0,3.097-1.7119,4.4537-4.0407,4.4537-2.2118,0-3.7768-.9142-3.7768-3.2741V33.117H189.129Z" transform="translate(-0.5 -0.8936)" fill="#fff"/></g></svg>