<?xml version="1.0" encoding="UTF-8" standalone="no"?>
<svg id="svg2" xmlns:rdf="http://www.w3.org/1999/02/22-rdf-syntax-ns#" xmlns="http://www.w3.org/2000/svg" xml:space="preserve" height="746.67" width="2779.1" version="1.1" xmlns:cc="http://creativecommons.org/ns#" viewBox="0 0 2779.0933 746.66669" xmlns:dc="http://purl.org/dc/elements/1.1/"><metadata id="metadata8"><rdf:RDF><cc:Work rdf:about=""><dc:format>image/svg+xml</dc:format><dc:type rdf:resource="http://purl.org/dc/dcmitype/StillImage"/></cc:Work></rdf:RDF></metadata><g id="g10" transform="matrix(1.3333 0 0 -1.3333 0 746.67)"><g id="g12" transform="scale(.14213)"><path id="path14" d="m9757.5 3940.1h-617.6v-3453.7c561.26-19.312 1120.2-47.633 1676.8-84.734v608.49c-352.1 23.49-705.2 43.4-1059.2 59.87zm4907.7-0.34h-678.3l-447-1036.4-402 1036.4h-668.1l718-1852-784-1816.8c216.8-21.149 433.1-43.715 649.1-67.566l455.8 1056.4 451.5-1164.5c235.2-30.238 469.7-61.781 703.9-95.195l0.9 0.39453-804 2074.8zm-7644.9-3423.2l617.58 0.141v1404.9h837.14v608.49h-837.14v795.72h1106.4v613.96h-1724zm-2306.1 2809.2h646.3v-2845.4c205.5 7.754 411.42 14.148 617.56 19.543v2825.9h646.32v614h-1910.2zm-2111.3-3022.3c569.18 51.718 1141 94.343 1715.4 127.43v608.55c-367-21.2-733-46.31-1097.9-75.01v921.24c239.43 2.39 554.69 9.69 833.98 6.22v608.54c-223.12 0.54-581.75-3.12-833.98-6.35v831.66h1097.9v613.96h-1715.4zm-1211.5 1406.7-804.28 2229.6h-586.92v-3939.8c205.46 29.242 411.3 57.25 617.56 84.113v2142.5l715.14-2054.5c224.95 26.09 450.29 50.801 676.06 74.027v3693.7h-617.6zm9934.8-1345.2c206.2-15.777 412-32.703 617.6-51.004v3625.8h-617.6v-3574.8" fill="#db202c"/></g></g></svg>