<?xml version="1.0" encoding="UTF-8" standalone="no"?>
<svg
   xmlns:dc="http://purl.org/dc/elements/1.1/"
   xmlns:cc="http://creativecommons.org/ns#"
   xmlns:rdf="http://www.w3.org/1999/02/22-rdf-syntax-ns#"
   xmlns:svg="http://www.w3.org/2000/svg"
   xmlns="http://www.w3.org/2000/svg"
   xmlns:sodipodi="http://sodipodi.sourceforge.net/DTD/sodipodi-0.dtd"
   xmlns:inkscape="http://www.inkscape.org/namespaces/inkscape"
   width="559.94pt"
   height="538pt"
   viewBox="0 0 559.94 538"
   version="1.1"
   id="svg2"
   inkscape:version="0.91 r13725"
   sodipodi:docname="spiegel_sprite_troll.svg">
  <metadata
     id="metadata265">
    <rdf:RDF>
      <cc:Work
         rdf:about="">
        <dc:format>image/svg+xml</dc:format>
        <dc:type
           rdf:resource="http://purl.org/dc/dcmitype/StillImage" />
        <dc:title></dc:title>
      </cc:Work>
    </rdf:RDF>
  </metadata>
  <defs
     id="defs263" />
  <sodipodi:namedview
     pagecolor="#ffffff"
     bordercolor="#666666"
     borderopacity="1"
     objecttolerance="10"
     gridtolerance="10"
     guidetolerance="10"
     inkscape:pageopacity="0"
     inkscape:pageshadow="2"
     inkscape:window-width="1920"
     inkscape:window-height="1017"
     id="namedview261"
     showgrid="false"
     inkscape:zoom="1.4037175"
     inkscape:cx="519.60522"
     inkscape:cy="456.96986"
     inkscape:window-x="-8"
     inkscape:window-y="-8"
     inkscape:window-maximized="1"
     inkscape:current-layer="#333333ff"
     fit-margin-top="0"
     fit-margin-left="0"
     fit-margin-right="0"
     fit-margin-bottom="0"
     units="pt" />
  <g
     id="#981914ff"
     transform="matrix(0.99592874,0,0,0.99576271,0,2.2796611)">
    <path
       d="m 1.29,0 33.44,0 c 0.41,6.84 0.05,13.7 0.15,20.54 -2.56,0.01 -5.13,0.01 -7.69,0.01 0.01,-2.97 0.02,-5.94 0.02,-8.9 -0.8,-0.02 -2.4,-0.05 -3.2,-0.07 0.02,9.83 -0.19,22.1 -0.07,31.92 l 1.98,0 0.08,11.36 c -5.22,-0.01 -10.45,-0.01 -15.67,0 0,-3.75 0.01,-7.61 -0.01,-11.36 l 2.7896,0 C 13.1196,32.87 13.14,22.23 13.14,11.6 11.71,11.61 10.28,11.63 8.85,11.65 8.83,14.62 8.83,17.59 8.82,20.57 6.26,20.55 3.7,20.55 1.14,20.54 1.19,13.69 1.13,6.84 1.29,0 Z"
       id="path5"
       inkscape:connector-curvature="0"
       style="opacity:1;fill:#981914"
       sodipodi:nodetypes="ccccccccccccccccc" />
    <path
       d="m 121.77,0 c -0.09,3.86 -0.29,7.72 -0.32,11.58 -0.64,0.02 -1.91,0.07 -2.54,0.09 -0.02,10.63 -0.03,21.2596 -0.04,31.8796 1.56,0.01 3.12,0.0104 4.69,0.0204 0.03,-3.27 0.05,-6.54 0.08,-9.81 3.35,0 6.69,0 10.04,-0.01 0.07,7.03 -0.02,14.07 -0.02,21.1 -9.36,0.02 -18.72,-0.02 -28.08,0.02 -0.01,-3.49 -0.02,-7.8304 0.07,-11.3204 l 2.12,0 0.39,-31.8296 c -0.63,-0.05 -1.88,-0.17 -2.51,-0.22 0.02,-3.72 0.03,-7.44 0.04,-11.16 z"
       id="path7"
       inkscape:connector-curvature="0"
       style="opacity:1;fill:#981914"
       sodipodi:nodetypes="ccccccccccccccc" />
    <path
       d="m 200.4,0 27.98,0 c 0.11,5.94 0.04,11.88 0,17.82 -2.99,-0.02 -5.98,-0.03 -8.97,-0.03 0.01,-2.06 0.01,-4.11 0.01,-6.17 -2,-0.01 -3.99,-0.01 -5.99,-0.02 -0.03,3.32 -0.04,6.64 -0.07,9.95 2.83,0.01 5.66,0.02 8.49,0.03 -0.04,3.35 -0.05,6.71 -0.05,10.07 -2.82,0 -5.64,0 -8.45,0 0,3.97 0,7.95 0,11.92 1.99,-0.01 3.99,-0.02 5.99,-0.03 0,-2.41 0.01,-4.82 0.01,-7.22 3.22,-0.01 6.43,-0.01 9.65,-0.02 0,6.19 0,12.37 0,18.56 -9.59,-0.01 -19.17,0 -28.76,-0.01 0.01,-3.73 0.01,-7.47 -0.01,-11.21 0.88,-0.05 1.75,-0.11 2.63,-0.16 0.02,-10.62 0.11,-21.23 0.08,-31.85 -0.66,-0.01 -1.98,-0.03 -2.63,-0.04 0.03,-3.86 0.04,-7.73 0.09,-11.59 z"
       id="path9"
       inkscape:connector-curvature="0"
       style="opacity:1;fill:#981914" />
    <path
       d="m 295.61,0 5.84,0 c 5.53,0.69 11.15,2.43 15.32,6.3 5.77,5.15 8.21,13.13 8.09,20.7 0.01,8.27 -3.08,16.87 -9.56,22.25 -7.36,6.11 -18,7.18 -26.91,4.3 -7.58,-2.44 -13.04,-9.35 -14.83,-16.96 -2.36,-9.81 -0.91,-21.25 6.15,-28.87 4.06,-4.55 9.99,-6.83 15.9,-7.72 m -2.39,4.35 c -7.62,2.68 -11.27,11.01 -11.89,18.54 -0.63,8.06 -0.07,17.06 5.19,23.62 6.12,7.65 19.4,6.75 24.99,-1.08 3.85,-5.26 4.73,-12.01 4.84,-18.36 -0.07,-6.56 -1.23,-13.65 -5.74,-18.72 -4.23,-4.8 -11.49,-6.06 -17.39,-4 z"
       id="path11"
       inkscape:connector-curvature="0"
       style="opacity:1;fill:#981914" />
    <path
       d="m 38.17,0.37 c 7.33,0.08 14.66,-0.19 21.98,0.11 3.53,-0.03 6.39,3 7.1,6.29 0.71,4.64 0.52,9.41 0,14.07 -0.31,2.76 -2.43,4.7 -4.34,6.49 5.51,3.57 4.54,10.54 4.48,16.19 0.63,0.02 1.87,0.06 2.49,0.08 -0.04,3.75 -0.0396,7.5 -0.0296,11.24 l -13.1608,0 0,-22.11 c -1.76,0.01 -3.5196,0.01 -5.2896,0.02 l -0.15,22.07 c -4.49,0.04 -8.9704,0.06 -13.4604,-0.02 l 0,-11.2 C 38.3796,43.58 39.92,43.54 40.51,43.52 40.54,33 40.63,21.8096 40.62,11.2896 l -2.36,0 L 38.17,0.37 M 51.4,11.61 c -0.04,3.65 -0.05,7.3 -0.09,10.95 1.85,0.01 3.7,0.01 5.55,0.01 l -0.1,-10.98 c -1.79,0.01 -3.57,0.02 -5.36,0.02 z"
       id="path13"
       inkscape:connector-curvature="0"
       style="opacity:1;fill:#981914"
       sodipodi:nodetypes="ccccccccccccccccccccccc" />
    <path
       d="M 79.96,0.63 C 85,0.16 90.11,0.2 95.15,0.61 c 4.8,0.69 6.4,6.1 6.53,10.27 0.27,9.7 -0.05,19.41 0.02,29.12 -0.13,4.52 0.01,9.82 -3.54,13.18 -2.84,2.28 -6.78,1.5 -10.16,1.72 -4.04,-0.15 -9.13,0.65 -11.93,-3.01 -2.45,-3.81 -2.04,-8.57 -2.09,-12.9 0.14,-9.33 -0.19,-18.68 0.16,-28.02 0.31,-3.96 1.31,-9.22 5.82,-10.34 m 4.87,10.97 c -0.04,10.66 -0.05,21.31 -0.06,31.97 2.02,-0.01 4.04,-0.01 6.06,-0.02 0.22,-10.63 0.3,-21.27 0.25,-31.91 C 89,11.62 86.91,11.61 84.83,11.6 Z"
       id="path15"
       inkscape:connector-curvature="0"
       style="opacity:1;fill:#981914" />
    <path
       d="m 136.32,0.36 c 5.28,0 10.55,0.01 15.83,0 -0.01,3.74 -0.02,7.48 -0.02,11.22 -0.62,0.02 -1.88,0.05 -2.51,0.06 -0.05,10.64 -0.08,21.28 -0.1,31.93 1.54,-0.01 3.09,-0.01 4.63,-0.01 0.02,-3.27 0.03,-6.55 0.12,-9.82 3.27,0.02 6.54,0.02 9.81,0.02 0,7.04 -0.04,14.08 -0.06,21.12 -9.27,-0.06 -18.54,0 -27.81,-0.03 0.02,-3.76 0.04,-7.52 0.02,-11.28 0.65,-0.01 1.94,-0.03 2.59,-0.04 l -0.07,-31.89 c -0.62,-0.16 -1.85,0.15 -2.47,0 C 136.33,8 136.33,4 136.32,0.36 Z"
       id="path17"
       inkscape:connector-curvature="0"
       style="opacity:1;fill:#981914"
       sodipodi:nodetypes="ccccccccccccccc" />
    <path
       d="m 167.15,10.9 c 0.24,-3.93 1.25,-9.16 5.75,-10.23 6.85,-0.71 13.77,-0.11 20.65,-0.31 -0.02,5.15 -0.04,10.3 -0.08,15.45 -3.16,-0.02 -6.31,-0.03 -9.46,0 -0.02,-1.41 -0.04,-2.81 -0.06,-4.21 -1.97,0.01 -3.94,0.01 -5.91,0.01 -0.07,10.65 -0.04,21.31 -0.03,31.97 1.98,-0.01 3.95,-0.02 5.93,-0.02 0.05,-3.63 0.06,-7.25 -0.06,-10.87 -0.77,0.02 -2.31,0.08 -3.08,0.1 0,-3.74 0.01,-7.49 0.01,-11.24 4.4,0.01 8.79,0.02 13.19,0 0,11.11 0,22.22 0,33.33 -6.36,-0.12 -12.72,0.12 -19.07,-0.09 -2.72,-0.02 -5.45,-1.6 -6.51,-4.14 -1.66,-3.66 -1.42,-7.78 -1.44,-11.69 0.1,-9.35 -0.1,-18.71 0.17,-28.06 z"
       id="path19"
       inkscape:connector-curvature="0"
       style="opacity:1;fill:#981914" />
    <path
       d="m 233.17,0.36 c 5.23,0 10.47,0 15.7,0.01 -0.03,3.75 -0.04,7.52 -0.03,11.27 -0.62,0 -1.85,0 -2.47,0 -0.1,10.64 -0.06,21.24 -0.14,31.88 1.61,0.01 3.21,0.02 4.83,0.02 0.01,-3.26 0.02,-6.53 0.12,-9.79 3.23,0.01 6.47,0.01 9.7,-0.01 0.23,7.03 0.08,14.08 0.12,21.12 -9.31,-0.01 -18.63,0 -27.94,-0.01 0.02,-3.75 0.03,-7.49 0,-11.23 0.6,-0.03 1.81,-0.08 2.42,-0.11 0.02,-10.51 0.12,-21.36 0.1,-31.87 -0.58,-0.18 -1.76,0.17 -2.35,0 C 233.04,8.01 233.16,4 233.17,0.36 Z"
       id="path21"
       inkscape:connector-curvature="0"
       style="opacity:1;fill:#981914"
       sodipodi:nodetypes="ccccccccccccccc" />
    <path
       d="m 325.32,0.96 c 4.71,0.25 9.44,0.23 14.16,0.05 2.81,4.55 6.22,8.68 9.42,12.97 6.95,9.18 13.82,18.43 20.86,27.55 -0.1,-11.8 0.22,-23.63 -0.14,-35.42 -0.19,-3.22 -4.37,-1.82 -6.5,-2.4 0.02,-0.69 0.04,-2.08 0.06,-2.77 5.66,0.34 11.33,0.24 16.99,-0.03 0,0.7 -0.01,2.11 -0.02,2.81 -1.98,0.14 -3.97,0.21 -5.91,0.61 -0.88,1.38 -0.69,3.09 -0.78,4.64 0.02,15.41 0.01,30.83 0.01,46.24 -0.83,-0.01 -2.49,-0.03 -3.32,-0.04 C 358.8,40.03 347.42,24.92 336.03,9.8 c -0.12,11.06 0.01,22.11 -0.07,33.16 0,2.59 -0.09,5.2 0.45,7.74 1.96,0.79 4.12,0.67 6.19,0.86 -0.01,0.7 -0.03,2.09 -0.04,2.79 -5.65,-0.36 -11.31,-0.25 -16.97,0.03 -0.01,-0.71 -0.03,-2.12 -0.04,-2.82 1.98,-0.31 4.22,0.13 6.03,-0.88 0.63,-1.46 0.53,-3.1 0.62,-4.66 -0.02,-12.01 -0.05,-24.02 0.01,-36.03 -0.03,-1.87 -0.02,-3.78 -0.63,-5.57 -2.39,-0.87 -6.92,0.56 -6.26,-3.46 z"
       id="path23"
       inkscape:connector-curvature="0"
       style="opacity:1;fill:#981914" />
    <path
       d="m 384.41,0.9 c 6.91,0.41 13.83,0.26 20.74,0 0.01,0.71 0.01,2.11 0.01,2.81 -2.45,0.45 -7.05,-0.66 -6.53,3.26 -0.19,14.49 -0.01,29 -0.07,43.5 6.47,-0.19 13,0.44 19.44,-0.43 4.45,-1.08 4.75,-6.57 6.32,-10.09 0.8,-0.04 2.42,-0.11 3.22,-0.15 -0.85,4.86 -1.72,9.72 -2.59,14.58 -13.46,-0.33 -26.93,-0.4 -40.39,-0.01 0,-0.7 -0.01,-2.12 -0.01,-2.82 1.85,-0.15 3.74,-0.13 5.56,-0.53 1.2,-1 0.87,-2.74 1.04,-4.11 0.05,-11.96 -0.04,-23.92 0.04,-35.88 -0.03,-2.22 0.08,-4.5 -0.62,-6.63 -1.99,-0.49 -4.04,-0.54 -6.07,-0.65 -0.02,-0.71 -0.06,-2.13 -0.09,-2.85 z"
       id="path25"
       inkscape:connector-curvature="0"
       style="opacity:1;fill:#981914" />
    <path
       d="m 431.15,0.93 c 6.86,0.37 13.73,0.22 20.59,0 0.01,0.7 0.02,2.09 0.03,2.78 -1.91,0.15 -3.83,0.21 -5.7,0.56 -1.12,1.29 -0.82,3.12 -0.94,4.69 0,11.99 0.04,23.98 -0.02,35.97 0.02,1.89 0.03,3.79 0.43,5.65 1.89,1.05 4.15,0.71 6.22,0.97 -0.01,0.71 -0.03,2.13 -0.04,2.84 -6.86,-0.34 -13.73,-0.31 -20.59,-0.02 0,-0.71 0.01,-2.13 0.02,-2.84 1.91,-0.13 3.83,-0.2 5.73,-0.53 0.99,-1.46 0.76,-3.31 0.88,-4.98 -0.03,-12.36 -0.02,-24.72 0,-37.08 -0.17,-1.54 0.2,-3.41 -0.93,-4.66 -1.89,-0.37 -3.82,-0.42 -5.73,-0.57 0.01,-0.69 0.04,-2.09 0.05,-2.78 z"
       id="path27"
       inkscape:connector-curvature="0"
       style="opacity:1;fill:#981914" />
    <path
       d="m 457.93,0.95 c 4.6,0.29 9.21,0.25 13.82,0.01 9.7,13.79 20.19,27.03 30.32,40.52 0.12,-10.14 -0.01,-20.28 0.08,-30.43 -0.06,-2.19 0.13,-4.46 -0.6,-6.58 -1.93,-0.65 -4.01,-0.56 -6.01,-0.74 -0.01,-0.7 -0.02,-2.1 -0.03,-2.8 5.71,0.35 11.44,0.25 17.16,-0.04 -0.03,0.72 -0.08,2.15 -0.1,2.87 -2.06,0.11 -4.14,0.12 -6.13,0.65 -0.56,1.46 -0.61,3.03 -0.63,4.57 -0.01,15.5 0.05,31.01 -0.03,46.51 -1.57,-0.41 -3.55,-0.21 -4.42,-1.86 C 490.33,39.04 479.42,24.35 468.34,9.8 c -0.02,12.07 0.01,24.13 -0.03,36.19 0.05,1.67 -0.04,3.44 0.73,4.98 1.93,0.35 3.9,0.43 5.87,0.56 0.01,0.7 0.04,2.11 0.05,2.81 -5.69,-0.34 -11.38,-0.23 -17.07,0.03 0.03,-0.71 0.09,-2.13 0.12,-2.84 1.92,-0.13 3.86,-0.2 5.76,-0.59 0.98,-1.84 0.68,-4 0.79,-5.99 -0.08,-12.35 0.02,-24.7 -0.05,-37.05 -0.22,-1.14 0.19,-2.71 -0.83,-3.54 -1.88,-0.49 -3.83,-0.48 -5.74,-0.64 0,-0.69 0,-2.08 -0.01,-2.77 z"
       id="path29"
       inkscape:connector-curvature="0"
       style="opacity:1;fill:#981914" />
    <path
       d="m 516.91,0.91 c 12.96,0.44 25.94,0.41 38.89,0.01 0.2,4.27 0.43,8.54 0.58,12.81 -0.72,-0.11 -2.15,-0.34 -2.87,-0.45 -1.25,-2.74 -1.1,-7.17 -4.66,-8.06 -5.89,-0.9 -11.9,-0.22 -17.84,-0.42 0,6.49 0,12.98 0,19.46 4.98,-0.11 10.02,0.37 14.97,-0.44 2.58,-0.37 1.8,-3.59 2.31,-5.38 0.71,-0.03 2.11,-0.1 2.81,-0.13 -0.01,5.58 0,11.17 0,16.76 -0.7,0 -2.1,0 -2.8,-0.01 -0.54,-2.2 0.17,-5.71 -2.56,-6.6 -4.86,-0.87 -9.83,-0.32 -14.73,-0.45 0,7.46 0,14.93 0,22.39 6.61,-0.2 13.28,0.46 19.86,-0.38 4.98,-1.08 3.39,-9.43 9.07,-8.96 -0.77,4.47 -1.8,8.89 -2.75,13.32 -13.44,-0.06 -26.89,-0.57 -40.34,-0.02 0.04,-0.71 0.11,-2.12 0.14,-2.82 2,-0.13 4.03,-0.2 5.99,-0.72 0.51,-1.9 0.55,-3.88 0.56,-5.84 -0.06,-12 -0.02,-24 -0.02,-36.01 -0.08,-1.55 0.03,-3.22 -0.72,-4.64 -1.94,-0.37 -3.93,-0.46 -5.89,-0.62 0,-0.7 0,-2.1 0,-2.8 z"
       id="path31"
       inkscape:connector-curvature="0"
       style="opacity:1;fill:#981914" />
  </g>
  <g
     id="#333333ff"
     style="display:inline">
    <path
       d="m 182.72305,68.716949 c 7.12089,-2.111017 16.15396,0.159322 19.63971,7.189407 3.95384,7.995975 2.22092,19.487076 -5.78635,24.346394 -6.67272,3.87352 -16.52245,3.17649 -21.47222,-3.166521 -6.6528,-8.951907 -4.03351,-25.033475 7.61886,-28.36928 m 1.96198,1.93178 c -4.71075,1.59322 -7.12089,6.651695 -7.5591,11.301907 -0.46809,5.068432 -0.14939,10.734322 3.0575,14.926483 3.74469,4.948941 12.22004,4.610381 15.78547,-0.37839 2.40019,-3.305932 3.06746,-7.518009 3.12721,-11.511017 0.0299,-4.28178 -0.81666,-8.912076 -3.88412,-12.108475 -2.63921,-2.798093 -6.98146,-3.415466 -10.52696,-2.230508 z"
       id="path38"
       inkscape:connector-curvature="0"
       style="opacity:1;fill:#333333" />
    <path
       d="m 204.29486,69.672881 c 2.57946,-2.160805 6.20464,-0.876271 9.2721,-1.234745 6.08512,8.702966 12.74789,16.997669 19.10191,25.521398 -0.0598,-7.786864 0.12947,-15.573729 -0.12947,-23.350636 -1.33454,-0.109534 -2.65913,-0.20911 -3.99367,-0.308686 l -0.16931,-1.7625 c 3.89408,0.09958 7.78816,-0.03983 11.68224,0.238983 -1.36442,1.175 -3.09733,1.633051 -4.66094,2.429661 -0.81666,10.694491 0.42825,21.478602 -0.66728,32.163134 -1.48393,-1.2447 -2.99774,-2.47945 -4.1331,-4.052753 -6.29427,-8.47394 -12.65825,-16.878178 -19.0322,-25.272457 0.14939,8.483898 -0.31869,16.997669 0.20915,25.461652 1.21503,0.697038 2.69896,0.687078 4.05343,1.005718 -0.0398,0.39831 -0.0996,1.18496 -0.12947,1.57331 -3.81441,-0.15932 -7.61886,-0.0398 -11.42331,-0.15932 1.01585,-1.71272 3.02763,-1.80233 4.75058,-2.250428 0.18923,-9.220763 0.28882,-18.461441 0.0199,-27.672246 0.0398,-2.439619 -3.36624,-1.443856 -4.75058,-2.330085 z"
       id="path40"
       inkscape:connector-curvature="0"
       style="opacity:1;fill:#333333" />
    <path
       d="m 311.92488,68.388347 c 3.55547,0.149365 7.12089,0.139407 10.67636,0.03983 -0.0199,0.468008 -0.0498,1.423941 -0.0697,1.891949 -1.35446,0.08962 -2.69896,0.179237 -4.03351,0.278814 -0.25894,10.684534 -0.0299,21.369068 -0.13943,32.053599 -0.5378,-0.0299 -1.6134,-0.0996 -2.16116,-0.1394 -7.11094,-9.489623 -14.22187,-18.989199 -21.38259,-28.438987 0.0199,8.533686 -0.16931,17.067372 0.11951,25.601059 1.71299,0.448098 3.73473,0.537708 4.7705,2.240468 -3.80445,0.12945 -7.61886,0.0299 -11.43327,0.15932 l -0.13943,-1.77246 c 1.35447,-0.0896 2.71889,-0.18919 4.07335,-0.27881 0.32866,-9.798306 0.27886,-19.616527 0.0398,-29.414832 -1.3445,-0.109534 -2.67905,-0.20911 -4.01359,-0.308686 l -0.0398,-1.752542 c 2.86827,0.05975 5.73655,0.05975 8.61478,0.01 6.08513,8.64322 12.6483,16.957839 19.05212,25.372034 -0.01,-7.816737 0.25894,-15.633475 -0.18923,-23.430297 -1.32458,-0.119491 -2.63921,-0.229025 -3.94387,-0.338559 0.0498,-0.438135 0.14939,-1.324364 0.19918,-1.772458 z"
       id="path42"
       inkscape:connector-curvature="0"
       style="opacity:1;fill:#333333" />
    <path
       d="m 1.1154402,68.75678 c 7.2204834,-0.01992 14.4409668,-0.01 21.6614498,-0.01 l 0,12.317585 -4.710743,0 0,-5.337288 c -0.637394,-0.01 -1.892264,-0.01992 -2.529659,-0.02987 l 0.14939,19.934771 1.274788,3.98e-4 c 0.08963,2.071187 0.119512,4.142373 0.129471,6.223515 l -10.0090837,0 C 7.001379,99.784746 6.9217047,97.713161 6.9117455,95.632017 l 1.6233638,0 L 8.66458,75.687288 c -0.5975572,0 -1.7926717,-0.01 -2.4001882,-0.01 -0.019919,1.792372 -0.039837,3.584745 -0.059756,5.387076 l -5.0891959,0 c 0.00996,-4.102543 0.00996,-8.205085 0,-12.307627 z"
       id="path44"
       inkscape:connector-curvature="0"
       style="opacity:1;fill:#333333"
       sodipodi:nodetypes="ccccccccccccccccc" />
    <path
       d="m 50.184849,69.433898 c 3.366239,-1.204873 7.120891,-0.766737 10.616601,-0.477966 2.519699,0.139407 3.943877,2.678602 4.023552,4.968856 0.517883,6.303178 0.199185,12.646187 0.248982,18.96928 -0.229064,2.907627 0.13943,6.820974 -2.858316,8.454022 -3.386157,0.90615 -7.001379,0.61738 -10.447292,0.31865 -2.838397,-0.28877 -4.133104,-3.226274 -4.123145,-5.775426 -0.229064,-6.303178 -0.0498,-12.616314 -0.08963,-18.919492 0.179268,-2.598941 0.03984,-6.034322 2.629252,-7.537924 m 4.262575,6.293221 c -0.01,6.372881 0,12.75572 -0.01,19.128601 0.926214,0.01 2.778641,0.02987 3.704855,0.03983 0,-6.402754 0.01,-12.795551 0,-19.188348 -0.926214,0 -2.768682,0.01 -3.694896,0.01992 z"
       id="path48"
       inkscape:connector-curvature="0"
       style="opacity:1;fill:#333333" />
    <path
       d="m 109.76131,69.184958 c 4.70078,-0.936017 9.55095,-0.258899 14.32145,-0.438136 0,3.236229 0.01,6.4625 0.0199,9.688771 -2.07153,0.01 -4.14306,0.01992 -6.20464,0.03983 -0.0299,-0.687077 -0.0797,-2.061229 -0.10955,-2.748305 -1.26483,-0.01 -2.53962,-0.01992 -3.8144,-0.02987 -0.0199,6.392796 0,12.775635 -0.0199,19.168432 1.32458,0 2.65913,0 3.98371,0 -0.35853,-2.379873 0.88638,-5.904873 -2.29063,-6.721398 0.0199,-2.111017 0.0398,-4.231992 0.0597,-6.343009 2.85832,0.01 5.71663,0.01991 8.56499,0.03983 0,6.661652 -0.01,13.323305 0.01,19.994918 -4.5514,-0.0797 -9.13267,0.31864 -13.66414,-0.19916 -2.64918,-0.43813 -3.53555,-3.415462 -3.6451,-5.735589 -0.25895,-6.333051 -0.0697,-12.686017 -0.0996,-19.029025 0.11951,-2.678602 0.0996,-6.293221 2.8882,-7.687288 z"
       id="path50"
       inkscape:connector-curvature="0"
       style="opacity:1;fill:#333333" />
    <path
       d="m 127.73782,68.736864 c 5.90586,0.01 11.82167,0.01 17.73749,0.01 0,3.654449 -0.01,7.308898 -0.0199,10.973305 -1.91218,-0.01 -3.82436,-0.01992 -5.73655,-0.01992 -0.01,-1.324365 -0.01,-3.445339 -0.0199,-4.769703 -0.88637,-0.01 -2.65913,0.01 -3.5455,0 -0.01,2.081144 -0.01,4.919067 -0.01,7.000211 l 5.01948,0.02987 c -0.0199,2.081144 -0.0299,4.152331 -0.0398,6.223517 -1.6632,-0.01991 -3.31644,-0.02987 -4.96968,-0.04979 -0.01,2.270339 -0.01,5.227356 0,7.497695 1.19511,-0.05975 2.40019,0.05975 3.60526,0 -0.0199,-1.374153 -0.0398,-3.61422 -0.0498,-4.988373 2.06158,0 4.13311,0.01 6.20464,0.01 l 0,11.202328 c -6.07517,0 -12.14037,0.01 -18.20558,-0.0199 0.01,-2.061232 0.0199,-4.132817 0.0498,-6.204003 l 1.60305,0 c -0.0851,-6.677878 0.11722,-13.709171 0,-20.701508 l -1.56321,0 c -0.0598,-2.061229 -0.0697,-4.132416 -0.0598,-6.193645 z"
       id="path52"
       inkscape:connector-curvature="0"
       style="opacity:1;fill:#333333"
       sodipodi:nodetypes="ccccccccccccccccccccc" />
    <path
       d="m 148.33363,68.746822 10.2979,0 -0.005,5.258025 -1.75824,0 0,20.880746 3.02802,0 c -0.0199,-1.931779 -0.0299,-3.873517 -0.0498,-5.805296 2.13129,-0.02987 4.26258,-0.04979 6.39387,-0.0697 0.01,4.28178 0.01,8.56356 0.01,12.845337 l -17.89683,0 0.0466,-6.970337 1.58673,0 c 0.0199,-5.775423 0.0598,-15.105322 -0.0398,-20.880746 l -1.4923,0 z"
       id="path54"
       inkscape:connector-curvature="0"
       style="opacity:1;fill:#333333"
       sodipodi:nodetypes="ccccccccccccccc" />
    <path
       d="m 242.49869,68.667161 c 4.46176,-0.16928 8.94344,-0.149364 13.4052,0.09958 -1.24491,1.423941 -3.1073,1.742585 -4.83025,2.180721 -0.18923,9.549364 -0.0498,19.098728 -0.0797,28.648093 4.38209,-0.179237 8.9036,0.567589 13.17614,-0.567585 2.16116,-1.852119 1.96198,-5.655932 4.96968,-6.721398 -0.37845,3.286017 -1.00589,6.532203 -1.59348,9.778392 -7.8778,-0.10954 -15.74564,-0.16928 -23.62343,-0.0398 -1.16524,0.10953 -1.9321,-0.43814 -2.33048,-1.65297 1.52377,-0.14936 3.04755,-0.28877 4.58128,-0.428177 0.22906,-9.768432 0.19918,-19.55678 0.01,-29.325212 -1.46402,-0.119491 -2.93799,-0.238983 -4.40201,-0.358474 0.17927,-0.408263 0.5378,-1.204873 0.71707,-1.613136 z"
       id="path56"
       inkscape:connector-curvature="0"
       style="opacity:1;fill:#333333" />
    <path
       d="m 271.30095,68.517797 c 4.36217,0.129449 8.72433,0.129449 13.0865,-0.01 l -0.0797,1.792373 c -1.31463,0.08962 -2.6193,0.189195 -3.92396,0.298729 -0.12947,9.4 -0.35854,18.83983 0.0598,28.229873 -0.10955,2.051266 2.86828,0.995762 4.04347,1.643006 l -0.0697,1.6231 c -4.33229,-0.15933 -8.67454,-0.15933 -13.00683,0 l -0.0697,-1.61314 c 1.25487,-0.14936 2.50974,-0.35847 3.74469,-0.607416 0.73698,-2.240466 0.45812,-4.650211 0.51788,-6.960381 -0.11951,-7.42839 0.13943,-14.866737 -0.17927,-22.285169 -1.32458,-0.119492 -2.64917,-0.229026 -3.96379,-0.328602 l -0.15935,-1.782415 z"
       id="path58"
       inkscape:connector-curvature="0"
       style="opacity:1;fill:#333333" />
    <path
       d="m 324.42379,68.856356 c 8.47535,-0.607415 16.99054,-0.01 25.47585,-0.468009 0.12948,2.947458 0.23903,5.894916 0.0299,8.842373 -1.79267,-1.563347 -2.24084,-4.002966 -3.66502,-5.795339 -3.8642,-1.075423 -7.97738,-0.438135 -11.95114,-0.577542 0,4.102542 0,8.205085 0,12.29767 3.33636,-0.0697 6.71256,0.169279 10.00908,-0.487924 0.41829,-1.065466 0.82662,-2.130932 1.20508,-3.216314 l 1.42418,-0.04979 c 0,3.754026 0.0996,7.508051 -0.18923,11.262076 -1.43414,-1.184957 -1.90223,-2.997245 -2.68901,-4.580508 -3.04754,-1.254661 -6.53329,-0.517797 -9.7601,-0.697034 0,4.709958 0,9.419915 0,14.129873 4.37213,-0.09958 8.82393,0.428178 13.15622,-0.41822 1.57357,-2.041314 2.57945,-4.520763 4.64103,-6.173729 -0.10956,3.106779 -0.66728,6.173729 -1.34451,9.200849 -7.37983,-0.0896 -14.75966,-0.2589 -22.13949,-0.0996 -1.48394,0.13941 -2.8384,-0.42818 -4.08331,-1.14513 1.56361,-0.48792 3.17701,-0.81652 4.76054,-1.244699 0.49796,-8.882203 0.17927,-17.814195 0.17927,-26.706356 0.35853,-2.9375 -3.50567,-2.529237 -5.05932,-4.072669 z"
       id="path60"
       inkscape:connector-curvature="0"
       style="opacity:1;fill:#333333" />
    <path
       d="m 0.74694656,184.81292 c 6.39386254,0.1195 12.78772544,-0.1394 19.17162844,0.0896 2.011776,-0.11949 3.794488,1.65297 3.694895,3.66441 0.219105,8.28474 0.01,16.57945 0.09959,24.86419 0.13943,1.97161 -0.338615,4.79958 -2.808519,4.94894 -6.712559,0.45806 -13.4649563,0.0398 -20.19743459,0.17924 -0.009959,-1.84216 -0.009959,-3.67436 -0.0199186,-5.51652 0.69715007,-0.0299 2.10140967,-0.0896 2.79855977,-0.10954 -0.00996,-7.50805 0,-15.00614 0,-22.51419 -0.7071094,0 -2.1113689,-0.01 -2.80851906,-0.01 0.0199186,-1.87203 0.0398371,-3.73411 0.069715,-5.59619 m 9.20238154,5.66589 c 0.00996,7.54788 -0.00996,15.09577 0.019919,22.63369 2.4101473,0.01 4.8202953,0.01 7.2304423,0.0199 0.0498,-7.54789 0.01992,-15.10573 0.01992,-22.65361 -2.420107,0 -4.840214,0 -7.2702799,0 z"
       id="path62"
       inkscape:connector-curvature="0"
       style="opacity:1;fill:#333333" />
    <path
       d="m 26.820361,184.82288 c 7.678611,0.01 15.36718,0.01 23.045791,0.01 0.01,3.4553 0.01,6.91059 0,10.36589 -2.161165,-0.01 -4.312371,-0.0199 -6.463577,-0.0299 0,-1.55339 0,-3.10678 0,-4.66017 -2.549578,0 -5.099156,0 -7.658693,0 0.01,2.58898 0,5.17796 0,7.76695 3.416036,0 6.832072,0 10.248107,0 0,1.88199 0.01,3.77394 0.01,5.66589 -3.406077,0 -6.802194,0 -10.20827,0 -0.02988,3.0769 -0.0498,6.16377 -0.06971,9.26059 2.559537,0 5.119074,0 7.68857,0 0,-2.15085 -0.01,-4.3017 -0.01,-6.45254 2.151206,-0.0199 4.302412,-0.0299 6.443658,-0.0398 0.02988,3.993 0.03984,7.97606 0.02988,11.96906 -7.698529,0 -15.397058,0 -23.095587,0 0,-1.87203 0,-3.74406 0,-5.60614 0.627435,-0.0398 1.882305,-0.12945 2.50974,-0.16928 -0.03984,-7.48814 -0.01,-14.97627 -0.01992,-22.46441 -0.627435,-0.01 -1.882306,-0.0398 -2.509741,-0.0597 0.01992,-1.85212 0.03984,-3.70424 0.05976,-5.55636 z"
       id="path64"
       inkscape:connector-curvature="0"
       style="opacity:1;fill:#333333" />
    <path
       d="m 52.585037,184.8428 c 6.672723,0.0797 13.365364,-0.17924 20.038087,0.0797 2.350392,-0.0598 3.516688,2.42521 3.416035,4.5108 -0.18825,3.90068 1.075603,8.53369 -1.95202,11.65043 2.987786,3.23623 1.782712,7.86652 1.96198,11.85953 l 2.50974,0.0797 c -0.01,1.84216 -0.01,3.68432 -0.01992,5.53644 l -11.831633,0 0,-5.55635 c 0.677232,-0.01 2.021735,-0.0299 2.689008,-0.0398 -0.01,-3.07691 -0.01,-6.14386 0,-9.21081 l -7.469466,0 c 0,3.07691 0,6.15381 -0.01,9.24068 0.657313,-0.01 1.95202,-0.01 2.599374,-0.01 -0.01,1.85212 -0.01,3.7142 -0.01,5.57627 l -11.941186,0 c 0,-1.85212 0,-3.70424 0.01,-5.55635 0.717069,-0.01 2.161166,-0.0299 2.888194,-0.0398 0,-7.45827 -0.03984,-14.91653 0.01992,-22.36483 -0.985969,-0.12945 -1.971939,-0.23899 -2.957908,-0.33856 0.01992,-1.80233 0.03984,-3.61462 0.05976,-5.41695 m 9.431446,5.64597 c 0,2.57903 0.01,5.16801 0.01,7.75699 l 7.459506,0 c 0,-2.58898 0,-5.17796 0.01,-7.76695 -2.499782,0 -4.989603,0 -7.479425,0.01 z"
       id="path66"
       inkscape:connector-curvature="0"
       style="opacity:1;fill:#333333"
       sodipodi:nodetypes="ccsccccccccccccccccccccccc" />
    <path
       d="m 137.7967,185.95805 c 3.67498,-1.2447 7.80808,-0.88623 11.59261,-0.28877 3.54551,1.26462 3.1571,5.74555 3.33636,8.79258 -0.2191,6.89068 0.61748,13.88094 -0.67723,20.69195 -0.83658,3.37564 -4.81034,3.32585 -7.57902,3.27606 -2.74876,-0.12945 -6.23451,0.43814 -8.11682,-2.07118 -1.33454,-2.38983 -1.10548,-5.25763 -1.18515,-7.8964 0.0896,-5.30742 -0.0697,-10.62479 0.0697,-15.93221 0.19919,-2.31016 0.24899,-5.2875 2.55954,-6.57203 m 4.29245,6.27331 c -0.01,6.37288 0,12.74576 -0.01,19.11864 0.92622,0.0199 2.77865,0.0398 3.70486,0.0498 0,-6.3928 0.01,-12.79555 0,-19.19831 -0.92621,0.01 -2.76868,0.0199 -3.6949,0.0299 z"
       id="path76"
       inkscape:connector-curvature="0"
       style="opacity:1;fill:#333333" />
    <path
       d="m 194.49492,194.42203 c -0.0398,-3.37563 0.0797,-9.04152 4.70079,-9.08135 4.17294,-0.26886 8.35584,-0.0398 12.52878,-0.0896 0,3.23623 0.01,6.4625 0.01,9.69873 -2.06157,0 -4.1331,0.01 -6.19468,0.0299 -0.0299,-0.68708 -0.0797,-2.06123 -0.10955,-2.7483 -1.27479,-0.01 -2.53962,-0.0299 -3.81441,-0.0398 -0.0199,6.37288 0.0299,12.7358 -0.0498,19.10868 1.29471,0.0398 2.57945,0.0797 3.88412,0.11949 0.0299,-1.87203 0.0598,-3.75402 0.10955,-5.63601 -0.57764,-0.1892 -1.73291,-0.5875 -2.31055,-0.78666 0.0398,-2.2305 0.0697,-4.46101 0.0996,-6.68156 2.84836,0.01 5.70667,0.01 8.56499,0.0199 0,6.66165 -0.01,13.33326 0.01,20.00487 -4.57132,-0.0797 -9.16255,0.32861 -13.71394,-0.20911 -2.61929,-0.468 -3.47579,-3.41546 -3.60526,-5.71567 -0.25895,-5.9945 -0.0299,-11.99894 -0.10956,-17.99344 z"
       id="path78"
       inkscape:connector-curvature="0"
       style="opacity:1;fill:#333333" />
    <path
       d="m 23.782778,305.74831 c 5.248545,0.17923 10.586723,-0.52776 15.775512,0.47796 3.62518,1.78242 3.047542,6.48242 2.977827,9.83814 0.149389,2.36991 -1.274789,4.29173 -2.579456,6.10402 2.449985,2.35 2.599374,7.93782 2.728845,11.12426 l 1.235079,0 0.02975,5.61451 -8.136737,0 0,-13.45275 -3.744693,0.0896 c -0.01,4.43114 -0.01992,8.87224 -0.01,13.30339 l -8.365801,0 0.01014,-5.55477 1.682941,0 0.07967,-21.08228 -1.722957,0 c 0.01992,-2.16081 0.02988,-4.31126 0.03984,-6.4621 m 8.306046,6.4621 -0.03984,6.95082 3.734733,0.0996 0.109552,-7.0504 z"
       id="path88"
       inkscape:connector-curvature="0"
       style="opacity:1;fill:#333333"
       sodipodi:nodetypes="cccccccccccccccccccccc" />
    <path
       d="m 49.139124,306.25614 c 3.425995,-0.90614 7.100972,-0.70699 10.586723,-0.19915 3.037582,0.6572 3.605262,4.21208 3.585343,6.83093 -0.01992,7.02013 0.288819,14.07013 -0.189226,21.0803 -0.01992,2.36992 -1.842469,4.70996 -4.322331,4.78962 -3.127216,0.16928 -6.383903,0.44809 -9.431445,-0.38835 -2.539619,-1.01568 -3.037583,-4.01292 -3.067461,-6.42267 -0.09959,-6.02436 -0.03984,-12.03877 -0.01992,-18.05318 0.07967,-2.70847 0.149389,-6.15381 2.858315,-7.6375 m 3.923959,6.44259 c -0.03984,6.3928 -0.01992,12.79555 -0.02988,19.18835 1.254871,-0.0299 2.509741,-0.0598 3.764611,-0.0896 0.08963,-6.37288 -0.169308,-12.74577 -0.179267,-19.11865 -1.185155,0 -2.370311,0.01 -3.555466,0.0199 z"
       id="path90"
       inkscape:connector-curvature="0"
       style="opacity:1;fill:#333333" />
    <path
       d="m 171.33958,305.57903 c 9.08287,0.18919 18.1757,0.21906 27.25857,-0.0199 0.2191,3.32585 0.44817,6.66165 0.20915,10.00742 -2.22093,-1.84217 -2.12133,-5.10827 -3.93392,-7.13962 -2.45995,-0.5178 -4.99957,-0.37839 -7.49935,-0.43814 0.0996,9.29047 -0.22906,18.59089 0.12947,27.8714 0.0598,2.08114 2.94795,1.12521 4.21278,1.73263 l 0.0797,1.59322 c -4.7705,-0.19916 -9.55096,0 -14.32146,-0.15933 1.01585,-1.89194 3.18697,-1.7625 4.9896,-2.14088 0.26891,-9.63899 0.0697,-19.27797 0.11952,-28.907 -2.5695,0.0996 -5.21867,-0.14936 -7.71845,0.5875 -1.63332,2.0214 -1.00589,5.71568 -3.95384,6.53221 0.0498,-3.17649 0.23902,-6.35297 0.42825,-9.51949 z"
       id="path100"
       inkscape:connector-curvature="0"
       style="opacity:1;fill:#333333" />
    <path
       d="m 200.81907,305.59894 c 4.25262,0.15932 8.50523,0.14937 12.76781,0.01 l -0.0498,1.69279 c -1.33454,0.16928 -2.66909,0.34852 -3.99367,0.52776 2.81848,8.59343 6.14488,16.99767 9.21234,25.50148 3.36624,-8.32457 6.69264,-16.68898 9.46132,-25.23262 -1.78271,-0.56759 -3.73473,-0.86632 -5.08919,-2.2803 3.82436,-0.35848 7.66865,-0.17924 11.50297,-0.15932 -1.70304,1.59322 -3.53555,3.16652 -4.37213,5.4269 -3.79448,9.53941 -7.59893,19.06886 -11.41334,28.60827 -0.62743,0.01 -1.87234,0.0299 -2.48982,0.0398 -4.01359,-10.03729 -7.81804,-20.15424 -11.88143,-30.17161 -0.44817,-1.67289 -2.34043,-1.91187 -3.61522,-2.66865 l -0.0398,-1.29449 z"
       id="path102"
       inkscape:connector-curvature="0"
       style="opacity:1;fill:#333333" />
    <path
       d="m 51.85801,457.47267 c 4.949765,-0.01 9.90949,-0.0199 14.859256,-0.0398 0.0498,3.32585 0.02988,6.64174 -0.01992,9.96758 -0.766865,0 -2.300596,0 -3.067461,0 -0.507923,-1.27457 0.627435,-4.91906 -1.772753,-4.22203 -0.776824,7.04004 0.129471,14.06017 1.075603,21.03051 -2.420107,0 -4.850173,-0.01 -7.280239,-0.0398 1.095522,-7.18941 1.712997,-14.45848 1.035766,-21.72754 -1.573568,1.21483 -1.40426,3.23622 -1.663201,4.99872 -0.796743,-0.01 -2.38027,-0.0199 -3.177013,-0.0199 0,-3.32585 0,-6.64174 0.01,-9.94767 z"
       id="path104"
       inkscape:connector-curvature="0"
       style="opacity:1;fill:#333333" />
    <path
       d="m 67.484131,457.4428 c 3.844285,0.0996 7.768245,-0.43814 11.542815,0.43813 2.937989,3.49513 2.061572,8.93199 0.109552,12.73581 2.081491,4.1822 2.151206,8.9519 2.708926,13.50254 -1.81259,0 -3.615221,-0.01 -5.427812,-0.01 -0.448168,-3.62457 -0.547761,-7.27902 -0.438208,-10.91356 -0.597558,0 -1.772754,0 -2.360352,0.01 -0.01,3.63453 -0.01,7.27903 0,10.93347 -2.051613,0.01 -4.093267,0.0199 -6.14488,0.0398 0.41829,-4.64026 1.653242,-9.20085 1.454056,-13.88094 0.109552,-4.34152 -1.145318,-8.54364 -1.444097,-12.85529 m 6.15484,5.23771 c -0.01992,1.88199 -0.02988,3.76398 -0.02988,5.65593 0.637395,-0.0598 1.912183,-0.19915 2.539618,-0.2589 -0.308737,-2.10106 0.677232,-5.36716 -2.50974,-5.39703 z"
       id="path106"
       inkscape:connector-curvature="0"
       style="opacity:1;fill:#333333" />
    <path
       d="m 85.052314,457.79131 c 2.828438,-0.60741 5.965614,-0.77669 8.714377,0.24894 2.489822,4.61039 0.906295,10.19661 1.354463,15.22522 -0.328656,3.42542 0.936173,7.85656 -1.932102,10.44555 -2.609333,0.59745 -5.44773,0.66716 -8.037145,-0.0299 -3.137175,-3.21631 -1.483934,-8.32457 -1.912183,-12.36737 0.448168,-4.4411 -1.224992,-9.7983 1.81259,-13.52246 m 2.928031,5.25763 c -0.01,5.16801 -0.02988,10.32606 0.03984,15.49407 0.587598,0.0199 1.782713,0.0597 2.38027,0.0797 0.13943,-5.2178 0.109552,-10.43559 0.03984,-15.65339 -0.607517,0.0199 -1.842468,0.0597 -2.459944,0.0797 z"
       id="path108"
       inkscape:connector-curvature="0"
       style="opacity:1;fill:#333333" />
    <path
       d="m 96.71464,457.16398 c 2.410148,0 4.81034,0.01 7.21052,0.0299 -0.95609,7.1894 -2.77864,14.85678 -0.51788,21.92669 1.77275,-1.18496 0.87642,-3.66441 1.33455,-5.40699 1.41421,0 2.82843,0.01 4.25261,0.0299 -0.0299,3.40551 -0.0597,6.82098 -0.0597,10.2464 -4.12315,0.01 -8.23634,0.0598 -12.349521,0 0.41829,-4.56059 1.603446,-9.05148 1.414219,-13.66186 0.149389,-4.44111 -1.244911,-8.73284 -1.284748,-13.16399 z"
       id="path110"
       inkscape:connector-curvature="0"
       style="opacity:1;fill:#333333" />
    <path
       d="m 109.73143,457.13411 c 2.35039,-0.0199 4.71074,-0.0199 7.07109,-0.0199 -1.11544,7.24916 -1.51381,14.57797 -0.88637,21.89683 0.60751,-0.40827 1.21503,-0.80657 1.82255,-1.19492 0,-1.39407 0,-2.77818 0.01,-4.16229 1.43414,0.01 2.86828,0.0299 4.31238,0.0597 -0.0199,3.39555 -0.0199,6.80106 0,10.21652 -4.13311,0.01 -8.27617,0.0498 -12.40928,0.0299 0.29878,-4.60043 1.61341,-9.09132 1.36443,-13.72161 0.14939,-4.42119 -1.19512,-8.70297 -1.28475,-13.10424 z"
       id="path112"
       inkscape:connector-curvature="0"
       style="opacity:1;fill:#333333" />
    <path
       d="m 123.77402,459.50403 c 1.94206,-4.232 7.62882,-1.86208 11.23408,-2.4695 0.0199,2.62882 0.0299,5.25763 0.0498,7.88644 -0.91626,0.01 -2.76869,0.0299 -3.68494,0.0398 -0.73699,-1.25467 -1.77275,-2.14089 -3.11726,-2.65869 0.35854,5.70572 -1.30466,11.86949 1.24491,17.23665 2.40019,-3.74407 -0.46808,-7.77691 -0.15934,-11.79979 1.95202,0.01 3.914,0.0199 5.86602,0.0398 -0.0199,5.35721 -0.0199,10.71441 0.01,16.07161 -3.31645,-0.0199 -6.66277,0.32861 -9.94933,-0.21906 -2.42011,-2.12098 -1.7628,-5.57628 -1.90223,-8.4142 0.18923,-5.23771 -0.44816,-10.53517 0.40833,-15.71313 z"
       id="path114"
       inkscape:connector-curvature="0"
       style="opacity:1;fill:#333333" />
    <path
       d="m 137.16927,457.03453 c 4.09326,-0.0299 8.19649,-0.0498 12.28976,-0.0498 -0.0199,2.96737 -0.0299,5.93474 -0.0797,8.91207 -1.27479,-0.01 -2.53962,-0.0199 -3.81441,-0.0299 0.0199,-0.73687 0.0598,-2.21059 0.0797,-2.95742 -0.83658,-0.0299 -1.6632,-0.0597 -2.48982,-0.0797 0.01,1.6231 0.0199,3.24619 0.0299,4.86928 1.11544,0 2.22092,0.01 3.33636,0.0299 0,1.67288 0,3.35572 0,5.04851 -1.16524,0 -2.33048,0 -3.49571,0.01 0.0996,2.26038 0.17926,4.61038 1.3445,6.64174 0.5378,-1.61314 1.09552,-3.1964 1.69308,-4.76971 0.88638,0.0398 2.65913,0.10954 3.54551,0.14937 -0.01,2.99724 -0.01,5.99449 0,8.99174 -4.16299,0.01 -8.32597,0.0398 -12.48895,0.0299 0.50792,-4.51081 1.74287,-8.94195 1.56361,-13.5125 0.1693,-4.49089 -1.19512,-8.83242 -1.51381,-13.28348 z"
       id="path116"
       inkscape:connector-curvature="0"
       style="opacity:1;fill:#333333" />
    <path
       d="m 151.31145,456.98475 c 2.41015,-0.0299 4.83026,-0.0398 7.25036,-0.0398 -0.8067,7.43834 -2.45994,15.19533 -0.2191,22.53411 0.63739,-1.94174 1.03577,-3.93327 1.40426,-5.92479 1.19511,-0.01 2.38027,-0.01 3.57538,-0.01 0.01,3.40551 0.01,6.81102 -0.0299,10.21653 -3.99368,-0.0199 -7.97739,0.01 -11.97107,0.0199 0.10955,-2.31017 0.12947,-4.68008 1.18516,-6.7911 0.28882,-4.25191 0.23902,-8.51377 0.0697,-12.75572 -1.05568,-2.2803 -1.21503,-4.78962 -1.26483,-7.24915 z"
       id="path118"
       inkscape:connector-curvature="0"
       style="opacity:1;fill:#333333" />
    <path
       d="m 32.098783,468.51568 c 1.613405,-0.52776 2.171125,0.0299 1.653242,1.66292 -1.613405,0.50784 -2.171125,-0.0398 -1.653242,-1.66292 z"
       id="path120"
       inkscape:connector-curvature="0"
       style="opacity:1;fill:#333333" />
    <path
       d="m 0.63739439,485.1947 c -0.32865648,-5.69576 0.0796743,-11.42139 0.92621371,-17.05741 1.523771,0.57754 2.6491705,1.71271 3.0973384,3.28602 1.2747888,3.21631 2.3404325,6.51228 3.6251806,9.73855 1.6731603,-4.03283 2.8085189,-8.26483 4.7007839,-12.19809 0.497964,0.0199 1.493893,0.0498 2.001817,0.0598 0.906295,5.26758 0.896335,10.65466 0.956091,15.99195 -0.398371,-0.29873 -1.215033,-0.88623 -1.613404,-1.175 -0.537802,-4.22204 -0.219105,-8.50382 -0.607517,-12.74577 -1.882305,4.42119 -3.097338,9.10127 -5.0692772,13.49259 -0.2987787,-0.14937 -0.8963359,-0.4481 -1.1951145,-0.59746 -1.9221425,-4.19216 -3.047542,-8.69301 -4.8800509,-12.925 -0.3983715,4.21208 0.1294708,8.5536 -0.7071094,12.69598 l -1.23495161,1.43389 z"
       id="path122"
       inkscape:connector-curvature="0"
       style="opacity:1;fill:#333333" />
    <path
       d="m 18.743379,480.24576 c -1.035766,-3.88347 1.712997,-8.90212 6.214595,-7.99597 3.326402,0.0896 3.973756,3.71419 4.441842,6.29322 -3.077419,0.0398 -6.164798,0.0398 -9.252178,0.11949 0.766866,1.5036 0.856499,3.93326 2.878234,4.28178 2.24084,0.26886 4.362168,-0.88623 6.513374,-1.33432 -1.981898,4.52076 -10.437333,4.02288 -10.795867,-1.3642 m 1.563608,-3.06695 c 2.430066,0.0697 4.850173,0.0598 7.280239,0 -0.856499,-1.42394 -1.344504,-3.74406 -3.49571,-3.48517 -2.09145,-0.18919 -2.808519,2.11102 -3.784529,3.48517 z"
       id="path124"
       inkscape:connector-curvature="0"
       style="opacity:1;fill:#333333" />
    <path
       d="m 32.208335,473.33517 c 0.338616,-0.42818 0.995929,-1.27458 1.324586,-1.70275 0.438208,4.28177 0.478045,8.60339 0.199185,12.90508 -0.388412,-0.0697 -1.175195,-0.21907 -1.563608,-0.28877 -0.209145,-3.63454 -0.318697,-7.29894 0.03984,-10.91356 z"
       id="path126"
       inkscape:connector-curvature="0"
       style="opacity:1;fill:#333333" />
    <path
       d="m 37.347328,471.98093 c 0.597557,0.57754 1.284748,1.06547 2.041654,1.4339 1.842468,-0.57754 3.914,-1.70275 5.796305,-0.57754 1.782712,1.59322 1.264829,4.28178 1.483934,6.42267 -0.14939,2.01144 0.577638,4.69004 -1.693079,5.79534 -0.268901,-3.46526 0.109552,-6.99026 -0.55772,-10.41568 -1.553649,-1.88199 -3.605262,0.0896 -5.387975,0.50784 0.01,3.36568 0.02988,6.73135 -0.169308,10.09703 -3.386157,-3.29597 -0.946132,-9.00169 -1.513811,-13.26356 z"
       id="path128"
       inkscape:connector-curvature="0"
       style="opacity:1;fill:#333333" />
    <path
       d="m 67.632524,68.671872 10.297903,0 -0.005,5.258025 -1.758242,0 0,20.880746 3.028022,0 c -0.01992,-1.931779 -0.02988,-3.873517 -0.0498,-5.805296 2.131288,-0.02987 4.262575,-0.04979 6.393863,-0.0697 0.01,4.28178 0.01,8.56356 0.01,12.845337 l -17.896839,0 0.04661,-6.970337 1.586724,0 c 0.01992,-5.775424 0.05975,-15.105322 -0.03984,-20.880746 l -1.492299,0 z"
       id="path54-5"
       inkscape:connector-curvature="0"
       style="opacity:1;fill:#333333"
       sodipodi:nodetypes="ccccccccccccccc" />
    <path
       d="m 87.314892,68.680478 10.297903,0 -0.005,5.258026 -1.758243,0 0,20.880746 3.028022,0 c -0.01992,-1.93178 -0.02988,-3.873517 -0.0498,-5.805297 2.131301,-0.02987 4.262591,-0.04979 6.393871,-0.0697 0.01,4.281779 0.01,8.563559 0.01,12.84534 l -17.896849,0 0.04661,-6.97034 1.586724,0 c 0.01992,-5.775424 0.05976,-15.105322 -0.03984,-20.880746 l -1.4923,0 z"
       id="path54-8"
       inkscape:connector-curvature="0"
       style="opacity:1;fill:#333333"
       sodipodi:nodetypes="ccccccccccccccc" />
    <path
       d="m 154.99322,185.27032 10.29791,0 -0.005,5.25802 -1.75825,0 0,20.88075 3.02803,0 c -0.0199,-1.93178 -0.0299,-3.87352 -0.0498,-5.8053 2.13129,-0.0299 4.26257,-0.0498 6.39386,-0.0697 0.01,4.28178 0.01,8.56356 0.01,12.84534 l -17.89684,0 0.0466,-6.97034 1.58672,0 c 0.0199,-5.77543 0.0598,-15.10532 -0.0398,-20.88075 l -1.4923,0 z"
       id="path54-6"
       inkscape:connector-curvature="0"
       style="opacity:1;fill:#333333"
       sodipodi:nodetypes="ccccccccccccccc" />
    <path
       d="m 174.55904,185.16999 10.2979,0 -0.005,5.25803 -1.75824,0 0,20.88075 3.02802,0 c -0.0199,-1.93178 -0.0299,-3.87352 -0.0498,-5.8053 2.13128,-0.0299 4.26257,-0.0498 6.39386,-0.0697 0.01,4.28178 0.01,8.56355 0.01,12.84533 l -17.89684,0 0.0466,-6.97033 1.58672,0 c 0.0199,-5.77543 0.0598,-15.10533 -0.0398,-20.88075 l -1.4923,0 z"
       id="path54-3"
       inkscape:connector-curvature="0"
       style="opacity:1;fill:#333333"
       sodipodi:nodetypes="ccccccccccccccc" />
    <path
       d="m 236.00511,185.17098 10.29791,0 -0.005,5.25803 -1.75824,0 0,20.88074 3.02802,0 c -0.0199,-1.93178 -0.0299,-3.87352 -0.0498,-5.8053 2.13129,-0.0299 4.26258,-0.0498 6.39386,-0.0697 0.01,4.28178 0.01,8.56356 0.01,12.84534 l -17.89684,0 0.0466,-6.97034 1.58673,0 c 0.0199,-5.77542 0.0597,-15.10532 -0.0398,-20.88074 l -1.4923,0 z"
       id="path54-4"
       inkscape:connector-curvature="0"
       style="opacity:1;fill:#333333"
       sodipodi:nodetypes="ccccccccccccccc" />
    <path
       d="m 65.191097,305.70549 10.297903,0 -0.005,5.25802 -1.758244,0 0,20.88075 3.028023,0 c -0.01992,-1.93178 -0.02988,-3.87352 -0.0498,-5.8053 2.131287,-0.0299 4.262575,-0.0498 6.393862,-0.0697 0.01,4.28178 0.01,8.56356 0.01,12.84534 l -17.896839,0 0.04661,-6.97034 1.586724,0 c 0.01992,-5.77543 0.05976,-15.10532 -0.03984,-20.88075 l -1.4923,0 z"
       id="path54-2"
       inkscape:connector-curvature="0"
       style="opacity:1;fill:#333333"
       sodipodi:nodetypes="ccccccccccccccc" />
    <path
       d="m 84.305404,305.70549 10.297903,0 -0.005,5.25802 -1.758243,0 0,20.88075 3.028023,0 c -0.01992,-1.93178 -0.02988,-3.87352 -0.0498,-5.8053 2.131288,-0.0299 4.26257,-0.0498 6.39386,-0.0697 0.01,4.28178 0.01,8.56356 0.01,12.84534 l -17.896838,0 0.04661,-6.97034 1.586724,0 c 0.01992,-5.77543 0.05976,-15.10532 -0.03984,-20.88075 l -1.492299,0 z"
       id="path54-0"
       inkscape:connector-curvature="0"
       style="opacity:1;fill:#333333"
       sodipodi:nodetypes="ccccccccccccccc" />
    <path
       d="m 143.88432,305.75984 10.29791,0 -0.005,5.25802 -1.75824,0 0,20.88075 3.02802,0 c -0.0199,-1.93178 -0.0299,-3.87352 -0.0498,-5.8053 2.13129,-0.0299 4.26258,-0.0498 6.39386,-0.0697 0.01,4.28178 0.01,8.56356 0.01,12.84534 l -17.89684,0 0.0466,-6.97034 1.58673,0 c 0.0199,-5.77543 0.0597,-15.10532 -0.0398,-20.88075 l -1.4923,0 z"
       id="path54-61"
       inkscape:connector-curvature="0"
       style="opacity:1;fill:#333333"
       sodipodi:nodetypes="ccccccccccccccc" />
    <path
       d="m 215.28189,185.16422 c 5.90586,0.01 11.82167,0.01 17.73749,0.01 0,3.65445 -0.01,7.30889 -0.0199,10.9733 -1.91218,-0.01 -3.82437,-0.0199 -5.73655,-0.0199 -0.01,-1.32437 -0.01,-3.44534 -0.0199,-4.76971 -0.88637,-0.01 -2.65913,0.01 -3.5455,0 -0.01,2.08115 -0.01,4.91907 -0.01,7.00021 l 5.01948,0.0299 c -0.0199,2.08114 -0.0299,4.15233 -0.0398,6.22351 -1.6632,-0.0199 -3.31644,-0.0299 -4.96968,-0.0498 -0.01,2.27034 -0.01,5.22735 0,7.49769 1.19511,-0.0597 2.40018,0.0598 3.60526,0 -0.0199,-1.37415 -0.0398,-3.61422 -0.0498,-4.98837 2.06157,0 4.13311,0.01 6.20464,0.01 l 0,11.20233 c -6.07517,0 -12.14037,0.01 -18.20558,-0.0199 0.01,-2.06123 0.0199,-4.13281 0.0498,-6.204 l 1.60304,0 c -0.0851,-6.67787 0.11722,-13.70917 0,-20.70151 l -1.56321,0 c -0.0598,-2.06123 -0.0697,-4.13241 -0.0598,-6.19364 z"
       id="path52-5"
       inkscape:connector-curvature="0"
       style="opacity:1;fill:#333333"
       sodipodi:nodetypes="ccccccccccccccccccccc" />
    <path
       d="m 123.57335,305.64955 c 5.90586,0.01 11.82168,0.01 17.7375,0.01 0,3.65445 -0.01,7.3089 -0.0199,10.97331 -1.91219,-0.01 -3.82437,-0.0199 -5.73655,-0.0199 -0.01,-1.32436 -0.01,-3.44534 -0.0199,-4.7697 -0.88638,-0.01 -2.65913,0.01 -3.54551,0 -0.01,2.08114 -0.01,4.91907 -0.01,7.00021 l 5.01948,0.0299 c -0.0199,2.08115 -0.0299,4.15233 -0.0398,6.22352 -1.6632,-0.0199 -3.31645,-0.0299 -4.96969,-0.0498 -0.01,2.27034 -0.01,5.22736 0,7.4977 1.19512,-0.0597 2.40019,0.0597 3.60526,0 -0.0199,-1.37415 -0.0398,-3.61422 -0.0498,-4.98837 2.06157,0 4.1331,0.01 6.20463,0.01 l 0,11.20233 c -6.07516,0 -12.14037,0.01 -18.20557,-0.0199 0.01,-2.06123 0.0199,-4.13282 0.0498,-6.204 l 1.60305,0 c -0.085,-6.67788 0.11722,-13.70918 0,-20.70151 l -1.56321,0 c -0.0598,-2.06123 -0.0697,-4.13242 -0.0598,-6.19364 z"
       id="path52-4"
       inkscape:connector-curvature="0"
       style="opacity:1;fill:#333333"
       sodipodi:nodetypes="ccccccccccccccccccccc" />
    <path
       d="m 103.46053,315.04423 c -0.0398,-3.37564 0.0797,-9.04153 4.70079,-9.08136 4.17294,-0.26885 8.35584,-0.0398 12.52878,-0.0896 0,3.23623 0.01,6.4625 0.01,9.69873 -2.06157,0 -4.1331,0.01 -6.19468,0.0299 -0.0299,-0.68708 -0.0797,-2.06123 -0.10955,-2.74831 -1.27479,-0.01 -2.53962,-0.0299 -3.81441,-0.0398 -0.0199,6.37288 0.0299,12.7358 -0.0498,19.10869 1.2947,0.0398 2.57945,0.0797 3.88412,0.11949 0.0299,-1.87204 0.0598,-3.75403 0.10955,-5.63602 -0.57764,-0.18919 -1.73291,-0.5875 -2.31055,-0.78665 0.0398,-2.23051 0.0697,-4.46102 0.0996,-6.68157 2.84836,0.01 5.70667,0.01 8.56499,0.0199 0,6.66165 -0.01,13.33326 0.01,20.00487 -4.57132,-0.0797 -9.16255,0.3286 -13.71394,-0.20911 -2.61929,-0.46801 -3.47579,-3.41547 -3.60526,-5.71568 -0.25895,-5.99449 -0.0299,-11.99894 -0.10956,-17.99343 z"
       id="path78-1"
       inkscape:connector-curvature="0"
       style="display:inline;opacity:1;fill:#333333" />
    <path
       d="m 112.27924,185.1975 c 5.24855,0.17923 10.58673,-0.52776 15.77551,0.47796 3.62519,1.78242 3.04755,6.48242 2.97783,9.83814 0.14939,2.36991 -1.27479,4.29174 -2.57945,6.10402 2.44998,2.35 2.59937,7.93783 2.72884,11.12427 l 1.23508,0 0.0298,5.61451 -8.13674,0 0,-13.45276 -3.74469,0.0896 c -0.01,4.43114 -0.0199,8.87225 -0.01,13.30339 l -8.3658,0 0.0102,-5.55476 1.68294,0 0.0797,-21.08229 -1.72295,0 c 0.0199,-2.16081 0.0299,-4.31126 0.0398,-6.4621 m 8.30605,6.4621 -0.0398,6.95082 3.73473,0.0996 0.10956,-7.0504 z"
       id="path88-8"
       inkscape:connector-curvature="0"
       style="display:inline;opacity:1;fill:#333333"
       sodipodi:nodetypes="cccccccccccccccccccccc" />
    <path
       d="m 24.498996,68.760336 c 5.248545,0.179237 10.586723,-0.527755 15.775512,0.477966 3.62518,1.782415 3.047542,6.482415 2.977827,9.838135 0.149389,2.369916 -1.274789,4.291738 -2.579456,6.104026 2.449985,2.35 2.599374,7.937822 2.728845,11.124262 l 1.235079,0 0.02975,5.614505 -8.136737,0 0,-13.45275 -3.744692,0.08962 c -0.01,4.431144 -0.01992,8.872246 -0.01,13.303392 l -8.365801,0 0.01014,-5.554765 1.682941,0 0.07967,-21.082288 -1.722957,0 c 0.01992,-2.160805 0.02988,-4.311254 0.03984,-6.462101 m 8.306045,6.462101 -0.03984,6.950822 3.734733,0.09958 0.109552,-7.050399 z"
       id="path88-9"
       inkscape:connector-curvature="0"
       style="display:inline;opacity:1;fill:#333333"
       sodipodi:nodetypes="cccccccccccccccccccccc" />
  </g>
  <g
     id="#e74215ff"
     style="display:inline"
     transform="matrix(0.99592874,0,0,0.99576271,0,2.2796611)">
    <path
       d="m 335.33,113.46 c 9.22,-0.09 18.45,-0.12 27.67,-0.25 0,6.01 0,12.02 0,18.03 -3.04,0.02 -6.07,0.04 -9.1,0.07 -0.01,-2.28 -0.02,-4.55 -0.03,-6.83 -1.84,0.02 -3.66,0.03 -5.48,0.05 -0.03,3.61 -0.02,7.22 -0.05,10.83 2.66,-0.02 5.32,-0.05 7.98,-0.09 0,3.34 -0.01,6.68 0.01,10.02 -2.66,0.02 -5.32,0.04 -7.98,0.07 0.02,3.63 0.01,7.27 0.06,10.9 1.8,-0.02 3.61,-0.03 5.42,-0.04 0.05,-2.3 0.06,-4.6 0.08,-6.9 3.33,-0.04 6.66,-0.07 9.99,-0.08 -0.03,6 -0.04,11.99 -0.01,17.99 -9.52,0.08 -19.04,0.15 -28.56,0.23 0.03,-3.71 0.02,-7.42 0.01,-11.13 0.65,0 1.96,0 2.61,0 0.09,-10.58 0.06,-21.16 0.01,-31.74 -0.65,0 -1.97,0.02 -2.62,0.03 0.01,-3.72 0.02,-7.44 -0.01,-11.16 z"
       id="path131"
       inkscape:connector-curvature="0"
       style="opacity:1;fill:#e74215" />
    <path
       d="m 368.78,113.19 c 5.33,-0.03 10.65,-0.08 15.98,-0.12 -0.01,3.74 -0.01,7.49 0,11.23 -0.74,0.02 -2.23,0.06 -2.98,0.08 0.01,10.46 0.01,20.92 0.01,31.39 1.91,0.01 3.84,0.02 5.76,0.03 0,-3.17 0,-6.34 0,-9.5 2.82,-0.02 5.63,-0.04 8.45,-0.05 0,6.91 0,13.83 0,20.75 -9.07,0.06 -18.14,0.12 -27.21,0.19 0,-3.79 -0.01,-7.59 0.02,-11.38 0.56,0.02 1.67,0.07 2.23,0.09 -0.03,-10.53 0.04,-21.06 -0.04,-31.59 -0.55,0.04 -1.66,0.12 -2.21,0.15 0,-3.76 0,-7.51 -0.01,-11.27 z"
       id="path133"
       inkscape:connector-curvature="0"
       style="opacity:1;fill:#e74215" />
    <path
       d="m 214.37,114.61 c 4.57,-0.46 9.19,-0.33 13.78,-0.25 2.69,-0.03 5.38,1.6 6.33,4.16 1.71,4.26 1.5,8.95 1.53,13.45 -0.09,8.02 0.13,16.04 -0.1,24.05 -0.31,3.4 -0.46,7.28 -2.8,9.99 -2.6,2.79 -6.63,2.27 -10.06,2.34 -3.66,-0.14 -7.73,0.73 -10.95,-1.49 -3.36,-2.48 -3.53,-7.05 -3.53,-10.85 0.09,-10.49 -0.11,-20.98 0.11,-31.47 0.14,-3.87 1.47,-8.79 5.69,-9.93 m 5.01,42.71 c 1.86,-0.39 4.46,0.72 5.79,-0.95 0.23,-10.28 0.01,-20.57 0.09,-30.86 -1.97,0 -3.94,-0.01 -5.9,-0.01 -0.04,10.61 -0.08,21.21 0.02,31.82 z"
       id="path135"
       inkscape:connector-curvature="0"
       style="opacity:1;fill:#e74215" />
    <path
       d="m 240.86,114.17 c 5.42,-0.01 10.84,-0.14 16.26,-0.02 -0.01,3.69 -0.01,7.39 -0.01,11.09 -0.74,0.03 -2.23,0.08 -2.97,0.1 0,10.48 0,20.96 -0.01,31.45 1.86,-0.01 3.72,-0.01 5.57,-0.01 0,-3.17 0,-6.33 0,-9.48 3.43,-0.04 6.87,-0.05 10.3,-0.07 0,6.92 0,13.83 0,20.75 -9.71,0.05 -19.43,0.13 -29.14,0.2 0,-3.79 -0.01,-7.58 0.01,-11.37 0.59,0.02 1.75,0.06 2.33,0.07 0.02,-10.48 0,-20.97 0.02,-31.46 -0.59,-0.01 -1.77,-0.05 -2.36,-0.07 0,-3.73 0,-7.45 0,-11.18 z"
       id="path137"
       inkscape:connector-curvature="0"
       style="opacity:1;fill:#e74215" />
    <path
       d="m 271.23,113.97 c 5.36,-0.04 10.73,-0.08 16.1,-0.12 -0.01,3.77 0,7.54 -0.03,11.32 -0.73,0 -2.21,0.02 -2.95,0.02 0.02,10.49 0,20.98 0.01,31.46 1.91,-0.01 3.82,-0.03 5.73,-0.04 0.01,-3.25 0,-6.49 0.12,-9.74 3.29,-0.01 6.58,-0.03 9.87,-0.05 0.02,6.99 0.01,13.97 0.01,20.96 -9.62,0.01 -19.24,0.14 -28.86,0.18 0.01,-3.74 0.01,-7.48 0,-11.21 0.6,-0.02 1.82,-0.05 2.42,-0.07 0,-10.47 -0.01,-20.94 0.01,-31.42 -0.6,-0.01 -1.81,-0.04 -2.42,-0.06 -0.01,-3.74 0,-7.49 -0.01,-11.23 z"
       id="path139"
       inkscape:connector-curvature="0"
       style="opacity:1;fill:#e74215" />
    <path
       d="m 308.93,113.8 c 7.04,-0.35 14.1,-0.16 21.15,-0.27 -0.01,5.32 0.07,10.64 -0.1,15.96 -3.24,0.05 -6.48,0.07 -9.71,0.1 -0.01,-1.63 -0.01,-3.26 -0.01,-4.89 -2.28,0.02 -4.56,0.03 -6.84,0.04 -0.09,10.58 -0.05,21.16 -0.03,31.74 2.29,-0.02 4.59,-0.04 6.88,-0.04 0.01,-3.25 0.01,-6.49 -0.01,-9.73 -1.23,0 -2.45,-0.01 -3.67,-0.01 0.02,-3.69 0.02,-7.38 0,-11.08 4.64,-0.04 9.29,-0.07 13.93,-0.12 -0.01,10.67 -0.02,21.34 0.01,32 -6.88,0 -13.75,0.23 -20.63,0.12 -4.68,0.05 -7.53,-5 -7.42,-9.22 -0.17,-11.6 -0.13,-23.21 -0.01,-34.81 -0.1,-4.14 1.88,-9.09 6.46,-9.79 z"
       id="path141"
       inkscape:connector-curvature="0"
       style="opacity:1;fill:#e74215" />
    <path
       d="m 0,115.4 c 9.32,-0.15 18.65,-0.01 27.97,-0.1 2.64,0.05 5.79,-0.18 7.7,2.03 1.75,1.74 1.57,4.39 1.65,6.66 -0.05,12.33 -0.05,24.67 0,37 -0.11,2.31 0.17,5.01 -1.56,6.82 -1.67,1.94 -4.42,1.81 -6.74,1.88 C 19.35,169.64 9.67,169.71 0,169.63 l 0,-8.85 c 1.54,-0.03 3.07,-0.05 4.61,-0.07 C 4.59,148.59 4.6,136.47 4.6,124.35 3.07,124.33 1.53,124.31 0,124.29 l 0,-8.89 m 15.01,8.93 c -0.02,12.11 -0.03,24.23 0.01,36.35 3.89,-0.02 7.78,-0.02 11.67,-0.01 0,-12.11 0,-24.23 0,-36.34 -3.89,0 -7.79,0.01 -11.68,0 z"
       id="path143"
       inkscape:connector-curvature="0"
       style="opacity:1;fill:#e74215" />
    <path
       d="m 42.08,115.35 c 12.36,0.01 24.72,0.01 37.08,0 0.01,5.54 0.02,11.07 0.01,16.6 -3.47,0 -6.93,0 -10.39,0 0,-2.53 0,-5.07 0,-7.6 -4.14,0.01 -8.27,0.01 -12.4,0.01 0,4.13 0,8.26 0,12.39 5.46,0 10.93,0 16.4,0 -0.01,3 -0.01,6 0,9 -5.46,0 -10.92,0 -16.38,-0.01 -0.02,4.97 -0.04,9.93 -0.02,14.9 4.1,0 8.2,0 12.3,0 0,-3.4 0,-6.8 0,-10.2 3.49,0 6.99,0 10.49,0 0,6.37 0.01,12.73 -0.02,19.1 -12.35,0 -24.71,-0.01 -37.06,0 0,-2.94 0,-5.88 0,-8.81 1.3,0 2.6,0.01 3.89,0.02 0,-12.14 0.01,-24.28 0,-36.41 -1.29,0.01 -2.58,0.03 -3.87,0.04 -0.02,-3.01 -0.02,-6.02 -0.03,-9.03 z"
       id="path145"
       inkscape:connector-curvature="0"
       style="opacity:1;fill:#e74215" />
    <path
       d="m 83.48,115.33 c 10.52,0.04 21.04,-0.05 31.56,0.03 3.17,-0.26 6.15,2.39 6.14,5.59 0.11,5.35 0.28,10.74 -0.11,16.08 -0.25,2.45 -2.49,3.76 -4.56,4.54 1.94,0.94 4.2,2.11 4.53,4.51 0.51,4.86 0.1,9.77 0.21,14.65 1.34,0 2.67,0 4.01,0.01 -0.01,2.97 -0.01,5.95 -0.01,8.93 -6.33,-0.01 -12.66,-0.01 -18.99,0 0,-2.98 0,-5.95 0,-8.93 1.47,-0.01 2.93,-0.01 4.4,-0.01 -0.01,-4.95 0,-9.9 0,-14.86 -4,0 -8,-0.01 -12,0 0,4.96 0,9.92 0.01,14.88 1.39,-0.01 2.78,-0.02 4.18,-0.03 0.01,2.98 0.01,5.96 0.01,8.95 -6.43,-0.01 -12.86,0 -19.3,0 0.01,-2.99 0.01,-5.97 0.01,-8.94 1.53,0 3.06,0.01 4.59,0.02 0.02,-12.13 0,-24.25 0.01,-36.37 -1.57,-0.03 -3.14,-0.06 -4.7,-0.09 0,-2.99 0.01,-5.98 0.01,-8.96 m 15.08,9 c 0,4.14 0,8.27 0,12.4 4,0.01 8,0 12,0 0,-4.13 0,-8.26 0,-12.4 -4,0 -8,0 -12,0 z"
       id="path147"
       inkscape:connector-curvature="0"
       style="opacity:1;fill:#e74215" />
    <path
       d="m 136,115 c 11.33,-0.07 22.67,-0.14 34,-0.25 0,6.68 0,13.36 0,20.03 -2.46,0 -4.92,0.02 -7.38,0.04 -0.01,-2.9 -0.01,-5.8 -0.02,-8.7 -1.47,0.03 -2.94,0.06 -4.4,0.09 0.03,10.46 0.01,20.93 0.02,31.39 0.72,0.02 2.17,0.04 2.9,0.06 -0.01,3.7 -0.01,7.41 0,11.11 -5.37,0.13 -10.75,0.11 -16.12,0.19 0,-3.75 0,-7.51 0,-11.27 0.64,0.01 1.92,0.01 2.56,0.02 0.01,-10.51 0.01,-21.02 0,-31.53 -1.3,0.02 -2.6,0.05 -3.91,0.07 0.01,2.9 0.01,5.8 0.01,8.71 -2.55,0.01 -5.11,0.02 -7.66,0.04 0,-6.67 0,-13.33 0,-20 z"
       id="path149"
       inkscape:connector-curvature="0"
       style="opacity:1;fill:#e74215" />
    <path
       d="m 172.86,114.73 c 8.09,0.07 16.18,-0.38 24.26,-0.02 4.38,0.76 6.53,5.32 6.34,9.41 -0.04,5.85 1.21,13.78 -5.04,17.01 6.06,2.92 4.84,10.37 4.95,15.88 0.61,0.16 1.84,0.48 2.45,0.63 0.51,3.57 0.26,7.18 0.29,10.77 -3.65,0.02 -7.34,0.39 -10.97,-0.14 -1.52,-0.88 -2.34,-2.53 -2.25,-4.26 -0.16,-5.81 0,-11.63 -0.03,-17.44 -2.25,0.01 -4.49,0.03 -6.74,0.06 0.05,7.31 0,14.63 0.03,21.95 -4.43,0.1 -8.85,0.11 -13.28,0.16 0.03,-3.62 -0.18,-7.26 0.14,-10.87 0.55,-0.18 1.65,-0.53 2.2,-0.71 -0.01,-9.75 0.04,-19.51 -0.01,-29.27 0.58,-1.68 -1.42,-1.93 -2.32,-2.62 -0.02,-3.51 -0.02,-7.02 -0.02,-10.54 m 13.33,11 c -0.06,3.63 -0.05,7.26 -0.08,10.88 2.25,-0.01 4.51,-0.02 6.76,-0.04 -0.03,-3.63 -0.02,-7.26 -0.07,-10.89 -2.21,0.02 -4.41,0.04 -6.61,0.05 z"
       id="path151"
       inkscape:connector-curvature="0"
       style="opacity:1;fill:#e74215" />
    <path
       d="m 1,233 c 11.4,0 22.8,0 34.21,0 0,6.67 0,13.33 0,20 -2.57,0 -5.14,0 -7.71,0 0,-2.92 0,-5.84 0,-8.75 -1.15,-0.01 -2.31,-0.02 -3.46,-0.02 -0.03,10.5 0,21.01 -0.02,31.51 0.58,0 1.73,0.01 2.31,0.01 0,3.75 0,7.5 0,11.25 -5.3,0 -10.6,0 -15.9,0 0,-3.75 0,-7.5 0,-11.24 0.69,-0.01 2.07,-0.01 2.76,-0.01 -0.02,-10.52 0,-21.03 -0.01,-31.55 -1.46,0.04 -2.91,0.08 -4.37,0.12 0.01,2.89 0.01,5.78 0.01,8.68 -2.61,0 -5.21,0 -7.82,0 0,-6.67 0,-13.33 0,-20 z"
       id="path153"
       inkscape:connector-curvature="0"
       style="opacity:1;fill:#e74215" />
    <path
       d="m 38.61,233 c 6.8,0.03 13.59,-0.06 20.39,0.01 2.8,0.09 6.17,0.41 7.85,2.99 2.94,4.06 1.86,9.35 1.99,14.03 0.16,3.93 -1.71,7.71 -5.04,9.83 5.94,3 5.02,10.39 5.02,15.93 0.64,-0.01 1.9,-0.04 2.54,-0.05 0,3.75 0,7.5 0,11.26 -4.15,-0.61 -10.1,1.68 -12.96,-2.24 -1.23,-6.41 -0.27,-13.02 -0.57,-19.51 -1.87,-0.01 -3.73,0 -5.6,0 0,7.24 -0.01,14.48 0,21.72 -4.54,0.04 -9.08,0.03 -13.62,0.03 0,-3.76 0,-7.52 0,-11.27 0.63,0.02 1.89,0.06 2.52,0.08 0.01,-10.54 0,-21.08 0,-31.62 -0.63,0.02 -1.89,0.06 -2.52,0.08 0,-3.76 0,-7.51 0,-11.27 m 13.62,11.25 c 0,3.58 0,7.16 -0.01,10.74 1.87,0 3.74,0.01 5.61,0.01 0,-3.58 0,-7.17 0,-10.75 -1.87,-0.01 -3.73,0 -5.6,0 z"
       id="path155"
       inkscape:connector-curvature="0"
       style="opacity:1;fill:#e74215" />
    <path
       d="m 80.45,233.61 c 3.78,-1.02 7.76,-0.52 11.63,-0.63 2.94,0.1 6.39,-0.07 8.65,2.17 2.7,2.89 2.87,7.06 2.95,10.8 0.01,9.02 0,18.05 0.01,27.07 -0.1,4.24 -0.16,9.15 -3.49,12.27 -2.88,2.2 -6.79,1.58 -10.19,1.75 -3.73,-0.16 -7.95,0.51 -11.19,-1.79 -3.03,-2.46 -3.46,-6.63 -3.47,-10.28 0.05,-10.22 -0.07,-20.45 0.06,-30.67 0.12,-3.94 0.95,-8.97 5.04,-10.69 m 5.96,10.63 c 0,10.51 0,21.01 0,31.52 2.07,-0.01 4.14,-0.01 6.21,0 0.01,-10.51 0.01,-21.01 0,-31.52 -2.07,0 -4.14,0 -6.21,0 z"
       id="path157"
       inkscape:connector-curvature="0"
       style="opacity:1;fill:#e74215" />
    <path
       d="m 107.67,233 c 5.38,0 10.77,0 16.16,0 0,3.74 0,7.49 0,11.23 -0.63,0.01 -1.89,0.02 -2.53,0.03 0.02,10.5 0,21 0.01,31.51 1.61,-0.02 3.22,-0.03 4.83,-0.03 0,-3.17 0,-6.33 -0.01,-9.49 3.36,0 6.73,0 10.09,-0.03 0.01,6.93 0,13.85 0.01,20.78 -9.52,0 -19.04,0 -28.56,0 -0.01,-3.76 -0.01,-7.52 0,-11.28 0.64,0.03 1.91,0.07 2.55,0.1 0.02,-10.54 0.02,-21.09 0.01,-31.63 -0.64,0.02 -1.92,0.06 -2.56,0.08 -0.01,-3.76 -0.01,-7.51 0,-11.27 z"
       id="path159"
       inkscape:connector-curvature="0"
       style="opacity:1;fill:#e74215" />
    <path
       d="m 138.79,233.08 c 5.44,-0.13 10.88,-0.08 16.33,-0.08 0,3.68 -0.01,7.35 0.01,11.03 -0.67,0.05 -2,0.14 -2.67,0.19 0.14,10.51 0.02,21.03 0.07,31.54 1.56,0 3.13,0 4.7,0.01 0,-3.18 0,-6.35 0.01,-9.53 3.42,0.01 6.84,0.01 10.26,-0.01 0.01,6.93 0,13.85 0,20.77 -9.57,-0.04 -19.14,0.09 -28.71,-0.07 0.02,-3.71 0.01,-7.42 0.02,-11.13 0.9,-0.03 1.81,-0.06 2.71,-0.08 -0.01,-10.48 -0.02,-20.96 0,-31.44 -0.68,-0.02 -2.03,-0.06 -2.71,-0.08 -0.01,-3.71 0,-7.42 -0.02,-11.12 z"
       id="path161"
       inkscape:connector-curvature="0"
       style="opacity:1;fill:#e74215" />
    <path
       d="m 170.54,242.64 c -0.07,-3.97 1.88,-8.91 6.37,-9.36 6.78,-0.65 13.62,-0.11 20.42,-0.28 0,5.17 0.01,10.34 0,15.51 -3.25,-0.01 -6.5,-0.01 -9.74,0 -0.01,-1.42 0,-2.83 0,-4.24 -1.97,-0.02 -3.94,-0.04 -5.9,-0.06 -0.04,10.52 -0.03,21.05 -0.01,31.57 1.96,-0.02 3.94,-0.03 5.91,-0.04 -0.01,-3.5 -0.01,-6.99 0,-10.48 -0.78,-0.01 -2.35,-0.01 -3.13,-0.01 0,-3.75 0,-7.5 0,-11.25 4.51,0 9.03,0 13.54,0 0,11 0,22 0,33 -6.7,-0.11 -13.4,0.22 -20.09,-0.14 -4.51,-0.18 -7.46,-4.76 -7.36,-8.97 -0.16,-11.75 -0.13,-23.5 -0.01,-35.25 z"
       id="path163"
       inkscape:connector-curvature="0"
       style="opacity:1;fill:#e74215" />
    <path
       d="m 204.32,233.01 c 9.6,-0.02 19.2,-0.01 28.8,-0.01 0,5.83 0,11.66 0,17.5 -3.11,0 -6.21,0 -9.32,0.01 0,-2.09 -0.01,-4.18 -0.01,-6.27 -2.06,0 -4.12,0 -6.17,0.01 -0.02,3.23 -0.02,6.47 -0.03,9.71 2.82,0.03 5.64,0.03 8.47,0.04 0,3.33 0,6.66 0,10 -2.83,0 -5.65,0.01 -8.47,0.03 0.02,3.91 0.02,7.81 0.02,11.72 2.05,0 4.11,0 6.16,0.01 0.03,-2.42 0.04,-4.85 0.05,-7.27 3.28,0.01 6.56,0 9.84,0.01 0,6.16 -0.01,12.33 0.01,18.49 -9.79,0.02 -19.57,0 -29.35,0.01 0,-3.75 0,-7.51 0.01,-11.26 0.66,0 2,0.01 2.67,0.01 0,-10.5 0,-21 0,-31.5 -0.67,0 -2,0.01 -2.67,0.01 -0.01,-3.75 -0.01,-7.5 -0.01,-11.25 z"
       id="path165"
       inkscape:connector-curvature="0"
       style="opacity:1;fill:#e74215" />
    <path
       d="m 237.65,233 c 5.39,0 10.77,0 16.16,0 0,3.74 0,7.49 0,11.23 -0.63,0.01 -1.89,0.03 -2.53,0.04 0.02,10.49 0.01,20.98 0.01,31.47 1.61,0.01 3.22,0.01 4.83,0.02 0,-3.17 0,-6.35 0.01,-9.52 3.29,0.01 6.57,0.01 9.86,0 0.02,6.92 0.01,13.84 0.01,20.76 -9.45,0 -18.9,0 -28.35,0 0,-3.76 0,-7.51 0,-11.27 0.64,0.02 1.92,0.06 2.55,0.08 0.01,-10.54 0.01,-21.08 0,-31.62 -0.64,0.02 -1.91,0.06 -2.55,0.08 0,-3.76 0,-7.51 0,-11.27 z"
       id="path167"
       inkscape:connector-curvature="0"
       style="opacity:1;fill:#e74215" />
    <path
       d="m 275.6,233.32 c 14.59,0.34 29.19,0.34 43.79,0 0.26,4.87 0.53,9.74 0.79,14.62 -0.74,-0.01 -2.24,-0.01 -2.98,-0.02 -0.94,-3.28 -0.98,-7.17 -3.49,-9.73 -3.8,-1.67 -8.19,-0.56 -12.22,-0.84 0.01,13.87 0.01,27.74 -0.01,41.61 0.11,1.59 -0.13,3.36 0.76,4.79 2.06,0.48 4.18,0.46 6.28,0.57 -0.01,0.74 -0.03,2.22 -0.04,2.96 -7.25,-0.38 -14.5,-0.32 -21.74,0.01 -0.04,-0.99 -0.07,-1.98 -0.1,-2.96 2.27,-0.56 6.75,0.96 6.92,-2.45 0.33,-14.84 0.03,-29.7 0.14,-44.54 -3.9,0.17 -7.94,-0.53 -11.75,0.52 -3.22,2.17 -2.94,6.69 -3.97,10.07 -0.8,0 -2.39,0 -3.18,0 0.26,-4.87 0.54,-9.74 0.8,-14.61 z"
       id="path169"
       inkscape:connector-curvature="0"
       style="opacity:1;fill:#e74215" />
    <path
       d="m 322.96,233.43 c 6.84,0.41 13.68,0.24 20.52,-0.01 0,0.74 0.01,2.22 0.01,2.96 -2.01,0.4 -4.79,-0.39 -6.17,1.53 0.48,2.5 1.42,4.88 2.29,7.27 4.13,11.05 8.1,22.16 12.26,33.2 4.12,-10.49 8.03,-21.06 12.1,-31.57 0.94,-2.57 2.13,-5.09 2.57,-7.81 0.08,-3.28 -4.24,-1.97 -6.38,-2.54 0,-0.73 0,-2.19 0,-2.92 5.33,0.33 10.67,0.29 16.01,-0.01 0,0.68 -0.01,2.05 -0.01,2.73 -2.01,0.26 -4.18,0.87 -4.69,3.13 -6.6,16.16 -12.98,32.41 -19.5,48.61 -1.33,0 -2.67,0 -3.99,0 -6.43,-16.27 -12.7,-32.61 -19.22,-48.84 -0.72,-2.6 -3.58,-2.54 -5.75,-2.85 -0.01,-0.72 -0.04,-2.16 -0.05,-2.88 z"
       id="path171"
       inkscape:connector-curvature="0"
       style="opacity:1;fill:#e74215" />
  </g>
  <g
     id="#676766fe"
     transform="matrix(0.99592874,0,0,0.99576271,0,2.2796611)">
    <path
       d="m 1.12,356 c 7.02,0 14.04,0 21.06,0 0,4.25 0.02,8.5 0.03,12.76 -1.57,-0.01 -3.15,-0.01 -4.72,0 0,-1.83 0,-3.65 0.01,-5.47 -0.58,-0.03 -1.75,-0.07 -2.33,-0.1 0.15,6.18 -0.41,12.4 0.24,18.54 1.37,2.55 1.32,5.44 1.27,8.26 C 13.4,390 10.12,390 6.83,390 6.59,386.6 7.35,383.3 8.26,380.06 8.39,374.33 8.27,368.6 8.23,362.87 4.85,362.76 6.16,366.65 5.82,368.77 4.25,368.76 2.69,368.75 1.13,368.75 1.12,364.5 1.12,360.25 1.12,356 Z"
       id="path174"
       inkscape:connector-curvature="0"
       style="opacity:1;fill:#676766" />
    <path
       d="m 23.65,356.01 c 4.85,0.09 9.72,-0.29 14.54,0.24 2.4,0.16 3.82,2.56 3.92,4.76 0.33,4.02 0.68,8.65 -2.35,11.8 2.53,2.52 2.4,6.13 2.52,9.45 2.58,1.75 1.11,5.22 1.51,7.79 -2.46,-0.06 -4.95,0.12 -7.36,-0.42 -1.43,-4.28 -0.46,-8.93 -0.7,-13.36 -1.24,-0.02 -2.48,-0.04 -3.73,-0.05 0,4.59 0,9.18 0,13.78 -2.79,0 -5.58,0 -8.37,0 0.28,-2.69 -0.9,-6.07 1.65,-7.97 0.1,-5.96 0.14,-11.94 -0.03,-17.9 -2.4,-2.07 -1.37,-5.38 -1.6,-8.12 m 8.36,7.2 c -0.01,2.23 -0.01,4.47 -0.01,6.7 1.24,-0.02 2.48,-0.04 3.72,-0.06 0,-2.2 0,-4.39 0,-6.58 -1.24,-0.02 -2.48,-0.04 -3.71,-0.06 z"
       id="path176"
       inkscape:connector-curvature="0"
       style="opacity:1;fill:#676766" />
    <path
       d="m 48.53,356.66 c 3.56,-1.09 7.53,-0.87 11.15,-0.14 3.7,1.96 2.99,6.99 3.18,10.5 -0.36,6.63 0.81,13.45 -0.87,19.93 -1.17,3.86 -5.85,3.02 -8.94,3.1 -2.79,0.27 -6.47,-0.69 -6.82,-3.97 -0.9,-6.65 -0.17,-13.39 -0.43,-20.08 0.21,-3.15 -0.41,-7.42 2.73,-9.34 m 4.03,6.55 c -0.02,6.57 -0.02,13.15 0.01,19.73 0.91,-0.03 2.73,-0.1 3.64,-0.13 -0.01,-6.5 -0.01,-13 0,-19.5 -0.91,-0.02 -2.73,-0.08 -3.65,-0.1 z"
       id="path178"
       inkscape:connector-curvature="0"
       style="opacity:1;fill:#676766" />
    <path
       d="m 65.17,356 c 3.27,0 6.53,-0.01 9.8,0.01 -0.19,2.72 0.65,5.86 -1.34,8.12 -0.25,6.29 -0.09,12.58 -0.08,18.87 0.72,-0.06 2.18,-0.18 2.91,-0.24 -0.03,-1.96 -0.04,-3.93 -0.05,-5.88 2.05,-0.01 4.1,-0.01 6.16,0 0,4.37 0,8.74 0,13.12 -5.81,-0.01 -11.61,0.01 -17.42,-0.01 -0.03,-2.82 -0.16,-5.76 1.3,-8.29 0.62,-5.88 0.14,-11.85 0.19,-17.76 C 64.21,362 65.51,358.63 65.17,356 Z"
       id="path180"
       inkscape:connector-curvature="0"
       style="opacity:1;fill:#676766" />
    <path
       d="m 83.85,356.04 c 3.31,-0.05 6.62,-0.05 9.93,-0.03 -0.3,2.65 0.89,6.02 -1.54,7.95 -0.14,6.3 -0.02,12.6 -0.07,18.89 0.68,0.02 2.02,0.05 2.7,0.07 0.05,-2.02 0.12,-4.04 0.2,-6.05 2.08,0 4.16,0 6.24,0.01 0,4.37 0,8.74 0,13.12 -5.82,-0.01 -11.63,0.03 -17.45,-0.04 0.17,-2.7 -0.6,-5.81 1.46,-7.98 0.13,-5.94 0.17,-11.89 -0.03,-17.83 -1.97,-2.26 -1.31,-5.37 -1.44,-8.11 z"
       id="path182"
       inkscape:connector-curvature="0"
       style="opacity:1;fill:#676766" />
    <path
       d="m 103.4,363 c 0.12,-2.56 0.56,-6.2 3.62,-6.77 4.25,-0.52 8.55,-0.14 12.82,-0.22 0,3.33 0,6.65 0,9.99 -1.95,0 -3.89,0 -5.84,0 0,-0.73 -0.02,-2.19 -0.03,-2.92 -1.27,0.02 -2.55,0.04 -3.83,0.07 0.02,6.57 0.02,13.14 0.01,19.71 1.28,0.01 2.56,0.02 3.85,0.04 0,-2.08 0,-4.15 0,-6.22 -0.54,-0.04 -1.62,-0.11 -2.16,-0.14 0.06,-2.36 0.1,-4.7 0.17,-7.05 2.74,0.01 5.49,0.01 8.23,0.04 -0.01,6.81 -0.01,13.63 0,20.45 -4.43,-0.08 -8.88,0.3 -13.28,-0.19 -2.96,-0.68 -3.48,-4.17 -3.57,-6.72 -0.05,-6.69 -0.07,-13.38 0.01,-20.07 z"
       id="path184"
       inkscape:connector-curvature="0"
       style="opacity:1;fill:#676766" />
    <path
       d="m 123.4,362.67 c 0.06,-2.23 0.08,-4.45 0.1,-6.67 5.73,-0.01 11.46,0 17.19,0 0,3.75 0,7.5 -0.01,11.26 -1.83,-0.01 -3.65,-0.01 -5.48,-0.01 0.01,-0.99 0.02,-2.95 0.03,-3.93 -0.87,-0.03 -2.61,-0.09 -3.48,-0.12 0,2.1 0,4.21 0,6.32 1.63,-0.02 3.26,-0.03 4.89,-0.04 0,2.13 0,4.26 0.01,6.4 -1.64,0 -3.27,-0.01 -4.91,-0.01 0,2.36 0.01,4.72 0.02,7.08 0.86,-0.04 2.59,-0.11 3.46,-0.15 -0.01,-1.43 -0.01,-2.86 -0.01,-4.28 1.91,-0.02 3.82,-0.04 5.74,-0.05 0.1,3.84 0.12,7.68 0.1,11.52 -5.87,0.01 -11.74,0.04 -17.61,-0.04 0.01,-2.2 0.01,-4.41 -0.01,-6.6 0.45,-0.24 1.35,-0.71 1.8,-0.94 -0.07,-6.23 -0.05,-12.45 -0.02,-18.68 -0.45,-0.26 -1.36,-0.8 -1.81,-1.06 z"
       id="path186"
       inkscape:connector-curvature="0"
       style="opacity:1;fill:#676766" />
    <path
       d="m 143.47,356.02 c 3.26,-0.02 6.52,-0.02 9.78,-0.02 0.02,2.14 0.04,4.28 0.09,6.43 -0.4,0.35 -1.2,1.05 -1.61,1.4 0.05,6.36 0.01,12.73 0.04,19.1 0.74,-0.02 2.23,-0.06 2.97,-0.08 0,-2 0,-4 0,-5.99 2.05,0.01 4.1,0.01 6.14,0.02 0,4.37 0,8.74 0.01,13.12 -5.81,0 -11.61,0.01 -17.42,-0.01 0,-2.21 -0.01,-4.41 -0.05,-6.6 0.44,-0.27 1.33,-0.79 1.77,-1.05 -0.07,-6.21 -0.05,-12.41 -0.02,-18.61 -0.43,-0.28 -1.31,-0.82 -1.75,-1.09 0.03,-2.21 0.04,-4.42 0.05,-6.62 z"
       id="path188"
       inkscape:connector-curvature="0"
       style="opacity:1;fill:#676766" />
    <path
       d="m 183.42,356.62 c 6.91,-2.04 15.62,-0.07 19.38,6.52 4.64,8.27 2.7,20.8 -6.1,25.54 -6.65,3.39 -16.07,2.62 -20.87,-3.56 -6.69,-8.98 -4.07,-25.12 7.59,-28.5 m 2.8,1.7 c -5.21,1.28 -7.98,6.74 -8.38,11.73 -0.45,5.1 -0.11,10.81 3.2,14.99 3.3,4.18 10.05,4.46 14.08,1.2 2.96,-2.45 4.14,-6.37 4.59,-10.05 0.52,-5.04 0.17,-10.66 -3.12,-14.76 -2.4,-3.07 -6.71,-4.05 -10.37,-3.11 z"
       id="path190"
       inkscape:connector-curvature="0"
       style="opacity:1;fill:#676766" />
    <path
       d="m 205.23,357.74 c 2.21,-2.66 6.24,-0.85 9.25,-1.41 6.06,8.78 12.79,17.07 19.14,25.64 -0.17,-7.75 0.34,-15.53 -0.25,-23.26 -1.29,-0.33 -2.59,-0.61 -3.9,-0.83 l -0.12,-1.57 c 3.63,0.12 7.26,0.13 10.89,-0.01 l -0.05,1.81 c -1.3,0.12 -2.6,0.25 -3.9,0.39 -0.59,10.98 0.38,22 -0.56,32.95 -1.36,-1.03 -2.74,-2.08 -3.76,-3.46 -6.48,-8.67 -13,-17.31 -19.54,-25.93 0.1,8.7 -0.22,17.41 0.2,26.1 1.35,0.09 2.71,0.17 4.07,0.25 -0.03,0.46 -0.09,1.37 -0.12,1.82 -3.58,-0.16 -7.17,-0.14 -10.76,-0.02 0.01,-0.45 0.01,-1.36 0.01,-1.82 1.34,-0.15 2.67,-0.3 4.01,-0.45 0.16,-9.77 0.54,-19.61 -0.15,-29.35 -1.48,-0.33 -2.97,-0.62 -4.46,-0.85 z"
       id="path192"
       inkscape:connector-curvature="0"
       style="opacity:1;fill:#676766" />
    <path
       d="m 243.11,356.28 c 4.13,0.26 8.27,-0.06 12.4,0.17 0.29,0.34 0.86,1.02 1.15,1.36 -1.45,0.2 -2.89,0.44 -4.31,0.74 -0.77,9.63 -0.17,19.35 -0.29,29.01 3.84,-0.08 7.7,0.16 11.53,-0.19 4.08,-0.16 3,-6.1 6.65,-7.12 -0.4,3.31 -1.01,6.59 -1.61,9.88 -8.51,-0.09 -17.01,-0.25 -25.52,0.02 0,-0.45 -0.02,-1.35 -0.02,-1.81 1.35,-0.1 2.7,-0.2 4.06,-0.3 0.34,-7.69 0.06,-15.39 0.19,-23.08 -0.04,-2.15 0.16,-4.37 -0.48,-6.45 -1.25,-0.22 -2.5,-0.4 -3.75,-0.53 0,-0.43 0,-1.28 0,-1.7 z"
       id="path194"
       inkscape:connector-curvature="0"
       style="opacity:1;fill:#676766" />
    <path
       d="m 313.1,356.29 c 3.6,0.15 7.2,0.15 10.8,0.01 0,0.41 -0.02,1.22 -0.02,1.63 -1.3,0.55 -4.22,-0.14 -4.1,1.97 -0.26,10.27 0.01,20.56 -0.11,30.83 -0.54,-0.03 -1.62,-0.11 -2.16,-0.14 -7.14,-9.53 -14.31,-19.03 -21.5,-28.52 0.04,8.58 -0.16,17.18 0.12,25.77 1.71,0.38 3.85,0.35 4.73,2.24 -3.82,0.09 -7.64,0 -11.46,0.13 l -0.06,-1.64 c 1.62,-0.39 4.71,-0.07 4.2,-2.68 -0.02,-9.07 0.34,-18.17 -0.2,-27.22 -1.3,-0.29 -2.61,-0.55 -3.92,-0.79 l -0.06,-1.54 c 2.88,0.06 5.77,0.07 8.66,0 6.11,8.68 12.68,17.04 19.12,25.47 -0.02,-7.81 0.31,-15.64 -0.23,-23.44 -1.28,-0.09 -2.57,-0.17 -3.85,-0.23 0.01,-0.47 0.03,-1.39 0.04,-1.85 z"
       id="path196"
       inkscape:connector-curvature="0"
       style="opacity:1;fill:#676766" />
    <path
       d="m 325.7,356.69 c 8.5,-0.69 17.06,-0.01 25.58,-0.51 0.15,2.83 0.3,5.65 0.31,8.48 -2.45,-0.8 -2.41,-3.64 -3.78,-5.4 -3.93,-1.1 -8.1,-0.43 -12.13,-0.58 0,4.09 0,8.18 0,12.27 3.52,0.04 7.04,0 10.54,-0.38 0.08,-0.83 0.25,-2.49 0.33,-3.32 l 1.83,0.02 c 0,3.49 0,6.99 -0.01,10.49 l -1.57,-0.04 c -0.7,-1.33 -0.2,-3.9 -2.16,-4.2 -2.96,-0.46 -5.97,-0.23 -8.95,-0.27 -0.02,4.73 -0.02,9.47 -0.01,14.21 4.39,-0.11 8.85,0.4 13.19,-0.42 1.65,-2.01 2.49,-4.67 4.8,-6.09 -0.21,3.1 -0.86,6.15 -1.47,9.2 -7.4,-0.04 -14.8,-0.28 -22.2,-0.07 -1.56,0.19 -2.95,-0.45 -4.25,-1.19 1.66,-0.4 3.33,-0.76 5.01,-1.15 0.08,-9.53 0.42,-19.1 -0.14,-28.6 -1.29,-1.13 -3.42,-1.42 -4.92,-2.45 z"
       id="path198"
       inkscape:connector-curvature="0"
       style="opacity:1;fill:#676766" />
    <path
       d="m 272.49,356.4 c 4.33,0.14 8.67,0.14 13,-0.01 l -0.01,1.58 c -1.31,0.62 -4.39,-0.23 -3.99,2.07 -0.15,9.31 -0.24,18.64 0.1,27.95 1.61,0.2 3.21,0.43 4.81,0.68 -0.83,0.95 -2.04,1.54 -3.33,1.38 -3.44,0.01 -6.88,-0.05 -10.31,0.08 -0.14,-0.42 -0.42,-1.27 -0.56,-1.69 1.42,-0.14 2.84,-0.26 4.26,-0.38 0.43,-9.31 0.29,-18.64 0.14,-27.95 0.4,-2.35 -2.73,-1.51 -4.07,-2.14 l -0.04,-1.57 z"
       id="path200"
       inkscape:connector-curvature="0"
       style="opacity:1;fill:#676766" />
    <path
       d="m 268.11,404.26 c 2.29,0 4.59,0 6.88,-0.01 0.01,2.29 0.01,4.59 0.01,6.89 -2.3,-0.01 -4.6,-0.01 -6.9,-0.01 0,-2.29 0,-4.58 0.01,-6.87 z"
       id="path202"
       inkscape:connector-curvature="0"
       style="opacity:1;fill:#676766" />
    <path
       d="m 225.17,410.05 c 1.52,-0.77 3.28,-0.82 4.92,-1.16 0.01,1.46 0.02,2.93 0.02,4.41 -1.38,0.4 -3.12,0.34 -3.93,1.76 1.01,3.07 2.68,6.63 0.55,9.64 -2.46,4.03 -7.6,3.5 -11.65,3.57 -0.65,0.9 -1.68,2.08 -0.15,2.74 3.66,1.19 7.75,0.29 11.35,1.78 4.75,2.25 4.48,10.04 0.02,12.47 -3.71,2.12 -8.25,2.08 -12.37,1.58 -2.97,-0.34 -6.42,-2.39 -6.1,-5.8 -0.17,-2.27 2.02,-3.32 3.53,-4.49 -1.27,-1.25 -3.05,-2.52 -2.71,-4.55 0.05,-2.34 2.26,-3.64 3.71,-5.13 -3.88,-2.7 -4.27,-8.99 -0.57,-11.96 3.29,-2.57 7.75,-2.12 11.54,-1.14 0.58,-1.25 0.89,-2.69 1.84,-3.72 m -8.12,6.83 c -1.28,2.58 -1.39,8.91 3.04,7.24 1.3,-2.57 1.42,-9.22 -3.04,-7.24 m -1.77,20.41 c -1.44,0.88 -2.34,3.03 -1.02,4.43 2.89,1.24 6.49,1.35 9.31,-0.15 0.59,-1.05 0.58,-2.09 -0.03,-3.12 -2.51,-1.31 -5.5,-1.23 -8.26,-1.16 z"
       id="path204"
       inkscape:connector-curvature="0"
       style="opacity:1;fill:#676766" />
    <path
       d="m 108.28,410.15 c 1.49,-0.85 3.28,-0.89 4.92,-1.28 0.02,1.09 0.06,3.29 0.09,4.39 -1.35,0.52 -3.35,0.28 -3.92,1.94 0.98,3.04 2.62,6.54 0.49,9.51 -2.49,4.06 -7.69,3.48 -11.76,3.57 -0.23,0.46 -0.68,1.37 -0.9,1.83 3.53,3.11 9.47,0.37 13.34,3.3 3.73,2.91 3.08,9.71 -1.11,11.92 -3.78,2.07 -8.36,2.03 -12.52,1.48 -2.95,-0.36 -6.32,-2.49 -5.94,-5.87 -0.11,-2.21 2.04,-3.21 3.49,-4.38 -1.22,-1.27 -3,-2.5 -2.68,-4.51 0.03,-2.39 2.28,-3.69 3.78,-5.19 -3.75,-2.52 -4.3,-8.28 -1.16,-11.48 3.25,-3.07 8.17,-2.7 12.16,-1.53 0.52,-1.26 0.9,-2.6 1.72,-3.7 m -8.16,6.79 c -0.78,2.21 -0.96,4.7 -0.05,6.91 5.28,3.53 5.47,-10.02 0.05,-6.91 M 98.3,437.3 c -1.43,0.89 -2.27,2.98 -1.04,4.4 2.89,1.26 6.51,1.39 9.33,-0.12 0.69,-1.09 0.74,-3.04 -0.72,-3.51 -2.41,-0.82 -5.05,-0.92 -7.57,-0.77 z"
       id="path206"
       inkscape:connector-curvature="0"
       style="opacity:1;fill:#676766" />
    <path
       d="m 6.73,416 c 2.67,-3.91 8.87,-4.56 11.44,-0.2 2.69,-4.17 10.8,-4.36 11.84,1.17 0.82,7.01 0.19,14.11 0.38,21.16 -2.27,0 -4.53,0 -6.8,0 -0.13,-6.01 0.25,-12.03 -0.17,-18.03 0.36,-2.62 -4.35,-2.61 -4.32,-0.07 -0.69,6.01 -0.12,12.09 -0.33,18.13 -2.26,-0.02 -4.52,-0.03 -6.78,-0.05 -0.28,-6.52 0.65,-13.16 -0.54,-19.6 -1.55,-0.49 -3.98,-0.27 -3.87,1.88 -0.64,5.92 -0.12,11.91 -0.28,17.87 -2.34,0 -4.67,0 -7,0.01 0,-8.34 0,-16.67 0,-25.01 2.17,0 4.34,0 6.51,0 -0.02,0.69 -0.06,2.06 -0.08,2.74 z"
       id="path208"
       inkscape:connector-curvature="0"
       style="opacity:1;fill:#676766" />
    <path
       d="m 31.6,420.43 c 1.03,-7.58 11.15,-10.06 16.65,-5.65 1.91,1.45 1.95,4.07 2.1,6.26 0.14,5.67 -0.13,11.36 0.28,17.03 -2.09,-0.01 -4.17,-0.01 -6.25,-0.01 -0.04,-0.78 -0.13,-2.34 -0.17,-3.12 -2.16,2.15 -4.92,4.31 -8.19,3.47 -5.69,-0.83 -6.41,-8.82 -2.98,-12.42 2.83,-2.85 7.1,-2.89 10.8,-3.53 -0.56,-1.82 0.12,-5.25 -2.66,-5.22 -2.16,-0.11 -2.44,2.45 -3.4,3.83 -2.06,-0.2 -4.12,-0.42 -6.18,-0.64 m 6.64,8.71 c -0.75,1.94 -0.1,5.52 2.69,4.83 2.96,-1.4 2.48,-5.26 2.79,-7.94 -1.85,0.83 -4.79,0.76 -5.48,3.11 z"
       id="path210"
       inkscape:connector-curvature="0"
       style="opacity:1;fill:#676766" />
    <path
       d="m 58.23,416 c 1.73,-1.3 3.34,-3.21 5.7,-3.14 3.12,-0.44 6.65,1.64 6.8,4.99 0.56,6.78 0.09,13.6 0.28,20.39 -2.27,0 -4.55,0.02 -6.82,0.05 -0.17,-6.08 0.3,-12.18 -0.23,-18.24 0.07,-2.63 -4.47,-2.29 -4.72,0.02 -0.8,6.02 -0.16,12.13 -0.38,18.19 -2.25,0 -4.5,0.01 -6.75,0.02 -0.07,-8.31 -0.01,-16.63 -0.04,-24.94 2.17,-0.01 4.34,-0.01 6.5,0 -0.08,0.67 -0.25,1.99 -0.34,2.66 z"
       id="path212"
       inkscape:connector-curvature="0"
       style="opacity:1;fill:#676766" />
    <path
       d="m 72.27,420.35 c 1.32,-7.54 11.41,-10.04 16.92,-5.44 1.79,1.47 1.78,4 1.94,6.12 0.15,5.68 -0.12,11.37 0.25,17.05 -2.11,-0.02 -4.22,-0.02 -6.34,-0.02 -0.01,-0.85 -0.03,-2.54 -0.04,-3.39 -2.18,2.57 -5.38,4.77 -8.91,3.61 -5.05,-1.28 -5.55,-8.33 -2.71,-11.9 2.75,-3.21 7.3,-3.27 11.16,-3.91 -0.57,-1.8 0.1,-5.23 -2.65,-5.25 -2.15,-0.03 -2.52,2.43 -3.34,3.89 -2.09,-0.24 -4.19,-0.49 -6.28,-0.76 m 7.47,7.46 c -1.95,1.89 -1.4,7.06 2.16,6.15 2.6,-1.77 2.15,-5.24 2.5,-7.95 -1.54,0.6 -3.3,0.8 -4.66,1.8 z"
       id="path214"
       inkscape:connector-curvature="0"
       style="opacity:1;fill:#676766" />
    <path
       d="m 112.92,418 c 2.4,-5.91 11.41,-7.06 15.45,-2.27 2.59,3.08 2.65,7.31 3.03,11.11 -4.39,0.05 -8.79,0.02 -13.18,0.03 0.34,2.37 -0.33,6.41 2.91,6.92 2.73,0.65 3.54,-2.39 4.42,-4.24 1.96,0.14 3.92,0.27 5.88,0.42 -0.94,2.42 -1.67,5.17 -3.86,6.8 -4.41,3.26 -11.83,2.23 -14.45,-2.84 -2.45,-4.91 -2.23,-10.93 -0.2,-15.93 m 5.23,4.86 c 2.31,0 4.63,-0.02 6.95,-0.1 -0.58,-1.97 -0.54,-5.28 -3.29,-5.4 -3.05,-0.3 -3.14,3.39 -3.66,5.5 z"
       id="path216"
       inkscape:connector-curvature="0"
       style="opacity:1;fill:#676766" />
    <path
       d="m 132.05,413.34 c 1.93,-0.02 3.86,-0.03 5.8,-0.05 0.1,1.66 0.19,3.33 0.29,5 1.07,-3.09 3.3,-5.52 6.73,-5.64 0.06,2.29 0.09,4.59 0.14,6.89 -2.06,0.52 -4.75,0.78 -5.43,3.23 -1.4,5.02 -0.47,10.36 -0.74,15.52 -2.27,-0.03 -4.53,-0.04 -6.8,-0.05 0.02,-8.3 0.01,-16.6 0.01,-24.9 z"
       id="path218"
       inkscape:connector-curvature="0"
       style="opacity:1;fill:#676766" />
    <path
       d="m 158.24,413.26 c 2.15,0 4.3,0 6.46,0 -0.06,0.66 -0.19,1.96 -0.25,2.62 2.78,-3.62 8.89,-4.54 11.35,-0.1 2.73,-4.18 10.91,-4.32 11.79,1.33 0.75,6.98 0.16,14.04 0.35,21.05 -2.23,-0.04 -4.47,0.02 -6.7,-0.16 -0.43,-6.03 0.31,-12.1 -0.34,-18.12 0.12,-2.6 -4.36,-2.2 -4.29,0.23 -0.63,5.98 -0.11,12.02 -0.27,18.02 -2.27,0 -4.54,0 -6.8,0 -0.17,-6.23 0.34,-12.49 -0.27,-18.7 -0.01,-1.35 -1.98,-1.17 -2.91,-1.06 -1.63,0.94 -1.3,3.05 -1.5,4.64 -0.11,5.09 0.03,10.17 -0.03,15.26 -2.2,-0.01 -4.39,-0.01 -6.58,0 -0.01,-8.34 -0.01,-16.67 -0.01,-25.01 z"
       id="path220"
       inkscape:connector-curvature="0"
       style="opacity:1;fill:#676766" />
    <path
       d="m 189.22,420.35 c 1.32,-7.51 11.3,-10 16.83,-5.51 1.87,1.45 1.89,4.02 2.03,6.16 0.16,5.69 -0.11,11.39 0.27,17.08 -2.09,-0.02 -4.17,-0.02 -6.25,-0.02 -0.01,-0.85 -0.05,-2.55 -0.06,-3.4 -2.02,2.29 -4.7,4.55 -8,3.78 -5.85,-0.68 -6.67,-8.91 -3.08,-12.52 2.84,-2.78 7.06,-2.83 10.75,-3.47 -0.53,-1.85 0.01,-5.46 -2.9,-5.22 -2.07,0.1 -2.45,2.45 -3.29,3.87 -2.1,-0.23 -4.21,-0.48 -6.3,-0.75 m 6.9,8.61 c -0.89,2.08 -0.09,5.86 2.89,4.98 2.67,-1.67 2.06,-5.27 2.44,-7.93 -1.8,0.83 -4.54,0.76 -5.33,2.95 z"
       id="path222"
       inkscape:connector-curvature="0"
       style="opacity:1;fill:#676766" />
    <path
       d="m 229.95,420.39 c 1.23,-7.37 10.81,-9.96 16.44,-5.83 2.13,1.39 2.27,4.16 2.38,6.44 0.16,5.69 -0.12,11.38 0.25,17.07 -2.07,-0.01 -4.15,-0.01 -6.23,0 -0.02,-0.82 -0.06,-2.45 -0.08,-3.26 -2.19,2.38 -5.21,4.58 -8.64,3.51 -5.19,-1.2 -5.73,-8.46 -2.78,-12.03 2.76,-3.1 7.21,-3.19 11.01,-3.79 -0.49,-1.79 0.22,-5.18 -2.44,-5.23 -2.32,-0.36 -2.75,2.3 -3.6,3.8 -2.11,-0.22 -4.21,-0.44 -6.31,-0.68 m 6.7,8.73 c -0.57,1.88 -0.31,5.13 2.32,4.96 3.38,-1.08 2.72,-5.31 3,-8.07 -1.84,0.8 -4.63,0.83 -5.32,3.11 z"
       id="path224"
       inkscape:connector-curvature="0"
       style="opacity:1;fill:#676766" />
    <path
       d="m 250.94,413.33 c 5.14,0 10.27,-0.01 15.41,0.01 -0.18,2 0.05,4.17 -1.06,5.97 -2.62,4.69 -5.45,9.26 -8.09,13.95 3.08,0 6.15,0 9.23,0.01 -0.02,1.62 -0.03,3.24 -0.05,4.87 -5.46,-0.01 -10.93,0 -16.39,-0.01 0.21,-2.05 -0.2,-4.28 0.87,-6.14 2.58,-4.63 5.41,-9.12 8.02,-13.73 -2.66,0 -5.33,0 -7.99,0 0.01,-1.65 0.03,-3.29 0.05,-4.93 z"
       id="path226"
       inkscape:connector-curvature="0"
       style="opacity:1;fill:#676766" />
    <path
       d="m 268.21,413.33 c 2.25,0 4.52,-0.01 6.78,-0.01 0.02,8.31 0,16.63 0.01,24.94 -2.27,0 -4.54,0 -6.8,0 0.01,-8.31 0,-16.62 0.01,-24.93 z"
       id="path228"
       inkscape:connector-curvature="0"
       style="opacity:1;fill:#676766" />
    <path
       d="m 283.11,416.16 c 2.83,-4.05 10.25,-4.85 12.24,0.34 1.14,7.17 0.3,14.53 0.52,21.78 -2.25,-0.01 -4.5,-0.01 -6.75,-0.01 -0.19,-6.1 0.3,-12.22 -0.25,-18.29 -0.05,-2.54 -4.44,-2.19 -4.7,0.04 -0.83,6.02 -0.18,12.14 -0.36,18.21 -2.26,0.02 -4.52,0.04 -6.78,0.07 -0.07,-8.33 -0.02,-16.65 -0.03,-24.97 2.17,-0.01 4.34,0 6.51,0.02 -0.1,0.7 -0.3,2.1 -0.4,2.81 z"
       id="path230"
       inkscape:connector-curvature="0"
       style="opacity:1;fill:#676766" />
  </g>
  <g
     id="#fffffffe"
     transform="matrix(0.99592874,0,0,0.99576271,0,2.2796611)">
    <path
       d="m 51.52,503.74 c 3.26,-0.27 6.57,-0.3 9.83,0.05 3.99,1.07 4.14,5.84 4.06,9.23 -0.25,6.58 0.73,13.26 -0.48,19.77 -1.13,4.43 -6.56,3.25 -9.98,3.38 -2.91,0.35 -6.44,-1.02 -6.78,-4.31 -0.5,-6.93 -0.22,-13.91 -0.4,-20.86 -0.08,-2.79 0.42,-6.63 3.75,-7.26 m 3.24,6.71 c 0.05,6.27 0.14,12.54 0.14,18.81 0.93,0 2.8,0 3.73,0 -0.09,-6.25 -0.1,-12.51 -0.18,-18.76 -0.92,-0.01 -2.77,-0.04 -3.69,-0.05 z"
       id="path233"
       inkscape:connector-curvature="0"
       style="opacity:1;fill:#ffffff" />
    <path
       d="m 174.41,511.44 c 4.94,-10.09 20.85,-11.04 27.5,-2.29 4.18,5.74 4.19,13.81 1.28,20.11 -2.32,5 -7.47,8.07 -12.82,8.74 l -3.83,0 c -3.43,-0.51 -6.95,-1.57 -9.43,-4.12 -5.64,-5.81 -6.17,-15.39 -2.7,-22.44 m 11.99,-5.82 c -5.16,1.14 -8.03,6.45 -8.51,11.36 -0.53,5.11 -0.24,10.81 2.91,15.1 3.57,4.94 11.77,4.87 15.58,0.26 2.79,-3.44 3.49,-8.05 3.53,-12.35 -0.01,-4.22 -0.91,-8.8 -3.97,-11.92 -2.41,-2.52 -6.23,-3.22 -9.54,-2.45 z"
       id="path235"
       inkscape:connector-curvature="0"
       style="opacity:1;fill:#ffffff" />
    <path
       d="m 0.59,503.51 c 7.36,-0.02 14.72,0.02 22.08,0.02 0.06,4.04 0.09,8.08 0.16,12.12 -1.67,-0.01 -3.34,0 -5,0.01 -0.01,-1.76 -0.02,-3.51 -0.03,-5.25 -0.61,-0.01 -1.83,-0.03 -2.43,-0.04 0.09,6.07 -0.07,12.15 0.21,18.22 0.41,0.31 1.21,0.92 1.62,1.23 0.03,2.04 0.05,4.09 0.07,6.15 -3.49,0.07 -6.99,0.07 -10.48,-0.03 0.46,-2.48 -1.37,-6.26 1.74,-7.44 -0.09,-6.04 -0.11,-12.07 -0.17,-18.11 -0.66,0.01 -1.99,0.02 -2.66,0.03 0.02,1.73 0.03,3.48 0.04,5.23 -1.68,-0.02 -3.36,-0.04 -5.03,-0.06 -0.04,-4.03 -0.08,-8.06 -0.12,-12.08 z"
       id="path237"
       inkscape:connector-curvature="0"
       style="opacity:1;fill:#ffffff" />
    <path
       d="m 24.26,503.53 c 4.92,0.09 9.85,-0.12 14.76,0.13 2.42,0.01 4.3,2.11 4.62,4.41 0.47,3.95 0.88,8.74 -2.53,11.59 2.83,2.19 2.69,5.79 2.97,9.01 0.38,0.29 1.15,0.86 1.53,1.15 0.01,2.1 0.04,4.2 0.08,6.3 -2.42,-0.11 -4.91,0.26 -7.28,-0.3 -1.47,-0.65 -1.18,-2.42 -1.33,-3.71 -0.07,-3.07 0.01,-6.14 -0.13,-9.2 -0.95,0 -2.84,0 -3.79,0 -0.05,4.39 0.01,8.78 0.03,13.17 -2.87,-0.01 -5.74,-0.02 -8.6,-0.02 -0.02,-2.09 -0.04,-4.17 -0.08,-6.24 0.38,-0.31 1.15,-0.93 1.54,-1.23 0.31,-6.02 -0.03,-12.05 0.06,-18.07 -0.45,-0.04 -1.35,-0.11 -1.8,-0.15 -0.01,-2.28 -0.03,-4.56 -0.05,-6.84 m 8.84,6.9 c -0.01,2.07 -0.01,4.16 -0.01,6.24 1.29,0 2.57,0 3.86,0 -0.03,-2.08 -0.05,-4.16 -0.08,-6.23 -1.26,-0.01 -2.52,-0.01 -3.77,-0.01 z"
       id="path239"
       inkscape:connector-curvature="0"
       style="opacity:1;fill:#ffffff" />
    <path
       d="m 67.78,503.61 c 3.34,0.01 6.67,0.02 10.01,0.01 0.1,2.06 0.24,4.13 0.37,6.2 -1.27,0.69 -1.81,1.74 -1.63,3.15 0.03,5.5 0.11,11.01 0.16,16.52 0.72,-0.08 2.17,-0.24 2.89,-0.32 0.13,-1.89 0.04,-3.78 0.06,-5.65 2.16,0.01 4.31,0.02 6.47,0.03 0.05,4.23 0.06,8.46 0.12,12.69 -6.03,-0.02 -12.06,-0.04 -18.08,-0.06 0,-2.29 -0.01,-4.58 -0.03,-6.86 0.4,-0.02 1.2,-0.04 1.6,-0.06 -0.11,-6.24 -0.12,-12.49 -0.21,-18.73 -0.43,-0.01 -1.29,-0.03 -1.72,-0.04 0,-2.3 -0.01,-4.59 -0.01,-6.88 z"
       id="path241"
       inkscape:connector-curvature="0"
       style="opacity:1;fill:#ffffff" />
    <path
       d="m 87.45,503.63 c 3.38,0.02 6.75,0.03 10.13,0.03 0.07,2.28 0.11,4.57 0.16,6.87 -0.39,0 -1.18,0.02 -1.57,0.03 -0.05,6.27 0.09,12.54 0.09,18.81 1.02,-0.01 2.04,-0.01 3.06,-0.01 -0.01,-1.94 -0.02,-3.87 -0.01,-5.8 2.14,0.01 4.28,0.02 6.42,0.02 0.12,4.23 0.1,8.47 0.2,12.71 -6.08,0 -12.16,-0.04 -18.24,-0.04 -0.01,-2.08 -0.02,-4.16 -0.01,-6.23 0.37,-0.35 1.09,-1.04 1.45,-1.38 0.27,-4.89 -0.03,-9.8 0,-14.69 0.2,-1.63 -0.45,-3.09 -1.61,-4.19 -0.08,-2.04 -0.08,-4.09 -0.07,-6.13 z"
       id="path243"
       inkscape:connector-curvature="0"
       style="opacity:1;fill:#ffffff" />
    <path
       d="m 107.43,511.98 c -0.06,-2.92 0.07,-7.18 3.57,-8.03 4.45,-0.78 9.06,-0.14 13.58,-0.34 0.08,3.25 0.08,6.49 0.15,9.74 -2.11,-0.01 -4.23,-0.01 -6.34,-0.02 0,-0.71 -0.01,-2.12 -0.02,-2.83 -0.97,0 -2.92,0.01 -3.89,0.02 0.03,6.29 0.12,12.58 0.15,18.88 0.98,0.01 2.96,0.03 3.95,0.05 -0.03,-2.01 -0.06,-4 -0.07,-6 -0.51,-0.01 -1.52,-0.05 -2.02,-0.07 -0.01,-2.3 -0.02,-4.59 -0.02,-6.88 2.9,0.02 5.79,0.02 8.69,0.06 0.07,6.59 0.11,13.19 0.21,19.79 -4.52,-0.06 -9.05,0.09 -13.56,-0.09 -2.45,-0.48 -4.11,-2.79 -4.13,-5.22 -0.24,-6.35 -0.13,-12.71 -0.25,-19.06 z"
       id="path245"
       inkscape:connector-curvature="0"
       style="opacity:1;fill:#ffffff" />
    <path
       d="m 128.37,510.55 c 0.01,-2.29 0.01,-4.57 0.05,-6.84 5.95,0.02 11.9,0.03 17.85,0.03 0.09,3.61 0.12,7.23 0.17,10.86 -1.92,-0.02 -3.84,-0.03 -5.76,-0.02 -0.04,-1.32 -0.08,-2.63 -0.12,-3.94 -1.16,-0.01 -2.33,-0.01 -3.5,-0.02 -0.04,2.01 -0.07,4.02 -0.08,6.03 1.77,0 3.53,0.01 5.3,0.03 0.04,2.01 0.07,4.03 0.09,6.05 -1.75,0 -3.5,-0.01 -5.25,-0.01 -0.08,2.24 -0.1,4.49 -0.12,6.74 1.26,0.01 2.53,0.01 3.8,0.03 -0.03,-1.02 -0.08,-3.06 -0.11,-4.08 2.05,0 4.1,0.01 6.15,0.03 0.34,3.64 0.35,7.3 0.36,10.96 -6.17,0.05 -12.33,-0.02 -18.49,-0.03 -0.02,-2.27 -0.04,-4.54 -0.08,-6.8 0.41,-0.05 1.23,-0.14 1.65,-0.18 -0.08,-6.24 -0.07,-12.48 -0.13,-18.71 -0.44,-0.04 -1.33,-0.1 -1.78,-0.13 z"
       id="path247"
       inkscape:connector-curvature="0"
       style="opacity:1;fill:#ffffff" />
    <path
       d="m 149.55,504.18 c 3.34,-0.54 6.73,-0.47 10.11,-0.41 0.12,2.3 0.17,4.61 0.22,6.92 l -1.6,-0.07 c -0.1,6.3 0.1,12.6 0.09,18.9 1.03,0.02 2.05,0.04 3.08,0.07 -0.01,-1.97 -0.02,-3.94 -0.01,-5.9 2.08,0.01 4.16,0.01 6.24,0.01 0.17,4.26 0.15,8.53 0.2,12.8 -6,-0.03 -12.01,-0.02 -18.01,-0.07 0.35,-2.54 -1.13,-5.96 1.48,-7.62 -0.12,-5.83 0.21,-11.73 -0.33,-17.51 -0.34,-0.34 -1.02,-1.02 -1.36,-1.36 -0.06,-1.92 -0.09,-3.84 -0.11,-5.76 z"
       id="path249"
       inkscape:connector-curvature="0"
       style="opacity:1;fill:#ffffff" />
    <path
       d="m 205.84,503.76 c 2.86,0.1 5.72,0.11 8.59,0.01 6.14,8.74 12.81,17.08 19.19,25.64 -0.13,-7.71 0.27,-15.44 -0.2,-23.14 -1.34,-0.49 -2.76,-0.73 -4.13,-1.05 l 0.19,-1.48 c 3.58,0.15 7.15,0.14 10.73,0 l 0.04,1.54 c -1.31,0.26 -2.64,0.45 -3.91,0.88 -0.53,10.59 -0.07,21.23 -0.22,31.84 l -2.01,0 c -7.35,-9.44 -14.4,-19.1 -21.68,-28.59 0.17,8.6 -0.36,17.24 0.26,25.82 1.29,0.3 2.6,0.53 3.92,0.71 l 0.06,1.62 c -3.62,-0.14 -7.24,-0.14 -10.85,0.01 l 0.01,-1.66 c 1.3,-0.16 2.6,-0.37 3.89,-0.64 0.6,-9.76 0.31,-19.6 0.13,-29.38 -1.35,-0.15 -2.7,-0.29 -4.05,-0.41 l 0.04,-1.72 z"
       id="path251"
       inkscape:connector-curvature="0"
       style="opacity:1;fill:#ffffff" />
    <path
       d="m 243.03,503.63 c 4.54,0.22 9.1,0.07 13.65,0.09 -0.55,2.2 -2.81,1.81 -4.53,2.15 -0.31,9.66 -0.06,19.33 -0.14,28.99 3.95,-0.07 7.92,0.2 11.87,-0.16 3.15,-0.38 3.35,-4.22 4.48,-6.52 0.49,0 1.46,0.01 1.94,0.02 -0.56,3.09 -1.12,6.19 -1.7,9.28 -8.48,-0.11 -16.97,-0.24 -25.45,0.01 l -0.1,-1.71 c 1.35,-0.18 2.75,-0.23 4.06,-0.66 0.38,-9.77 0.27,-19.58 0.04,-29.36 -1.33,-0.12 -2.66,-0.21 -3.98,-0.28 -0.04,-0.46 -0.11,-1.39 -0.14,-1.85 z"
       id="path253"
       inkscape:connector-curvature="0"
       style="opacity:1;fill:#ffffff" />
    <path
       d="m 272.55,503.71 c 4.3,0.21 8.6,0.21 12.91,0 l 0.13,1.67 c -1.28,0.56 -4.26,-0.41 -4.11,1.84 -0.02,9.33 -0.38,18.72 0.19,28.04 1.32,0.23 2.65,0.41 3.99,0.52 l -0.12,1.71 c -4.33,-0.19 -8.68,-0.19 -13.01,0 l -0.07,-1.72 c 1.33,-0.54 4.37,0.52 4.12,-1.79 0.3,-7.98 0.02,-15.98 0.14,-23.96 -0.19,-1.33 0.32,-2.98 -0.6,-4.09 -1.23,-0.25 -2.47,-0.43 -3.71,-0.54 l 0.14,-1.68 z"
       id="path255"
       inkscape:connector-curvature="0"
       style="opacity:1;fill:#ffffff" />
    <path
       d="m 289.39,503.67 c 2.87,0.09 5.75,0.1 8.62,0.01 6.11,8.74 12.81,17.06 19.17,25.62 -0.03,-7.83 0.11,-15.66 -0.1,-23.49 -1.34,-0.14 -2.68,-0.27 -4.01,-0.38 0,-0.45 -0.01,-1.34 -0.01,-1.78 3.61,0.13 7.23,0.13 10.84,0 0,0.44 0.01,1.33 0.01,1.78 -1.37,0.13 -2.73,0.28 -4.09,0.44 -0.29,10.71 -0.06,21.42 -0.13,32.13 l -2.03,0 c -7.32,-9.49 -14.4,-19.16 -21.66,-28.7 0.1,8.26 -0.21,16.54 0.13,24.8 0.01,2.04 2.79,1.16 4.07,1.78 l -0.01,1.58 c -3.59,-0.13 -7.19,-0.13 -10.77,0.01 l -0.05,-1.75 c 1.35,-0.13 2.71,-0.26 4.07,-0.39 0.25,-9.85 0.25,-19.71 0,-29.56 -1.37,-0.13 -2.72,-0.25 -4.08,-0.35 l 0.03,-1.75 z"
       id="path257"
       inkscape:connector-curvature="0"
       style="opacity:1;fill:#ffffff" />
    <path
       d="m 326.68,503.63 c 8.2,0.18 16.4,0.17 24.6,-0.12 0.15,2.86 0.35,5.74 0.19,8.62 -3.06,-0.66 -1.66,-5.15 -4.51,-5.84 -3.74,-0.54 -7.53,-0.21 -11.28,-0.29 0,4.11 0,8.23 0,12.34 3.4,-0.11 6.88,0.25 10.23,-0.52 0.35,-1.08 0.64,-2.18 0.87,-3.28 l 1.6,0.09 c -0.03,3.69 0.09,7.38 -0.13,11.08 -2.19,-0.54 -1.76,-2.93 -2.54,-4.46 -3.19,-1.17 -6.71,-0.47 -10.03,-0.65 0,4.73 0,9.46 0,14.2 4.08,-0.09 8.18,0.22 12.24,-0.19 3.22,-0.64 2.4,-5.64 5.9,-6.04 -0.4,2.99 -1.03,5.94 -1.63,8.91 -8.5,-0.02 -17,-0.32 -25.5,0.01 l -0.02,-1.72 c 1.26,-0.1 2.51,-0.26 3.76,-0.48 0.79,-2.33 0.35,-4.85 0.46,-7.26 -0.15,-7.32 0.27,-14.66 -0.21,-21.95 -1.26,-0.6 -2.69,-0.54 -4.02,-0.74 l 0.02,-1.71 z"
       id="path259"
       inkscape:connector-curvature="0"
       style="opacity:1;fill:#ffffff" />
  </g>
  <path
     d="m 88.804477,185.1812 c 7.220483,-0.0199 14.440963,-0.01 21.661453,-0.01 l 0,12.31758 -4.71075,0 0,-5.33728 c -0.63739,-0.01 -1.89226,-0.0199 -2.52966,-0.0299 l 0.14939,19.93477 1.27479,4e-4 c 0.0896,2.07119 0.11951,4.14238 0.12947,6.22352 l -10.00908,0 c -0.07967,-2.07119 -0.159348,-4.14277 -0.169308,-6.22392 l 1.623364,0 0.129471,-19.94472 c -0.597557,0 -1.792672,-0.01 -2.400188,-0.01 -0.01992,1.79237 -0.03984,3.58474 -0.05976,5.38707 l -5.089196,0 c 0.01,-4.10254 0.01,-8.20508 0,-12.30762 z"
     id="path44-8"
     inkscape:connector-curvature="0"
     style="display:inline;opacity:1;fill:#333333"
     sodipodi:nodetypes="ccccccccccccccccc" />
  <path
     d="m 0.87729361,305.77692 c 7.22048339,-0.0199 14.44096539,-0.01 21.66144939,-0.01 l 0,12.31758 -4.710743,0 0,-5.33729 c -0.637395,-0.01 -1.892265,-0.0199 -2.529659,-0.0299 l 0.149389,19.93477 1.274789,4e-4 c 0.08963,2.07119 0.119511,4.14237 0.129471,6.22352 l -10.0090832,0 c -0.079674,-2.07119 -0.1593486,-4.14278 -0.1693079,-6.22392 l 1.6233638,0 0.1294708,-19.94473 c -0.5975573,0 -1.7926718,-0.01 -2.4001883,-0.01 -0.019919,1.79238 -0.039837,3.58475 -0.059756,5.38708 l -5.08919589,0 c 0.009959,-4.10254 0.009959,-8.20508 0,-12.30763 z"
     id="path44-8-4"
     inkscape:connector-curvature="0"
     style="display:inline;opacity:1;fill:#333333"
     sodipodi:nodetypes="ccccccccccccccccc" />
</svg>
