<?xml version="1.0" encoding="UTF-8" standalone="no"?>
<svg
   xmlns:dc="http://purl.org/dc/elements/1.1/"
   xmlns:cc="http://creativecommons.org/ns#"
   xmlns:rdf="http://www.w3.org/1999/02/22-rdf-syntax-ns#"
   xmlns:svg="http://www.w3.org/2000/svg"
   xmlns="http://www.w3.org/2000/svg"
   xmlns:sodipodi="http://sodipodi.sourceforge.net/DTD/sodipodi-0.dtd"
   xmlns:inkscape="http://www.inkscape.org/namespaces/inkscape"
   version="1.1"
   id="Ebene_1"
   x="0px"
   y="0px"
   width="567px"
   height="547px"
   viewBox="0 0 567 547"
   enable-background="new 0 0 567 547"
   xml:space="preserve"
   inkscape:version="0.91 r13725"
   sodipodi:docname="logos_sprite.svg"><metadata
     id="metadata225"><rdf:RDF><cc:Work
         rdf:about=""><dc:format>image/svg+xml</dc:format><dc:type
           rdf:resource="http://purl.org/dc/dcmitype/StillImage" /></cc:Work></rdf:RDF></metadata><defs
     id="defs223" /><sodipodi:namedview
     pagecolor="#ffffff"
     bordercolor="#666666"
     borderopacity="1"
     objecttolerance="10"
     gridtolerance="10"
     guidetolerance="10"
     inkscape:pageopacity="0"
     inkscape:pageshadow="2"
     inkscape:window-width="1920"
     inkscape:window-height="1017"
     id="namedview221"
     showgrid="false"
     inkscape:zoom="2.4406172"
     inkscape:cx="343.35863"
     inkscape:cy="467.83277"
     inkscape:window-x="-8"
     inkscape:window-y="-8"
     inkscape:window-maximized="1"
     inkscape:current-layer="SPON"
     showguides="false" /><g
     id="g3"><path
       fill="#E74215"
       d="M35.4,174.3H4v-8.9h4.4V129H4v-9h31.1c3.1,0,6,2.7,6,5.9v42.7C41.1,171.7,38.6,174.3,35.4,174.3z M30.5,129   H18.8v36.3h11.7V129z"
       id="path5" /><path
       fill="#E74215"
       d="M45.9,174.3v-8.9h3.9V129h-3.9v-9H83v16.6H72.6V129H60.2v12.4h16.4v9H60.2v14.9h12.3v-10.2H83v19.1H45.9   V174.3z"
       id="path7" /><path
       fill="#E74215"
       d="M110.1,174.3v-8.9h4.4v-14.9h-12v14.9h4.2v8.9H87.4v-8.9H92V129h-4.7v-9h32.2c3.1,0,5.6,2.8,5.6,5.9v14.6   c0,3.2-2.6,5.8-5.8,5.8c3.2,0,5.8,2.6,5.8,5.8v13.3h4v8.9H110.1z M114.4,129h-12v12.4h12V129z"
       id="path9" /><path
       fill="#E74215"
       d="M175.9,174.3h-21.4c-3.2,0-5.8-2.7-5.8-5.9v-13.2h10.5v10.2H171v-14.9h-22.2v-24.7c0-3.1,2.6-5.8,5.8-5.8   H176c3.2,0,5.8,2.5,5.8,5.7v10.9H171V129h-11.7v12.4h22.5v27.1C181.7,171.7,179.1,174.3,175.9,174.3z"
       id="path11" /><path
       fill="#E74215"
       d="M218.4,150.5h-16.9v14.9h4v8.9h-18.9v-8.9h4.2V129h-4.2v-9h31.9c3.2,0,5.8,2.6,5.8,5.8v18.8   C224.2,147.8,221.6,150.5,218.4,150.5z M213.6,129h-12.1v12.4h12.1V129z"
       id="path13" /><path
       fill="#E74215"
       d="M228.1,174.3v-8.9h4.1V129h-4.1v-9h18.6v9h-4v36.3h4v8.9h-18.6V174.3z"
       id="path15" /><path
       fill="#E74215"
       d="M251.1,174.3v-8.9h3.9V129h-3.9v-9h37.1v16.6h-10.4V129h-12.3v12.4h16.4v9h-16.4v14.9h12.3v-10.2h10.4v19.1   h-37.1V174.3z"
       id="path17" /><path
       fill="#E74215"
       d="M299,174.3c-3.1,0-5.9-2.6-5.9-5.7v-42.7c0-3.2,2.601-5.8,5.801-5.8H320.3c3.2,0,5.8,2.6,5.8,5.8v10.7   H315.2V129h-11.7v36.3h12.1v-14.9H306.9v-9h19.3v32.8H299V174.3z"
       id="path19" /><path
       fill="#E74215"
       d="M330.8,174.3v-8.9h3.9V129h-3.9v-9H368v16.6h-10.4V129h-12.3v12.4h16.4v9h-16.4v14.9h12.3v-10.2H368v19.1   h-37.2V174.3z"
       id="path21" /><path
       fill="#E74215"
       d="M372.7,174.3v-8.9h4.2V129H372.8v-9H392v9h-4.5v36.3h12.1v-10.2H410v19.1h-37.3V174.3z"
       id="path23" /></g><g
     id="g25"><path
       fill="#333333"
       d="M24.1,221.9H4.5v-5.6h2.8v-22.7H4.5V188h19.4c2,0,3.7,1.7,3.7,3.7v26.7C27.7,220.3,26.1,221.9,24.1,221.9z    M21.1,193.7h-7.3v22.7h7.3V193.7z"
       id="path27" /><path
       fill="#333333"
       d="M30.7,221.9v-5.6h2.5v-22.7h-2.5V188h23.2v10.4h-6.5v-4.7h-7.7v7.8H50v5.7H39.7v9.3h7.7V210h6.5v12H30.7   V221.9z"
       id="path29" /><path
       fill="#333333"
       d="M70.8,221.9v-5.6h2.7V207H66v9.3h2.6v5.6h-12v-5.6h2.9v-22.7h-2.9V188h20.1c1.9,0,3.5,1.8,3.5,3.7v9.1   c0,2-1.6,3.6-3.6,3.6c2,0,3.6,1.6,3.6,3.6v8.3h2.5v5.6H70.8L70.8,221.9z M73.6,193.7h-7.5v7.8h7.5V193.7z"
       id="path31" /><path
       fill="#333333"
       d="M112,221.9H98.7c-2,0-3.7-1.7-3.7-3.7V210h6.6v6.4h7.3v-9.3H95v-15.5c0-2,1.6-3.6,3.6-3.6H112   c2,0,3.7,1.6,3.7,3.6v6.8H109v-4.7h-7.3v7.8h14.1v17C115.6,220.3,114,221.9,112,221.9z"
       id="path33" /><path
       fill="#333333"
       d="M138.6,207.1H128v9.3h2.5v5.6h-11.8v-5.6h2.6v-22.7h-2.6V188h19.9c2,0,3.6,1.6,3.6,3.6v11.8   C142.2,205.4,140.6,207.1,138.6,207.1z M135.6,193.7H128v7.8h7.6V193.7z"
       id="path35" /><path
       fill="#333333"
       d="M144.7,221.9v-5.6h2.6v-22.7h-2.6V188h11.6v5.7h-2.5v22.7h2.5v5.6h-11.6V221.9z"
       id="path37" /><path
       fill="#333333"
       d="M159.1,221.9v-5.6h2.5v-22.7h-2.5V188h23.2v10.4h-6.5v-4.7h-7.7v7.8h10.3v5.7h-10.3v9.3h7.7V210h6.5v12   h-23.2V221.9z"
       id="path39" /><path
       fill="#333333"
       d="M189,221.9c-2,0-3.7-1.6-3.7-3.6v-26.7c0-2,1.6-3.6,3.6-3.6h13.4c2,0,3.6,1.6,3.6,3.6v6.7h-6.8v-4.7h-7.3   v22.7h7.6V207H194v-5.7h12v20.5h-17V221.9z"
       id="path41" /><path
       fill="#333333"
       d="M208.9,221.9v-5.6h2.5v-22.7h-2.5V188h23.2v10.4h-6.5v-4.7h-7.7v7.8h10.3v5.7h-10.3v9.3h7.7V210h6.5v12   h-23.2V221.9z"
       id="path43" /><path
       fill="#333333"
       d="M235.1,221.9v-5.6h2.6v-22.7h-2.6V188h12v5.7h-2.8v22.7h7.6V210h6.5v12h-23.3V221.9z"
       id="path45" /></g><g
     id="Logo_Pfade"><path
       fill="#E74215"
       d="M32.5,292H11.2c-3.2,0-5.8-2.7-5.8-5.9V273h10.4v10.2h11.7v-14.8H5.4v-24.6c0-3.1,2.6-5.7,5.7-5.7h21.3   c3.2,0,5.8,2.5,5.8,5.7v10.8H27.5V247H15.9v12.3h22.3v27C38.2,289.5,35.7,292,32.5,292z"
       id="path48" /><path
       fill="#E74215"
       d="M74.8,268.4H57.9v14.8h4v8.8H43.1v-8.8h4.1V247H43v-9h31.7c3.2,0,5.7,2.5,5.7,5.7v18.7   C80.5,265.7,77.9,268.4,74.8,268.4z M70,247H58v12.3h12V247z"
       id="path50" /><path
       fill="#E74215"
       d="M84.3,292v-8.8h4.1V247h-4.1v-9h18.5v9h-4v36.1h4v8.801H84.3V292z"
       id="path52" /><path
       fill="#E74215"
       d="M107.2,292v-8.8h3.9V247h-3.9v-9h36.9v16.5h-10.4V247h-12.3v12.3h16.3v9h-16.3v14.8h12.3V273h10.4v19H107.2   z"
       id="path54" /><path
       fill="#E74215"
       d="M154.9,292c-3.1,0-5.9-2.5-5.9-5.7v-42.5c0-3.2,2.5-5.8,5.7-5.8H176c3.2,0,5.7,2.6,5.7,5.8v10.7h-10.9V247   h-11.7v36.1h12v-14.8h-8.6v-9h19.2V292H154.9z"
       id="path56" /><path
       fill="#E74215"
       d="M186.5,292v-8.8h3.9V247h-3.9v-9h36.9v16.5H213V247h-12.3v12.3H217v9h-16.3v14.8H213V273h10.4v19H186.5z"
       id="path58" /><path
       fill="#E74215"
       d="M228.1,292v-8.8h4.1V247h-4.1v-9h19.1v9h-4.5v36.1h12V273H265v19H228.1z"
       id="path60" /><path
       fill="#E74215"
       d="M321.1,252.6c-2-9.7-2.5-10.6-8-10.6H305.4v42.9c0,3.6,0.5,4,3.899,4h3.101v3.1c-3.4-0.2-7-0.3-10.9-0.3   s-7.4,0.2-10.9,0.3v-3.1h3.101c3.399,0,3.899-0.4,3.899-4V242H289.9c-5.601,0-6.101,0.8-8,10.6h-3.2l0.8-14.6   c7.3,0.1,14.6,0.3,21.9,0.3c7.3,0,14.6-0.2,21.899-0.3l0.8,14.6H321.1z"
       id="path62" /><path
       fill="#E74215"
       d="M374.7,245.7l-18.8,47h-4L332.8,244c-0.8-2.1-2.1-2.8-4.1-2.8h-1.8v-3.1c3.399,0.2,6.699,0.3,10.199,0.3   c3.4,0,6.801-0.2,10.301-0.3v3.1H344.6c-2.5,0-3.3,0.8-3.3,1.8c0,0.6,0.4,1.7,1.2,4l13.3,36.2l14.101-37c0.399-1.1,0.6-1.9,0.6-2.7   c0-1.6-1-2.2-4.1-2.2H364.1v-3.1c2.7,0.2,5.301,0.3,8,0.3c2.7,0,5.301-0.2,8-0.3v3.1C376.8,241.1,376.4,241.4,374.7,245.7z"
       id="path64" /></g><g
     id="Logo_Pfade_1_"><path
       fill="#333333"
       d="M21.2,343.1H7.9c-2,0-3.6-1.699-3.6-3.699v-8.2h6.5v6.399h7.3v-9.3H4.2V312.9c0-2,1.6-3.601,3.6-3.601h13.3   c2,0,3.6,1.5,3.6,3.5v6.8H18V315h-7.3v7.7h14V339.6C24.8,341.5,23.2,343.1,21.2,343.1z"
       id="path67" /><path
       fill="#333333"
       d="M47.6,328.3H37.1v9.3h2.5v5.5H27.8v-5.5h2.6V315h-2.6v-5.6h19.8c2,0,3.6,1.6,3.6,3.6v11.7   C51.2,326.6,49.6,328.3,47.6,328.3z M44.6,315h-7.5v7.7h7.5V315z"
       id="path69" /><path
       fill="#333333"
       d="M53.6,343.1v-5.5h2.5V315h-2.5v-5.6h11.6v5.6h-2.5v22.6h2.5v5.5H53.6z"
       id="path71" /><path
       fill="#333333"
       d="M68,343.1v-5.5h2.5V315H68v-5.6h23.1v10.3h-6.5V315h-7.7v7.7h10.2v5.6H76.9v9.3h7.7V331.2h6.5V343.1H68z"
       id="path73" /><path
       fill="#333333"
       d="M97.8,343.1c-2,0-3.7-1.6-3.7-3.5V313c0-2,1.6-3.6,3.6-3.6h13.4c2,0,3.6,1.6,3.6,3.6v6.7h-6.8V315h-7.3   v22.6h7.5v-9.3h-5.4v-5.6h12V343.1H97.8z"
       id="path75" /><path
       fill="#333333"
       d="M117.6,343.1v-5.5h2.5V315h-2.5v-5.6h23.1v10.3h-6.5V315h-7.7v7.7h10.2v5.6h-10.2v9.3h7.7V331.2h6.5V343.1   H117.6z"
       id="path77" /><path
       fill="#333333"
       d="M143.7,343.1v-5.5h2.6V315h-2.5v-5.6h12v5.6H153v22.6h7.5V331.2h6.4V343.1H143.7z"
       id="path79" /><path
       fill="#333333"
       d="M201.9,318.4c-1.2-6.101-1.5-6.601-5-6.601H192v26.9c0,2.3,0.3,2.5,2.4,2.5h2v1.899   c-2.2-0.1-4.4-0.199-6.8-0.199s-4.7,0.1-6.8,0.199V341.2h2c2.1,0,2.4-0.2,2.4-2.5v-26.9h-4.8c-3.5,0-3.8,0.5-5,6.601h-2l0.5-9.101   c4.6,0,9.2,0.2,13.7,0.2c4.6,0,9.2-0.1,13.7-0.2l0.5,9.101H201.9z"
       id="path81" /><path
       fill="#333333"
       d="M235.4,314.1l-11.8,29.5h-2.5l-12-30.6c-0.5-1.3-1.3-1.8-2.5-1.8h-1.1v-1.9c2.1,0.101,4.2,0.2,6.4,0.2   c2.2,0,4.3-0.1,6.4-0.2v1.9h-1.7c-1.6,0-2.1,0.5-2.1,1.1c0,0.4,0.2,1.101,0.8,2.5l8.3,22.601l8.8-23.2c0.2-0.7,0.4-1.2,0.4-1.7   c0-1-0.6-1.4-2.6-1.4h-1.4V309.2c1.7,0.1,3.3,0.2,5,0.2c1.7,0,3.3-0.101,5-0.2v1.899C236.8,311.2,236.5,311.4,235.4,314.1z"
       id="path83" /></g><g
     id="SPON"><path
       fill="#981914"
       d="M26.4,35.5H4c0,0,0-19.4,0-23.4s2-6.8,6.9-6.8s17.7,0,19.7,0c3.5,0,5.8,2.1,5.8,6.1s0,10.3,0,10.3h-10v-7.6   H13.6v12.4h22.8c0,0,0,21.6,0,25.7c0,4.1-2.4,6.6-7.1,6.6c-4.8,0-13.7,0-18.4,0C6.2,59,4,56.3,4,52.7C4,49,4,40.4,4,40.4h9.6v9.7   h12.8V35.5z"
       id="path86" /><path
       style="fill:#981914"
       d="m 139.5,21.8 0,-16.4 -36.5,0 0,8.8 4.7,0 0,35.9 -4.7,0 0,8.9 36.5,0 0,-18.4 -10.2,0 0,9.5 -12.2,0 0,-14.6 16.9,0 0,-8.8 -16.9,0 0,-12.5 12.2,0 0,7.6 z"
       id="polygon88" /><path
       style="fill:#981914"
       d="m 218.3,21.8 0,-16.4 -36.5,0 0,8.8 4.7,0 0,35.9 -4.7,0 0,8.9 36.5,0 0,-18.4 -10.2,0 0,9.5 -12.2,0 0,-14.6 16.8,0 0,-8.8 -16.8,0 0,-12.5 12.2,0 0,7.6 z"
       id="polygon90" /><path
       style="fill:#981914"
       d="m 242.5,14.2 0,-8.8 -17.9,0 0,8.8 4.7,0 0,35.9 -4.7,0 0,8.9 36.5,0 0,-18.4 -10.2,0 0,9.5 -12.2,0 0,-35.9 z"
       id="polygon92" /><polygon
       fill="#981914"
       points="99.1,14.2 94.4,14.2 94.4,50.1 99.1,50.1 99.1,59 80.5,59 80.5,50.1 84.7,50.1 84.7,14.2    80.5,14.2 80.5,5.4 99.1,5.4  "
       id="polygon94" /><path
       d="M166.9,35.5h-8.8v-8.9h18.3v32.3c0,0-22.9,0-26.6,0c-3.8,0-5.4-3-5.4-5.4s0-39.6,0-42.4   c0-2.8,1.5-5.8,5.8-5.8c4.3,0,18.2,0,20.6,0c2.4,0,5.7,1.7,5.7,5.7s0,10.8,0,10.8H167v-7.6h-12.6v35.9H167V35.5H166.9z"
       id="path96"
       fill="#981914" /><path
       fill="#981914"
       d="M41.5,5.4v8.9h4.3v35.9h-4.3V59H60v-8.9h-4.5V35.5h15.6c4,0,7.1-2.5,7.1-6V11.8c0-4.8-3.2-6.4-6.4-6.4H41.5   z M55.5,14.2h12.6v12.4H55.5V14.2z"
       id="path98" /><path
       fill="#981914"
       d="M301.9,59.7c-18.5,0-25.5-13.9-25.5-27.1c0-16.4,10.1-28,26.2-28c16.2,0,26.2,10.6,26.2,26.8   C328.8,46.2,319.8,59.7,301.9,59.7z M302.7,8c-10,0-17.7,8.2-17.7,24c0,16.9,7.5,24.4,16.9,24.4c13.5,0,18.399-11.3,18.399-25.1   C320.2,19,315.2,8,302.7,8z"
       id="path100" /><path
       fill="#981914"
       d="M381.3,8.5c-3.3,0-3.899,0.4-3.899,3.9v47.4H374.1l-34-45.2H339.9v37.5c0,3.5,0.5,3.9,3.899,3.9h2.7v3   c-2.8-0.2-5.7-0.3-8.5-0.3s-5.7,0.2-8.5,0.3v-3h2.7c3.3,0,3.899-0.4,3.899-3.9V12.4c0-3.5-0.5-3.9-3.899-3.9h-2.7v-3   c2.3,0.2,4.6,0.3,7,0.3s4.7-0.2,7-0.3c0.4,1,1.1,2.4,2,3.4l28,37.1h0.2V12.4c0-3.5-0.5-3.9-3.9-3.9h-2.7v-3   c2.9,0.2,5.7,0.3,8.5,0.3c2.801,0,5.601-0.2,8.5-0.3v3H381.3z"
       id="path102" /><path
       fill="#981914"
       d="M428.9,59c-7.801-0.2-15.601-0.3-23.4-0.3c-5.7,0-11.3,0.2-17,0.3v-3h2.7c3.3,0,3.899-0.4,3.899-3.9V12.4   c0-3.5-0.5-3.9-3.899-3.9h-2.7v-3c3.4,0.2,6.9,0.3,10.3,0.3c3.4,0,6.9-0.2,10.3-0.3v3H406.4c-3.301,0-3.9,0.4-3.9,3.9v42.7H417   c6.5,0,7.8-0.9,9.4-5.2l1.899-5.4h3.2L428.9,59z"
       id="path104" /><path
       fill="#981914"
       d="M445.4,58.7c-3.4,0-6.9,0.2-10.301,0.3v-3h2.7c3.3,0,3.9-0.4,3.9-4V12.4c0-3.5-0.5-3.9-3.9-3.9h-2.7v-3   c3.4,0.2,6.9,0.3,10.301,0.3c3.399,0,6.899-0.2,10.3-0.3v3H453c-3.3,0-3.9,0.4-3.9,3.9V52c0,3.6,0.5,4,3.9,4h2.7v3   C452.3,58.8,448.8,58.7,445.4,58.7z"
       id="path106" /><path
       fill="#981914"
       d="M513.7,8.5c-3.3,0-3.9,0.4-3.9,3.9v47.4h-3.3l-34-45.2h-0.2v37.5c0,3.5,0.5,3.9,3.9,3.9h2.7v3   c-2.801-0.2-5.7-0.3-8.5-0.3c-2.801,0-5.7,0.2-8.5,0.3v-3h2.699c3.301,0,3.9-0.4,3.9-3.9V12.4c0-3.5-0.5-3.9-3.9-3.9H461.9v-3   c2.3,0.2,4.6,0.3,7,0.3c2.399,0,4.699-0.2,7-0.3c0.399,1,1.1,2.4,2,3.4l28,37.1h0.199V12.4c0-3.5-0.5-3.9-3.899-3.9h-2.7v-3   c2.9,0.2,5.7,0.3,8.5,0.3s5.6-0.2,8.5-0.3v3H513.7z"
       id="path108" /><path
       fill="#981914"
       d="M561.2,59c-10.3-0.2-20.7-0.3-27.8-0.3c-6.101,0-9.9,0.2-12.5,0.3v-3h2.699c3.301,0,3.9-0.4,3.9-3.9V12.4   c0-3.5-0.5-3.9-3.9-3.9H520.9v-3l5.699,0.2c1.7,0.1,3.301,0.1,5.101,0.1h17.1c3.9,0,7.5-0.2,11-0.3l0.601,12.6h-3.2   c-1.2-7.9-2.4-8.7-8.9-8.7H535v19.5h6.9c9.5,0,10.199-0.2,10.199-4.3v-1.5h3v16.6h-3v-0.8c0-5.9-1.199-6.3-7.6-6.3H535V55h16   c5.5,0,6.5-0.4,9.7-9h3.3L561.2,59z"
       id="path110" /><path
       inkscape:connector-curvature="0"
       style="fill:#981914"
       d="m 421.92824,100.2704 10.2003,0 -3.9e-4,-4.349862 3.19992,-2.8e-4 2.5e-4,36.000052 -4.3,0 -2.1e-4,8.80009 18.5,-2.8e-4 2.1e-4,-8.9 -4.50043,1.9e-4 1.8e-4,-35.900052 3.20037,0 -1.8e-4,4.350142 10.20009,0 0,-13.150225 -36.49989,-4.8e-5 z"
       id="path98-3"
       sodipodi:nodetypes="ccccccccccccccccc" /></g><g
     id="SPON_2_"><path
       fill="#333333"
       d="M18.1,90.1H4c0,0,0-12.2,0-14.8C4,72.8,5.3,71,8.4,71s11.2,0,12.5,0c2.2,0,3.6,1.3,3.6,3.9   c0,2.5,0,6.5,0,6.5h-6.4v-4.8H10v7.8h14.4c0,0,0,13.7,0,16.2c0,2.6-1.5,4.2-4.5,4.2s-8.7,0-11.7,0s-4.3-1.7-4.3-4   c0-2.3,0-7.8,0-7.8h6v6.1H18L18.1,90.1z"
       id="path113" /><polygon
       fill="#333333"
       points="89.6,81.4 89.6,71 66.6,71 66.6,76.6 69.5,76.6 69.5,99.3 66.6,99.3 66.6,104.9 89.6,104.9    89.6,93.3 83.2,93.3 83.2,99.3 75.5,99.3 75.5,90.1 86.1,90.1 86.1,84.5 75.5,84.5 75.5,76.6 83.2,76.6 83.2,81.4  "
       id="polygon115" /><polygon
       fill="#333333"
       points="139.4,81.4 139.4,71 116.3,71 116.3,76.6 119.3,76.6 119.3,99.3 116.3,99.3 116.3,104.9    139.4,104.9 139.4,93.3 133,93.3 133,99.3 125.2,99.3 125.2,90.1 135.9,90.1 135.9,84.5 125.2,84.5 125.2,76.6 133,76.6 133,81.4     "
       id="polygon117" /><polygon
       fill="#333333"
       points="154.7,76.6 154.7,71 143.4,71 143.4,76.6 146.3,76.6 146.3,99.3 143.4,99.3 143.4,104.9    166.4,104.9 166.4,93.3 160,93.3 160,99.3 152.3,99.3 152.3,76.6  "
       id="polygon119" /><polygon
       fill="#333333"
       points="64.1,76.6 61.1,76.6 61.1,99.3 64.1,99.3 64.1,104.9 52.3,104.9 52.3,99.3 55,99.3 55,76.6    52.3,76.6 52.3,71 64.1,71  "
       id="polygon121" /><path
       fill="#333333"
       d="M106.9,90.1h-5.6v-5.6h11.5v20.4c0,0-14.4,0-16.8,0s-3.4-1.9-3.4-3.4s0-25,0-26.8c0-1.8,0.9-3.7,3.6-3.7   c2.7,0,11.5,0,13,0s3.6,1.1,3.6,3.6s0,6.8,0,6.8h-6v-4.8H99v22.7h7.9V90.1z"
       id="path123" /><path
       fill="#333333"
       d="M27.7,71v5.6h2.7v22.7h-2.7v5.6h11.7v-5.6h-2.8v-9.2h9.9c2.5,0,4.5-1.6,4.5-3.8V75.1c0-3-2-4.1-4.1-4.1   H27.7z M36.6,76.6h8v7.8h-8V76.6z"
       id="path125" /><path
       fill="#333333"
       d="M192.2,105.4c-11.7,0-16.1-8.8-16.1-17.1c0-10.4,6.4-17.7,16.5-17.7c10.2,0,16.5,6.7,16.5,16.9   C209.2,96.8,203.5,105.4,192.2,105.4z M192.7,72.7c-6.3,0-11.2,5.2-11.2,15.1c0,10.7,4.8,15.4,10.7,15.4c8.5,0,11.6-7.2,11.6-15.9   C203.8,79.6,200.6,72.7,192.7,72.7z"
       id="path127" /><path
       fill="#333333"
       d="M242.4,73c-2.1,0-2.4,0.2-2.4,2.4v29.9h-2.1l-21.5-28.5h-0.1v23.7c0,2.2,0.3,2.5,2.5,2.5h1.7v1.9   c-1.8-0.1-3.6-0.2-5.4-0.2c-1.8,0-3.6,0.1-5.4,0.2V103h1.7c2.1,0,2.5-0.2,2.5-2.5V75.4c0-2.2-0.3-2.5-2.5-2.5h-1.7V71   c1.4,0.1,2.9,0.2,4.4,0.2s3-0.1,4.4-0.2c0.2,0.6,0.7,1.5,1.2,2.2l17.7,23.4h0.1V75.4c0-2.2-0.3-2.4-2.5-2.4h-1.7v-1.9   c1.8,0.1,3.6,0.2,5.4,0.2c1.8,0,3.6-0.1,5.4-0.2V73H242.4z"
       id="path129" /><path
       fill="#333333"
       d="M272.5,104.9c-4.9-0.1-9.8-0.2-14.8-0.2c-3.6,0-7.2,0.1-10.7,0.2V103h1.7c2.1,0,2.5-0.2,2.5-2.4V75.5   c0-2.2-0.3-2.5-2.5-2.5H247v-1.9c2.2,0.1,4.4,0.2,6.5,0.2s4.4-0.1,6.5-0.2V73h-1.7c-2.1,0-2.4,0.2-2.4,2.5v26.9h9.2   c4.1,0,4.9-0.6,5.9-3.3l1.2-3.4h2L272.5,104.9z"
       id="path131" /><path
       fill="#333333"
       d="M282.9,104.7c-2.2,0-4.4,0.1-6.5,0.2V103h1.7c2.1,0,2.5-0.2,2.5-2.5v-25c0-2.2-0.3-2.5-2.5-2.5h-1.7v-1.9   c2.2,0.1,4.4,0.2,6.5,0.2s4.4-0.1,6.5-0.2V73h-1.7c-2.101,0-2.4,0.2-2.4,2.5v25c0,2.3,0.3,2.5,2.5,2.5h1.7v1.9   C287.2,104.8,285,104.7,282.9,104.7z"
       id="path133" /><path
       fill="#333333"
       d="M326,73c-2.1,0-2.4,0.2-2.4,2.5v29.9h-2.1L300,76.8h-0.1v23.7c0,2.2,0.3,2.5,2.5,2.5h1.699v1.9   c-1.8-0.1-3.6-0.2-5.399-0.2s-3.601,0.1-5.4,0.2V103h1.7c2.1,0,2.5-0.2,2.5-2.4V75.5c0-2.2-0.3-2.5-2.5-2.5h-1.7v-1.9   c1.4,0.1,2.9,0.2,4.4,0.2s3-0.1,4.399-0.2c0.2,0.6,0.7,1.5,1.2,2.2L321,96.7h0.1V75.4c0-2.2-0.3-2.5-2.5-2.5H317V71   c1.8,0.1,3.6,0.2,5.4,0.2c1.8,0,3.6-0.1,5.399-0.2v2H326z"
       id="path135" /><path
       fill="#333333"
       d="M356.1,104.9c-6.5-0.1-13.1-0.2-17.6-0.2c-3.8,0-6.2,0.1-7.9,0.2V103h1.7c2.101,0,2.5-0.2,2.5-2.4V75.5   c0-2.2-0.3-2.5-2.5-2.5h-1.7v-1.9l3.601,0.1c1.1,0,2.1,0,3.2,0h10.8c2.5,0,4.8-0.1,7-0.2l0.399,8h-2c-0.8-5-1.5-5.5-5.6-5.5h-8.4   v12.3h4.4c6,0,6.4-0.1,6.4-2.7v-1h1.899v10.5H350.4v-0.5c0-3.7-0.801-4-4.801-4h-6v14.2h10c3.5,0,4.101-0.2,6.101-5.7h2.1   L356.1,104.9z"
       id="path137" /></g><g
     id="SPON_hellgrau"><path
       fill="#676766"
       d="M18.1,380.1H4c0,0,0-12.199,0-14.8c0-2.5,1.3-4.3,4.3-4.3c3.1,0,11.2,0,12.5,0c2.2,0,3.6,1.3,3.6,3.9   c0,2.5,0,6.5,0,6.5H18V366.6H9.9v7.801h14.4c0,0,0,13.699,0,16.199c0,2.601-1.5,4.2-4.5,4.2s-8.7,0-11.7,0s-4.3-1.7-4.3-4   s0-7.8,0-7.8h6v6.1h8.1L18.1,380.1z"
       id="path140" /><polygon
       fill="#676766"
       points="89.6,371.4 89.6,361 66.6,361 66.6,366.6 69.5,366.6 69.5,389.3 66.6,389.3 66.6,394.9 89.6,394.9    89.6,383.3 83.2,383.3 83.2,389.3 75.5,389.3 75.5,380.1 86.1,380.1 86.1,374.5 75.5,374.5 75.5,366.6 83.2,366.6 83.2,371.4  "
       id="polygon142" /><polygon
       fill="#676766"
       points="139.4,371.4 139.4,361 116.3,361 116.3,366.6 119.3,366.6 119.3,389.3 116.3,389.3 116.3,394.9    139.4,394.9 139.4,383.3 133,383.3 133,389.3 125.2,389.3 125.2,380.1 135.9,380.1 135.9,374.5 125.2,374.5 125.2,366.6 133,366.6    133,371.4  "
       id="polygon144" /><polygon
       fill="#676766"
       points="154.7,366.6 154.7,361 143.4,361 143.4,366.6 146.3,366.6 146.3,389.3 143.4,389.3 143.4,394.9    166.4,394.9 166.4,383.3 160,383.3 160,389.3 152.3,389.3 152.3,366.6  "
       id="polygon146" /><polygon
       fill="#676766"
       points="64.1,366.6 61.1,366.6 61.1,389.3 64.1,389.3 64.1,394.9 52.3,394.9 52.3,389.3 55,389.3 55,366.6    52.3,366.6 52.3,361 64.1,361  "
       id="polygon148" /><path
       fill="#676766"
       d="M106.9,380.1h-5.6v-5.6h11.5v20.4c0,0-14.4,0-16.8,0s-3.4-1.9-3.4-3.4s0-25,0-26.8s0.9-3.7,3.6-3.7   c2.7,0,11.5,0,13,0s3.6,1.1,3.6,3.6s0,6.801,0,6.801h-6V366.6h-7.9v22.7h7.9v-9.2H106.9z"
       id="path150" /><path
       fill="#676766"
       d="M27.7,361v5.6h2.7v22.7h-2.7v5.601h11.7V389.3h-2.8v-9.2h9.9c2.5,0,4.5-1.6,4.5-3.8v-11.2   c0-3-2-4.1-4.1-4.1H27.7z M36.6,366.6h8v7.801h-8V366.6z"
       id="path152" /><path
       fill="#676766"
       d="M192.2,395.4c-11.7,0-16.1-8.801-16.1-17.101c0-10.399,6.4-17.7,16.5-17.7c10.2,0,16.5,6.7,16.5,16.9   C209.2,386.8,203.5,395.4,192.2,395.4z M192.7,362.7c-6.3,0-11.2,5.2-11.2,15.1c0,10.7,4.8,15.4,10.7,15.4   c8.5,0,11.6-7.2,11.6-15.9C203.8,369.6,200.6,362.7,192.7,362.7z"
       id="path154" /><path
       fill="#676766"
       d="M242.4,363c-2.1,0-2.4,0.2-2.4,2.5v29.9h-2.1l-21.5-28.5h-0.1V390.6c0,2.2,0.3,2.5,2.5,2.5h1.7v1.9   c-1.8-0.1-3.6-0.2-5.4-0.2c-1.8,0-3.6,0.101-5.4,0.2v-2h1.7c2.1,0,2.5-0.2,2.5-2.5v-25.1c0-2.2-0.3-2.5-2.5-2.5h-1.7V361   c1.4,0.1,2.9,0.2,4.4,0.2s3-0.101,4.4-0.2c0.2,0.6,0.7,1.5,1.2,2.2l17.7,23.399h0.1V365.4c0-2.2-0.3-2.5-2.5-2.5h-1.7V361   c1.8,0.1,3.6,0.2,5.4,0.2c1.8,0,3.6-0.101,5.4-0.2v1.9h-1.7V363z"
       id="path156" /><path
       fill="#676766"
       d="M272.5,394.9c-4.9-0.101-9.8-0.2-14.8-0.2c-3.6,0-7.2,0.1-10.7,0.2V393h1.7c2.1,0,2.5-0.2,2.5-2.5v-25.1   c0-2.2-0.3-2.5-2.5-2.5H247V361c2.2,0.1,4.4,0.2,6.5,0.2s4.4-0.101,6.5-0.2v1.9h-1.7c-2.1,0-2.4,0.199-2.4,2.5V392.3h9.2   c4.1,0,4.9-0.6,5.9-3.3l1.2-3.4h2L272.5,394.9z"
       id="path158" /><path
       fill="#676766"
       d="M282.9,394.7c-2.2,0-4.4,0.1-6.5,0.2V393h1.7c2.1,0,2.5-0.2,2.5-2.5v-25c0-2.2-0.3-2.5-2.5-2.5h-1.7v-1.9   c2.2,0.101,4.4,0.2,6.5,0.2s4.4-0.1,6.5-0.2v1.9h-1.7c-2.101,0-2.4,0.2-2.4,2.5v25c0,2.3,0.3,2.5,2.5,2.5h1.7v1.9   C287.2,394.8,285,394.7,282.9,394.7z"
       id="path160" /><path
       fill="#676766"
       d="M326,363c-2.1,0-2.4,0.2-2.4,2.5v29.9h-2.1L300,366.9h-0.1V390.6c0,2.2,0.3,2.5,2.5,2.5h1.699v1.9   c-1.8-0.1-3.6-0.2-5.399-0.2s-3.601,0.101-5.4,0.2v-2h1.7c2.1,0,2.5-0.2,2.5-2.5v-25.1c0-2.2-0.3-2.5-2.5-2.5h-1.7V361   c1.4,0.1,2.9,0.2,4.4,0.2s3-0.101,4.399-0.2c0.2,0.6,0.7,1.5,1.2,2.2L321,386.6h0.1V365.4c0-2.2-0.3-2.5-2.5-2.5H317V361   c1.8,0.1,3.6,0.2,5.4,0.2c1.8,0,3.6-0.101,5.399-0.2v1.9H326V363z"
       id="path162" /><path
       fill="#676766"
       d="M356.1,394.9c-6.5-0.101-13.1-0.2-17.6-0.2c-3.8,0-6.2,0.1-7.9,0.2V393h1.7c2.101,0,2.5-0.2,2.5-2.5v-25.1   c0-2.2-0.3-2.5-2.5-2.5h-1.7V361l3.601,0.1c1.1,0,2.1,0,3.2,0h10.8c2.5,0,4.8-0.1,7-0.199l0.399,8h-2c-0.8-5-1.5-5.5-5.6-5.5h-8.4   v12.3h4.4c6,0,6.4-0.101,6.4-2.7v-1h1.899v10.5H350.4V382c0-3.7-0.801-4-4.801-4h-6v14.2h10c3.5,0,4.101-0.2,6.101-5.7h2.1   L356.1,394.9z"
       id="path164" /></g><g
     id="SPON_weiss"><path
       fill="#FFFFFF"
       d="M18.1,527.5H4c0,0,0-12.2,0-14.8c0-2.5,1.3-4.3,4.3-4.3c3.1,0,11.2,0,12.5,0c2.2,0,3.6,1.3,3.6,3.899   c0,2.5,0,6.5,0,6.5H18V514H9.9v7.8h14.4c0,0,0,13.7,0,16.2c0,2.6-1.5,4.2-4.5,4.2s-8.7,0-11.7,0s-4.3-1.7-4.3-4s0-7.8,0-7.8h6v6.1   h8.1L18.1,527.5z"
       id="path167" /><polygon
       fill="#FFFFFF"
       points="89.6,518.8 89.6,508.4 66.6,508.4 66.6,514 69.5,514 69.5,536.7 66.6,536.7 66.6,542.3 89.6,542.3    89.6,530.7 83.2,530.7 83.2,536.7 75.5,536.7 75.5,527.5 86.1,527.5 86.1,521.9 75.5,521.9 75.5,514 83.2,514 83.2,518.8  "
       id="polygon169" /><polygon
       fill="#FFFFFF"
       points="139.4,518.8 139.4,508.4 116.3,508.4 116.3,514 119.3,514 119.3,536.7 116.3,536.7 116.3,542.3    139.4,542.3 139.4,530.7 133,530.7 133,536.7 125.2,536.7 125.2,527.5 135.9,527.5 135.9,521.9 125.2,521.9 125.2,514 133,514    133,518.8  "
       id="polygon171" /><polygon
       fill="#FFFFFF"
       points="154.7,514 154.7,508.4 143.4,508.4 143.4,514 146.3,514 146.3,536.7 143.4,536.7 143.4,542.3    166.4,542.3 166.4,530.7 160,530.7 160,536.7 152.3,536.7 152.3,514  "
       id="polygon173" /><polygon
       fill="#FFFFFF"
       points="64.1,514 61.1,514 61.1,536.7 64.1,536.7 64.1,542.3 52.3,542.3 52.3,536.7 55,536.7 55,514    52.3,514 52.3,508.4 64.1,508.4  "
       id="polygon175" /><path
       fill="#FFFFFF"
       d="M106.9,527.5h-5.6v-5.6h11.5V542.3c0,0-14.4,0-16.8,0s-3.4-1.899-3.4-3.399s0-25,0-26.801   c0-1.8,0.9-3.699,3.6-3.699c2.7,0,11.5,0,13,0s3.6,1.1,3.6,3.6s0,6.8,0,6.8h-6V514h-7.9v22.7h7.9v-9.2H106.9z"
       id="path177" /><path
       fill="#FFFFFF"
       d="M27.7,508.4v5.6h2.7v22.7h-2.7v5.6h11.7v-5.6h-2.8v-9.2h9.9c2.5,0,4.5-1.6,4.5-3.8v-11.2c0-3-2-4.1-4.1-4.1   H27.7z M36.6,514h8v7.8h-8V514z"
       id="path179" /><path
       fill="#FFFFFF"
       d="M192.2,542.8c-11.7,0-16.1-8.8-16.1-17.1c0-10.4,6.4-17.7,16.5-17.7c10.2,0,16.5,6.7,16.5,16.9   C209.2,534.2,203.5,542.8,192.2,542.8z M192.7,510.1c-6.3,0-11.2,5.2-11.2,15.101c0,10.7,4.8,15.399,10.7,15.399   c8.5,0,11.6-7.199,11.6-15.899C203.8,517,200.6,510.1,192.7,510.1z"
       id="path181" /><path
       fill="#FFFFFF"
       d="M242.4,510.4c-2.1,0-2.4,0.199-2.4,2.5V542.8h-2.1l-21.5-28.5h-0.1V538c0,2.2,0.3,2.5,2.5,2.5h1.7v1.9   c-1.8-0.101-3.6-0.2-5.4-0.2c-1.8,0-3.6,0.1-5.4,0.2v-1.9h1.7c2.1,0,2.5-0.2,2.5-2.5v-25.1c0-2.2-0.3-2.5-2.5-2.5h-1.7v-1.9   c1.4,0.1,2.9,0.2,4.4,0.2s3-0.101,4.4-0.2c0.2,0.6,0.7,1.5,1.2,2.2l17.7,23.399h0.1V512.9c0-2.2-0.3-2.5-2.5-2.5h-1.7v-1.9   c1.8,0.1,3.6,0.2,5.4,0.2c1.8,0,3.6-0.101,5.4-0.2v1.9H242.4L242.4,510.4z"
       id="path183" /><path
       fill="#FFFFFF"
       d="M272.5,542.3c-4.9-0.1-9.8-0.2-14.8-0.2c-3.6,0-7.2,0.101-10.7,0.2V540.4h1.7c2.1,0,2.5-0.2,2.5-2.5V512.8   c0-2.2-0.3-2.5-2.5-2.5H247V508.4c2.2,0.1,4.4,0.199,6.5,0.199s4.4-0.1,6.5-0.199v1.899h-1.7c-2.1,0-2.4,0.2-2.4,2.5v26.9h9.2   c4.1,0,4.9-0.601,5.9-3.3l1.2-3.4h2L272.5,542.3z"
       id="path185" /><path
       fill="#FFFFFF"
       d="M282.9,542.1c-2.2,0-4.4,0.101-6.5,0.2V540.4h1.7c2.1,0,2.5-0.2,2.5-2.5v-25c0-2.2-0.3-2.5-2.5-2.5h-1.7   v-1.9c2.2,0.1,4.4,0.2,6.5,0.2s4.4-0.101,6.5-0.2v1.9h-1.7c-2.101,0-2.4,0.199-2.4,2.5v25c0,2.3,0.3,2.5,2.5,2.5h1.7v1.899   C287.2,542.2,285,542.1,282.9,542.1z"
       id="path187" /><path
       fill="#FFFFFF"
       d="M326,510.4c-2.1,0-2.4,0.199-2.4,2.5V542.8h-2.1L300,514.2h-0.1v23.7c0,2.199,0.3,2.5,2.5,2.5h1.699v1.899   c-1.8-0.1-3.6-0.2-5.399-0.2s-3.601,0.101-5.4,0.2V540.4h1.7c2.1,0,2.5-0.2,2.5-2.5V512.8c0-2.2-0.3-2.5-2.5-2.5h-1.7V508.4   c1.4,0.1,2.9,0.199,4.4,0.199s3-0.1,4.399-0.199c0.2,0.6,0.7,1.5,1.2,2.199L321,534h0.1v-21.2c0-2.2-0.3-2.5-2.5-2.5H317V508.4   c1.8,0.1,3.6,0.199,5.4,0.199c1.8,0,3.6-0.1,5.399-0.199v1.899H326V510.4z"
       id="path189" /><path
       fill="#FFFFFF"
       d="M356.1,542.3c-6.5-0.1-13.1-0.2-17.6-0.2c-3.8,0-6.2,0.101-7.9,0.2V540.4h1.7c2.101,0,2.5-0.2,2.5-2.5   V512.8c0-2.2-0.3-2.5-2.5-2.5h-1.7V508.4l3.601,0.1c1.1,0,2.1,0,3.2,0h10.8c2.5,0,4.8-0.1,7-0.2l0.399,8h-2c-0.8-5-1.5-5.5-5.6-5.5   h-8.4v12.3h4.4c6,0,6.4-0.1,6.4-2.699v-1h1.899v10.5H350.4v-0.5c0-3.7-0.801-4-4.801-4h-6V539.6h10c3.5,0,4.101-0.199,6.101-5.699   h2.1L356.1,542.3z"
       id="path191" /></g><g
     id="g193"><path
       fill="#333333"
       d="M18,489c0-4.1-0.1-8.9-0.4-13.8l0,0L12.7,489h-1.4l-4.9-13.8l0,0C6.2,480.1,6,484.4,6,489H4.2   c0.1-5.2,0.3-10.5,0.9-15.7h2.4l4.6,12.4h0.1l4.5-12.4H19c0.5,5.2,0.9,10.4,0.9,15.7H18z"
       id="path195" /><path
       fill="#333333"
       d="M33.3,487.3c-1.6,1.2-3.1,1.9-5.4,1.9c-3.7,0-5.4-2.2-5.4-6.101c0-3.6,1.8-6.399,5.5-6.399   s5.2,2.399,5,6.399h-8.6c0,2.601,0.8,4.5,3.6,4.5c1.8,0,3.3-0.8,4.3-1.6L33.3,487.3z M31.1,481.8c0-2.1-0.9-3.6-3.1-3.6   c-2.3,0-3.2,1.8-3.4,3.6H31.1z"
       id="path197" /><path
       fill="#333333"
       d="M35.9,474.9V472.8h2v2.101H35.9z M36,489v-12h1.8v12H36z"
       id="path199" /><path
       fill="#333333"
       d="M48.8,489v-7.4c0-2.5-0.7-3.3-2-3.3c-1.2,0-2.3,0.5-3.8,1.8v9h-1.8V477h1.6l0.1,1.5c1.4-1,2.5-1.7,4.1-1.7   c2.3,0,3.6,1.2,3.6,4.4v7.8H48.8L48.8,489z"
       id="path201" /><path
       fill="#333333"
       d="M70.9,489h-8.7c-1.3,0-2.4-1.1-2.4-2.4V481.2h4.3v4.1h4.8v-6h-9v-10c0-1.3,1.1-2.3,2.3-2.3h8.7   c1.3,0,2.4,1,2.4,2.3v4.4h-4.4V470.6h-4.8v5h9.1v11C73.3,487.9,72.2,489,70.9,489z"
       id="path203" /><path
       fill="#333333"
       d="M88.2,479.3h-6.9v6H83v3.601h-7.7V485.3H77v-14.8h-1.7v-3.7h12.9c1.3,0,2.3,1,2.3,2.3v7.601   C90.5,478.2,89.5,479.3,88.2,479.3z M86.2,470.6h-4.9v5h4.9V470.6z"
       id="path205" /><path
       fill="#333333"
       d="M92.1,489v-3.6h1.7V470.6h-1.7V466.9h7.6v3.699H98V485.4h1.6v3.6H92.1z"
       id="path207" /><path
       fill="#333333"
       d="M101.5,489v-3.6h1.6V470.6h-1.6V466.9h15.1v6.699h-4.2v-3.1h-5v5h6.7v3.7h-6.7v6h5V481.1h4.2v7.801h-15.1   V489z"
       id="path209" /><path
       fill="#333333"
       d="M120.9,489c-1.3,0-2.4-1-2.4-2.3v-17.4c0-1.3,1-2.399,2.3-2.399h8.7c1.3,0,2.3,1.1,2.3,2.399v4.4h-4.4   V470.6h-4.8V485.4h4.9v-6H124v-3.7h7.9V489H120.9z"
       id="path211" /><path
       fill="#333333"
       d="M133.8,489v-3.6h1.6V470.6h-1.6V466.9h15.1v6.699h-4.2v-3.1h-5v5h6.7v3.7h-6.7v6h5V481.1h4.2v7.801h-15.1   V489z"
       id="path213" /><path
       fill="#333333"
       d="M150.9,489v-3.6h1.7V470.6h-1.7V466.9h7.8v3.699h-1.8V485.4h4.9V481.3h4.2v7.8h-15.1V489z"
       id="path215" /></g><g
     id="g217"><path
       fill="#676767"
       d="M280.9,418.1h6.4v3.4c1-2.1,2.3-3.9,6.101-3.9c0.899,0,3.699,0,5.399,2.601c1,1.6,1,4,1,6.5V443H293v-16.3   c0-2.2-0.2-3.7-2.3-3.7c-3,0-3,2.4-3,5.4V443h-6.8V418.1L280.9,418.1z M4.1,442.9V418h6.5v3.4c0.7-1.4,1.9-3.9,6-3.9   c4.2,0,4.9,2.5,5.3,3.9c0.7-1.7,2-3.9,6-3.9c6.3,0,6.3,4.6,6.3,9.1V442.9h-6.8V427.3c0-2.8,0-4.399-2.2-4.399c-2.5,0-2.6,2-2.6,5.5   v14.5h-6.8v-15.7c0-3-0.1-4.2-2.1-4.2c-2.4,0-2.6,2-2.6,5.5V443h-7V442.9z M42,425.9l-6.4-0.7c0.2-1.4,0.6-4.4,4.1-6.4   c1.7-1,3.8-1.399,5.8-1.399c2.6,0,5.3,0.699,7.1,2.6c1.5,1.5,1.6,4.3,1.6,7.4v9.899c0,4.2,0.2,4.7,0.4,5.5h-6.3   c-0.3-1-0.3-1.6-0.3-3.8c-0.9,1.6-2.5,4.3-6.8,4.3c-3.3,0-6.4-1.899-6.4-6.8c0-6.9,5.3-8.7,12.6-9.1v-1c0-2.2,0-4.4-2.4-4.4   C42.7,422.1,42.2,424,42,425.9L42,425.9z M47.4,432.2V431c-3.9,0.5-5.6,1.5-5.6,4.7c0,1.8,0.6,3.1,2.3,3.1   c0.8,0,1.6-0.399,2.2-1.399C47.3,436.1,47.4,434.5,47.4,432.2L47.4,432.2z M55.8,418.1h6.5v3.4c1-2.1,2.3-3.9,6.1-3.9   c0.9,0,3.7,0,5.4,2.601c1,1.6,1,4,1,6.5V443H68v-16.3c0-2.2-0.2-3.7-2.3-3.7c-3,0-3,2.4-3,5.4V443h-6.8v-24.9H55.8z M82.8,425.9   l-6.4-0.7c0.2-1.4,0.6-4.4,4.1-6.4c1.7-1,3.8-1.399,5.8-1.399c2.6,0,5.3,0.699,7.1,2.6c1.5,1.5,1.6,4.3,1.6,7.4v9.899   c0,4.2,0.1,4.7,0.4,5.5H89c-0.3-1-0.3-1.6-0.3-3.8c-0.9,1.6-2.5,4.3-6.8,4.3c-3.3,0-6.4-1.899-6.4-6.8c0-6.9,5.3-8.7,12.6-9.1v-1   c0-2.2,0-4.4-2.4-4.4C83.4,422.1,83,424,82.8,425.9L82.8,425.9z M88.1,432.2V431c-3.9,0.5-5.6,1.5-5.6,4.7c0,1.8,0.6,3.1,2.3,3.1   c0.8,0,1.6-0.399,2.2-1.399C88,436.1,88.1,434.5,88.1,432.2L88.1,432.2z M117.1,414v4.5c-0.4-0.1-0.8-0.2-1.5-0.2   c-0.8,0-2.1,0.101-2.6,2.3c1.8,1.9,1.8,4.4,1.8,5c0,5-4.2,7.5-8.8,7.5c-1.5,0-2.4-0.3-3.2-0.5c-1.6,0.9-1.6,1.9-1.6,2.101   c0,1.399,1.4,1.5,4.1,1.7c5.6,0.3,7.3,0.399,9,1.699c1.9,1.301,2.5,3.4,2.5,5.5c0,7.7-8,8.301-12,8.301c-2.1,0-10,0-10-5.9   c0-3.1,2.4-4.1,4-4.6c-0.8-0.4-3.2-1.5-3.2-4.301c0-3,2.6-4.5,4.2-5.5c-1.5-0.8-3.6-2-3.6-6.199c0-5.9,4.9-7.7,9.1-7.7   c2.7,0,4.1,0.6,5.3,1.2c0.3-2.601,0.9-4.9,4.6-4.9C116.2,413.7,116.6,413.9,117.1,414L117.1,414z M102.6,441.9   c-0.8,0.399-2.1,1.1-2.1,3c0,1.8,1.7,2.5,5.4,2.5c3.5,0,5-0.801,5-2.601c0-1.899-1.6-2.399-2.7-2.399   C107.4,442.2,103.5,442,102.6,441.9L102.6,441.9z M105.7,421.2c-1.8,0-2.4,1.3-2.4,4.2c0,1.5,0.1,3.8,2.3,3.8c1.8,0,2.2-1.4,2.2-4   C107.8,422.2,107.1,421.2,105.7,421.2L105.7,421.2z M135.1,431.6h-12.9c-0.1,3.4-0.1,7,3.3,7c2.9,0,3.3-2.699,3.5-4.3l6.1,0.4   c-0.5,2.3-1.8,8.7-9.7,8.7c-7.5,0-10.2-6-10.2-12.601c0-1.6,0.2-5.5,1.8-8.6c1.7-3.2,5-4.7,8.3-4.7c4.3,0,6.9,2.4,8,4.5   C135,425.4,135.1,428.6,135.1,431.6L135.1,431.6z M122.2,427.6h6.4c0.1-1.399,0.2-5.5-3.2-5.5C122.3,422.1,122.3,425.9,122.2,427.6   L122.2,427.6z M135.8,418.1h6v6c0.6-2.1,1.8-6.399,5.8-6.399c0.5,0,0.8,0,1.2,0.2v6.8c-0.6-0.101-0.9-0.101-1.1-0.101   c-5,0-5,5.801-5,7.7V443h-6.8v-24.9H135.8z M162.1,442.9V418h6.4v3.4c0.7-1.4,1.9-3.9,5.9-3.9c4.2,0,4.8,2.5,5.2,3.9   c0.7-1.7,2-3.9,6-3.9c6.2,0,6.2,4.6,6.2,9.1V442.9H185V427.3c0-2.8,0-4.399-2.2-4.399c-2.5,0-2.6,2-2.6,5.5v14.5h-6.8v-15.7   c0-3-0.1-4.2-2.1-4.2c-2.4,0-2.6,2-2.6,5.5V443h-6.6V442.9z M199.8,425.9l-6.4-0.7c0.2-1.4,0.6-4.4,4.1-6.4   c1.7-1,3.8-1.399,5.8-1.399c2.6,0,5.2,0.699,7.1,2.6c1.5,1.5,1.6,4.3,1.6,7.4v9.899c0,4.2,0.1,4.7,0.4,5.5h-6.3   c-0.3-1-0.3-1.6-0.3-3.8c-0.9,1.6-2.5,4.3-6.7,4.3c-3.3,0-6.4-1.899-6.4-6.8c0-6.9,5.3-8.7,12.6-9.1v-1c0-2.2,0-4.4-2.4-4.4   C200.5,422.1,200,424,199.8,425.9L199.8,425.9z M205.2,432.2V431c-3.9,0.5-5.5,1.5-5.5,4.7c0,1.8,0.6,3.1,2.3,3.1   c0.8,0,1.6-0.399,2.2-1.399C205.1,436.1,205.2,434.5,205.2,432.2L205.2,432.2z M234,414v4.5c-0.4-0.1-0.8-0.2-1.5-0.2   c-0.8,0-2.1,0.101-2.6,2.3c1.8,1.9,1.8,4.4,1.8,5c0,5-4.2,7.5-8.8,7.5c-1.5,0-2.4-0.3-3.2-0.5c-1.6,0.9-1.6,1.9-1.6,2.101   c0,1.399,1.4,1.5,4.1,1.7c5.5,0.3,7.2,0.399,8.9,1.699c1.9,1.301,2.5,3.4,2.5,5.5c0,7.7-8,8.301-11.9,8.301c-2.1,0-10,0-10-5.9   c0-3.1,2.4-4.1,4-4.6c-0.8-0.4-3.2-1.5-3.2-4.301c0-3,2.6-4.5,4.2-5.5c-1.5-0.8-3.6-2-3.6-6.199c0-5.9,4.9-7.7,9.1-7.7   c2.7,0,4.1,0.6,5.2,1.2c0.3-2.601,0.9-4.9,4.6-4.9C233,413.7,233.5,413.9,234,414L234,414z M219.6,441.9c-0.8,0.399-2.1,1.1-2.1,3   c0,1.8,1.7,2.5,5.4,2.5c3.5,0,5-0.801,5-2.601c0-1.899-1.6-2.399-2.7-2.399C224.4,442.2,220.4,442,219.6,441.9L219.6,441.9z    M222.6,421.2c-1.8,0-2.4,1.3-2.4,4.2c0,1.5,0.2,3.8,2.3,3.8c1.8,0,2.2-1.4,2.2-4C224.7,422.2,224,421.2,222.6,421.2L222.6,421.2z    M240.5,425.9l-6.4-0.7c0.2-1.4,0.6-4.4,4.1-6.4c1.7-1,3.8-1.399,5.8-1.399c2.6,0,5.2,0.699,7.1,2.6c1.5,1.5,1.6,4.3,1.6,7.4v9.899   c0,4.2,0.1,4.7,0.4,5.5h-6.3c-0.3-1-0.3-1.6-0.3-3.8c-0.9,1.6-2.5,4.3-6.7,4.3c-3.3,0-6.4-1.899-6.4-6.8c0-6.9,5.3-8.7,12.6-9.1v-1   c0-2.2,0-4.4-2.4-4.4C241.1,422.1,240.7,424,240.5,425.9L240.5,425.9z M245.8,432.2V431c-3.9,0.5-5.5,1.5-5.5,4.7   c0,1.8,0.6,3.1,2.3,3.1c0.8,0,1.6-0.399,2.2-1.399C245.7,436.1,245.8,434.5,245.8,432.2L245.8,432.2z M254.9,418.1h15.2v4.4   l-9,15.5h9.2v4.9H254V438l8.8-15h-8v-4.9H254.9z M278.9,415.9H272V409h6.9V415.9L278.9,415.9z M272.1,418.1h6.8V443h-6.8V418.1   L272.1,418.1z"
       id="path219" /></g></svg>