<?xml version="1.0" encoding="utf-8"?>
<!-- Generator: Adobe Illustrator 15.1.0, SVG Export Plug-In . SVG Version: 6.00 Build 0)  -->
<!DOCTYPE svg PUBLIC "-//W3C//DTD SVG 1.1//EN" "http://www.w3.org/Graphics/SVG/1.1/DTD/svg11.dtd">
<svg version="1.1" id="Ebene_1" xmlns="http://www.w3.org/2000/svg" xmlns:xlink="http://www.w3.org/1999/xlink" x="0px" y="0px"
	 width="72px" height="20px" viewBox="0 0 72 20" style="enable-background:new 0 0 72 20;" xml:space="preserve">
<g>
	<g>
		<path style="fill-rule:evenodd;clip-rule:evenodd;fill:#FFFFFF;" d="M39.1,20c0.6,0,0.7-0.7,0.7-0.7l0-0.1c0,0,0-18.4,0-18.5
			c0-0.1-0.1-0.7-0.7-0.7c-0.7,0-1.7,0-2.3,0C36.1,0,36,0.7,36,0.7s0,5.5,0,6.7c0,1.1-1,1.3-1.2,1.2c-0.1,0-8.1,0-8.2,0
			c-0.1,0-1.2-0.1-1.2-1.2c0-1.2,0-6.6,0-6.7c0-0.1-0.1-0.7-0.7-0.7c-0.7,0-1.7,0-2.3,0c-0.6,0-0.7,0.6-0.7,0.7c0,0.1,0,17.8,0,17.8
			c0,0.4,0.3,1.5,1.4,1.5c1.3,0,3.9,0,4.2,0c0.4,0,1.4-0.3,1.4-1.5c0-1.3,0-4.9,0-5c0-0.2,0.1-1.2,1.2-1.2c1.1,0,3.8,0,4.8,0
			c1,0,1.2,1.1,1.2,1.2c0,0.1,0,5.2,0,5.9c0,0.7,0.5,0.7,0.7,0.7C36.9,20,38.4,20,39.1,20z"/>
	</g>
	<g>
		<path style="fill-rule:evenodd;clip-rule:evenodd;fill:#FFFFFF;" d="M49.3,20c0.2,0,1.4-0.1,1.4-1.5c0-1.4,0-7,0-7l-3.2-3.4
			c0,0,0-7.3,0-7.3c0-0.1,0-0.7-0.7-0.7c-0.7,0-1.7,0-2.4,0c-0.7,0-0.7,0.6-0.7,0.7c0,0.1,0,17.5,0,17.8c0,0.4,0.3,1.5,1.4,1.5
			C46.3,20,49.1,20,49.3,20z"/>
	</g>
	<g>
		<path style="fill-rule:evenodd;clip-rule:evenodd;fill:#FFFFFF;" d="M67.6,8.6c0.7,0,0.7-0.7,0.7-0.7V4.2c0,0,0-0.7-0.7-0.7
			s-8.5,0-9.1,0c-0.7,0-0.7,0.7-0.7,0.7c0,0.1,0,3.6,0,3.6c0,0,0,0.8,0.7,0.7C59.2,8.6,66.9,8.6,67.6,8.6z M59.7,20
			c-0.3,0-3,0-4.3,0c-1.3,0-1.4-1.3-1.4-1.5c0-0.2,0-16.9,0-17C54,1.3,54.1,0,55.4,0c1.3,0,15.1,0,15.1,0C71.6,0,72,1,72,1.5
			c0,0,0,8.8,0,9.2c0,0.4-0.2,1.4-1.4,1.5c-1.3,0-7.1,0-8.2,0c-1.1,0-1.2,1-1.2,1.2c0,0.2,0,3.7,0,5.1C61.1,19.8,60.1,20,59.7,20z"
			/>
	</g>
	<path style="fill-rule:evenodd;clip-rule:evenodd;fill:#FFFFFF;" d="M1.4,0"/>
	<path style="fill:#FFFFFF;" d="M17.9,5.9"/>
	<polygon style="fill-rule:evenodd;clip-rule:evenodd;fill:#FFFFFF;" points="0,1.5 0,3 0,3 	"/>
	<path style="fill:#FFFFFF;" d="M17.9,18.5C17.8,19.8,17,20,16.5,20c-0.5,0-14.9,0-15,0C1.3,20,0,19.9,0,18.5S0,8.2,0,3V1.5
		C0.1,0.1,1.2,0,1.4,0h0c2.8,0,5.5,0,5.6,0c3.7,0,9.3,0,9.4,0h0c0.6,0,1.4,0.5,1.4,1.5c0,1.5,0,4.4,0,4.4c-0.1,0.7-0.7,0.7-0.7,0.7
		h-2.3c-0.7-0.1-0.7-0.7-0.7-0.7l0-1.1c0,0,0.1-1.2-1.2-1.3c-1.2,0-7.9,0-8,0c-0.1,0-1.1,0.1-1.2,1.2c0,1.2,0,3.3,0,3.3L7,11.4
		c0,0,0,3.5,0,3.8c0,0.2,0.1,1.1,1.1,1.2c0.9,0,4.6,0,4.9,0c0.3,0,1.1-0.2,1.2-1.2c0-0.2,0-0.4,0-0.7c0-0.4,0.2-0.8,0.7-0.8
		c0.9,0,1.6,0,2.3,0c0.7,0,0.7,0.7,0.7,0.7C17.9,14.4,17.9,17.2,17.9,18.5z"/>
</g>
</svg>
